<svg width="202" height="109" fill="none" xmlns="http://www.w3.org/2000/svg"><path d="M84.496 109a23.093 23.093 0 0 1-10.746-2.831L4.936 66.334c-5.961-3.432-6.61-8.596-1.472-11.595l71.75-41.503a18.109 18.109 0 0 1 9.282-2.005h32.007v97.504L84.496 109z" fill="#EDEDED"/><path d="M201 60.224c0 1.876-1.152 3.672-3.465 5.012l-71.726 41.495c-5.137 2.975-14.115 2.598-20.044-.802L36.951 66.094c-3.289-1.941-4.945-4.346-4.945-6.6V48.918h168.978L201 60.224z" fill="#8C8C8C"/><path d="M197.536 54.274L125.81 95.77c-5.137 2.974-14.115 2.598-20.044-.802L36.952 55.132c-5.93-3.432-6.577-8.628-1.44-11.594l71.71-41.528c5.137-2.975 14.115-2.598 20.044.802l68.814 39.835c5.945 3.464 6.593 8.676 1.456 11.627z" fill="#C6C6C6"/><path d="M173.714 46.89c0 8.467-5.601 16.942-16.755 23.405-22.341 12.926-58.572 12.926-80.913 0-11.17-6.463-16.755-14.962-16.755-23.406v-8.724h114.423v8.724z" fill="#FF8600"/><path d="M156.958 62.317c-22.341 12.925-58.54 12.925-80.945-.008-22.404-12.934-22.308-33.886 0-46.812 22.309-12.926 58.572-12.926 80.913 0 22.34 12.926 22.372 33.886.032 46.82z" fill="#FFC400"/><path d="M157.253 43.874c-2.4-1.403-6.105-2.117-8.345-2.406.328-.692.57-1.421.72-2.173.076-.396.114-.799.112-1.202v-2.206l-4.441-.184.208 7.064 11.746 1.107zm2.673 1.29l-36.367 1.556v2.783a.898.898 0 0 0 .504.658c.207.115.431.196.664.24.648.128 15.915 3.127 21.916 3.736 4.121.417 7.938-.24 10.474-1.812 1.865-1.154 2.825-2.686 2.801-4.362l.008-2.798z" fill="#B21942"/><path d="M104.02 15.24c5.769.803 7.202 6.415 7.202 6.415.624-.136 9.249-1.94 13.178.473 5.329 3.28 3.249 7.578-3.705 9.005-5.849 1.203-21.98 2.887-21.98 2.887s-5.353-9.093-6.401-12.525c-1.265-4.154 4.177-7.32 11.706-6.254z" fill="#F0562E"/><path d="M129.136 23.428l-15.515-.169-23.205-5.613v2.71c.003.463.073.922.208 1.364 1.048 3.472 6.241 12.308 6.465 12.677.104.162.247.294.416.385a2.627 2.627 0 0 0 1.537.28c.664-.072 16.331-1.707 22.252-2.926 3.945-.802 6.706-2.47 7.578-4.563.186-.438.281-.91.28-1.387l-.016-2.758z" fill="#B21942"/><path d="M120.023 58.244a.723.723 0 0 1-.376.617l-.08.056-.216.104c-7.882 4.074-23.533 1.925-32.239-3.11-4.945-2.863-8.657-7.875-8.801-12.31v-3.206l41.712 15.114v2.735z" fill="#000"/><path d="M147.229 31.197l-.168-.097a17.388 17.388 0 0 0-10.514-1.844c-3.609.505-6.482 2.1-7.882 4.386-2.096 3.424-4.937 12.493-5.057 12.878-.12.385.088.665.48.89.207.116.431.197.664.24.648.129 15.916 3.128 21.917 3.737 4.121.417 7.937-.24 10.474-1.812 2.536-1.572 3.401-3.825 2.4-6.207a5.069 5.069 0 0 0-2.264-2.245c-2.401-1.403-6.105-2.116-8.346-2.405a9.321 9.321 0 0 0 .72-2.157 4.713 4.713 0 0 0-2.4-5.324l-.024-.04zM125.495 18.64c-2.024-1.17-5.201-1.651-9.202-1.403-1.416.089-2.72.257-3.729.417a10.32 10.32 0 0 0-4.216-4.81 10.72 10.72 0 0 0-3.889-1.308c-4.113-.585-8.002-.08-10.722 1.38-2.72 1.459-3.857 3.68-3.129 6.061 1.048 3.48 6.21 12.3 6.465 12.661.104.162.247.295.416.385a2.628 2.628 0 0 0 1.537.281c.664-.072 16.331-1.708 22.252-2.927 3.945-.802 6.706-2.47 7.578-4.562.872-2.093-.296-4.298-3.201-6.078l-.16-.096z" fill="#FF3B5C"/><path d="M119.367 54.788l.208.096c.576.337.6.866.08 1.219l-.08.056-.216.104c-7.882 4.074-23.533 1.925-32.239-3.11-7.65-4.42-12.338-13.977-5.505-18.588.064-.058.134-.109.208-.152l.128-.056a2.45 2.45 0 0 1 2.08.056l.12.08 35.216 20.295z" fill="#303030"/></svg>