<svg width="408" height="126" viewBox="0 0 408 126" version="1.1" xmlns="http://www.w3.org/2000/svg" xmlns:xlink="http://www.w3.org/1999/xlink">
<title>illustrations-group-3</title>
<desc>Created using Figma</desc>
<g id="Canvas" transform="translate(1939 -8878)">
<g id="illustrations-group-3">
<g id="Group 3">
<g id="Asset 8">
<g id="Shape">
<use xlink:href="#path0_fill" transform="translate(-1917.89 8945.19)"/>
</g>
<g id="Shape">
<use xlink:href="#path1_fill" transform="translate(-1913.19 8934.08)" fill="#FF3B5C"/>
</g>
<g id="Shape">
<use xlink:href="#path2_fill" transform="translate(-1915.93 8933.49)" fill="#FF3B5C"/>
</g>
<g id="Shape">
<use xlink:href="#path3_fill" transform="translate(-1922.33 8933.64)" fill="#FF3B5C"/>
</g>
<g id="Shape">
<use xlink:href="#path4_fill" transform="translate(-1910.38 8929.41)" fill="#AF7E43"/>
</g>
<g id="Shape">
<use xlink:href="#path5_fill" transform="translate(-1909.13 8929.11)"/>
</g>
<g id="Shape">
<use xlink:href="#path6_fill" transform="translate(-1934.74 8933.14)" fill="#A9C6FF"/>
</g>
<g id="Shape">
<use xlink:href="#path7_fill" transform="translate(-1921.45 8940.65)" fill="#76A3FF"/>
</g>
<g id="Shape">
<use xlink:href="#path8_fill" transform="translate(-1934.74 8940.65)" fill="#668CFF"/>
</g>
<g id="Shape">
<use xlink:href="#path9_fill" transform="translate(-1924.2 8942.84)" fill="url(#paint9_linear)"/>
</g>
<g id="Shape">
<use xlink:href="#path10_fill" transform="translate(-1924.19 8941.28)" fill="#A9C6FF"/>
</g>
<g id="Shape">
<use xlink:href="#path11_fill" transform="translate(-1924.2 8935.4)" fill="url(#paint11_linear)"/>
</g>
<g id="Shape">
<use xlink:href="#path10_fill" transform="translate(-1924.19 8933.84)" fill="#A9C6FF"/>
</g>
<g id="Shape">
<use xlink:href="#path12_fill" transform="translate(-1930.85 8939.1)" fill="url(#paint13_linear)"/>
</g>
<g id="Shape">
<use xlink:href="#path10_fill" transform="translate(-1930.84 8937.54)" fill="#A9C6FF"/>
</g>
<g id="Shape">
<use xlink:href="#path9_fill" transform="translate(-1917.56 8939.1)" fill="url(#paint15_linear)"/>
</g>
<g id="Shape">
<use xlink:href="#path10_fill" transform="translate(-1917.55 8937.54)" fill="#A9C6FF"/>
</g>
<g id="Shape">
<use xlink:href="#path13_fill" transform="translate(-1935.1 8953.51)"/>
</g>
<g id="Shape">
<use xlink:href="#path14_fill" transform="translate(-1936.33 8943.21)" fill="#FF8600"/>
</g>
<g id="Shape">
<use xlink:href="#path15_fill" transform="translate(-1935.79 8942.28)" fill="#FF8600"/>
</g>
<g id="Shape">
<use xlink:href="#path16_fill" transform="translate(-1933.9 8944.23)" fill="#FF8600"/>
</g>
<g id="Shape">
<use xlink:href="#path17_fill" transform="translate(-1938.02 8938.38)" fill="#FFC400"/>
</g>
<g id="Shape">
<use xlink:href="#path18_fill" transform="translate(-1939 8937.68)"/>
</g>
</g>
<g id="Asset 8">
<g id="Shape">
<use xlink:href="#path6_fill" transform="translate(-1894.8 8915.48)" fill="#FF3B5C"/>
</g>
<g id="Shape">
<use xlink:href="#path7_fill" transform="translate(-1881.51 8922.99)" fill="#D82B50"/>
</g>
<g id="Shape">
<use xlink:href="#path8_fill" transform="translate(-1894.8 8922.99)" fill="#B21942"/>
</g>
<g id="Shape">
<use xlink:href="#path9_fill" transform="translate(-1884.25 8925.18)" fill="url(#paint26_linear)"/>
</g>
<g id="Shape">
<use xlink:href="#path10_fill" transform="translate(-1884.25 8923.62)" fill="#FF3B5C"/>
</g>
<g id="Shape">
<use xlink:href="#path9_fill" transform="translate(-1884.25 8917.73)" fill="url(#paint28_linear)"/>
</g>
<g id="Shape">
<use xlink:href="#path10_fill" transform="translate(-1884.25 8916.18)" fill="#FF3B5C"/>
</g>
<g id="Shape">
<use xlink:href="#path12_fill" transform="translate(-1890.91 8921.44)" fill="url(#paint30_linear)"/>
</g>
<g id="Shape">
<use xlink:href="#path10_fill" transform="translate(-1890.9 8919.88)" fill="#FF3B5C"/>
</g>
<g id="Shape">
<use xlink:href="#path9_fill" transform="translate(-1877.62 8921.44)" fill="url(#paint32_linear)"/>
</g>
<g id="Shape">
<use xlink:href="#path10_fill" transform="translate(-1877.61 8919.88)" fill="#FF3B5C"/>
</g>
<g id="Shape">
<use xlink:href="#path19_fill" transform="translate(-1881.51 8922.99)" fill="#FFE200"/>
</g>
<g id="Shape">
<use xlink:href="#path20_fill" transform="translate(-1868.21 8930.5)" fill="#FFC400"/>
</g>
<g id="Shape">
<use xlink:href="#path21_fill" transform="translate(-1881.51 8930.5)" fill="#FF8600"/>
</g>
<g id="Shape">
<use xlink:href="#path22_fill" transform="translate(-1870.98 8924.85)" fill="url(#paint37_linear)"/>
</g>
<g id="Shape">
<use xlink:href="#path10_fill" transform="translate(-1870.96 8923.3)" fill="#38FFA1"/>
</g>
<g id="Shape">
<use xlink:href="#path23_fill" transform="translate(-1877.61 8928.69)" fill="url(#paint39_linear)"/>
</g>
<g id="Shape">
<use xlink:href="#path10_fill" transform="translate(-1877.61 8927.13)" fill="#38FFA1"/>
</g>
<g id="Shape">
<use xlink:href="#path24_fill" transform="translate(-1888.16 8910.01)" fill="#A9C6FF"/>
</g>
<g id="Shape">
<use xlink:href="#path25_fill" transform="translate(-1874.87 8917.53)" fill="#76A3FF"/>
</g>
<g id="Shape">
<use xlink:href="#path26_fill" transform="translate(-1888.16 8917.53)" fill="#668CFF"/>
</g>
<g id="Shape">
<use xlink:href="#path9_fill" transform="translate(-1877.62 8919.71)" fill="url(#paint44_linear)"/>
</g>
<g id="Shape">
<use xlink:href="#path10_fill" transform="translate(-1877.61 8918.15)" fill="#A9C6FF"/>
</g>
<g id="Shape">
<use xlink:href="#path9_fill" transform="translate(-1877.62 8912.26)" fill="url(#paint46_linear)"/>
</g>
<g id="Shape">
<use xlink:href="#path10_fill" transform="translate(-1877.61 8910.71)" fill="#A9C6FF"/>
</g>
<g id="Shape">
<use xlink:href="#path9_fill" transform="translate(-1884.26 8915.97)" fill="url(#paint48_linear)"/>
</g>
<g id="Shape">
<use xlink:href="#path10_fill" transform="translate(-1884.26 8914.43)" fill="#A9C6FF"/>
</g>
<g id="Shape">
<use xlink:href="#path12_fill" transform="translate(-1870.98 8915.97)" fill="url(#paint50_linear)"/>
</g>
<g id="Shape">
<use xlink:href="#path10_fill" transform="translate(-1870.97 8914.43)" fill="#A9C6FF"/>
</g>
<g id="Shape">
<use xlink:href="#path27_fill" transform="translate(-1870.98 8932.67)" fill="url(#paint52_linear)"/>
</g>
<g id="Shape">
<use xlink:href="#path28_fill" transform="translate(-1870.96 8931.13)" fill="#FFE200"/>
</g>
<g id="Shape">
<use xlink:href="#path29_fill" transform="translate(-1864.32 8929.06)" fill="url(#paint54_linear)"/>
</g>
<g id="Shape">
<use xlink:href="#path10_fill" transform="translate(-1864.32 8927.39)" fill="#FFE200"/>
</g>
</g>
</g>
<g id="Group 4">
<g id="Asset 11">
<g id="Shape">
<use xlink:href="#path30_fill" transform="translate(-1760.54 8926.31)" fill="#E5E4DF"/>
</g>
<g id="Shape">
<use xlink:href="#path31_fill" transform="translate(-1760.6 8892.15)" fill="#EFEEE8"/>
</g>
<g id="Shape">
<use xlink:href="#path32_fill" transform="translate(-1757.36 8918.13)" fill="#FF8600"/>
</g>
<g id="Shape">
<use xlink:href="#path33_fill" transform="translate(-1747.73 8913.15)" fill="#FFE200"/>
</g>
<g id="Shape">
<use xlink:href="#path34_fill" transform="translate(-1743.38 8886.84)" fill="#EFEEE8"/>
</g>
<g id="Shape">
<use xlink:href="#path35_fill" transform="translate(-1757.36 8926.72)" fill="#FFC400"/>
</g>
<g id="Shape">
<use xlink:href="#path36_fill" transform="translate(-1744.72 8890.83)" fill="#E5E4DF"/>
</g>
<g id="Shape">
<use xlink:href="#path37_fill" transform="translate(-1743.6 8895.32)" fill="#E5E4DF"/>
</g>
<g id="Shape">
<use xlink:href="#path36_fill" transform="translate(-1744.72 8890.83)" fill="#EFEEE8"/>
</g>
<g id="Shape">
<use xlink:href="#path38_fill" transform="translate(-1744.72 8886.08)" fill="#FFFFFF"/>
</g>
<g id="Shape">
<use xlink:href="#path39_fill" transform="translate(-1716.11 8878.1)" fill="#E5E4DF"/>
</g>
<g id="Shape">
<use xlink:href="#path40_fill" transform="translate(-1712.93 8921.39)" fill="#B21942"/>
</g>
<g id="Shape">
<use xlink:href="#path41_fill" transform="translate(-1712.93 8906.7)" fill="#FF3B5C"/>
</g>
<g id="Shape">
<use xlink:href="#path42_fill" transform="translate(-1712.93 8942.23)" fill="#D82B50"/>
</g>
<g id="Shape">
<use xlink:href="#path43_stroke" transform="translate(-1674.14 8954.41)" fill="#FFFFFF"/>
</g>
<g id="Shape">
<use xlink:href="#path44_stroke" transform="translate(-1674.14 8948.78)" fill="#FFFFFF"/>
</g>
<g id="Shape">
<use xlink:href="#path43_stroke" transform="translate(-1674.14 8943.16)" fill="#FFFFFF"/>
</g>
<g id="Shape">
<use xlink:href="#path43_stroke" transform="translate(-1674.14 8937.54)" fill="#FFFFFF"/>
</g>
<g id="Shape">
<use xlink:href="#path43_stroke" transform="translate(-1674.14 8931.91)" fill="#FFFFFF"/>
</g>
<g id="Shape">
<use xlink:href="#path43_stroke" transform="translate(-1674.14 8926.28)" fill="#FFFFFF"/>
</g>
<g id="Shape">
<use xlink:href="#path43_stroke" transform="translate(-1674.14 8920.66)" fill="#FFFFFF"/>
</g>
<g id="Shape">
<use xlink:href="#path45_fill" transform="translate(-1716.11 8878.11)" fill="#FFFFFF"/>
</g>
<g id="Shape">
<use xlink:href="#path46_stroke" transform="translate(-1660.58 8895.43)"/>
</g>
<g id="Shape">
<use xlink:href="#path47_stroke" transform="translate(-1668.76 8900.04)"/>
</g>
<g id="Shape">
<use xlink:href="#path48_stroke" transform="translate(-1648.77 8984.98)"/>
</g>
<g id="Shape">
<use xlink:href="#path48_stroke" transform="translate(-1649.63 8981.09)"/>
</g>
<g id="Shape">
<use xlink:href="#path49_stroke" transform="translate(-1650.51 8977.2)"/>
</g>
<g id="Shape">
<use xlink:href="#path50_stroke" transform="translate(-1651.38 8973.31)"/>
</g>
<g id="Shape">
<use xlink:href="#path48_stroke" transform="translate(-1652.24 8969.41)"/>
</g>
<g id="Shape">
<use xlink:href="#path51_stroke" transform="translate(-1653.12 8965.52)"/>
</g>
<g id="Shape">
<use xlink:href="#path48_stroke" transform="translate(-1653.98 8961.62)"/>
</g>
<g id="Shape">
<use xlink:href="#path48_stroke" transform="translate(-1654.85 8957.73)"/>
</g>
<g id="Shape">
<use xlink:href="#path50_stroke" transform="translate(-1655.72 8953.84)"/>
</g>
<g id="Shape">
<use xlink:href="#path49_stroke" transform="translate(-1656.59 8949.94)"/>
</g>
<g id="Shape">
<use xlink:href="#path48_stroke" transform="translate(-1657.46 8946.05)"/>
</g>
<g id="Shape">
<use xlink:href="#path48_stroke" transform="translate(-1658.33 8942.15)"/>
</g>
<g id="Shape">
<use xlink:href="#path51_stroke" transform="translate(-1659.2 8938.26)"/>
</g>
<g id="Shape">
<use xlink:href="#path50_stroke" transform="translate(-1660.07 8934.37)"/>
</g>
<g id="Shape">
<use xlink:href="#path50_stroke" transform="translate(-1660.94 8930.47)"/>
</g>
<g id="Shape">
<use xlink:href="#path49_stroke" transform="translate(-1661.81 8926.58)"/>
</g>
<g id="Shape">
<use xlink:href="#path48_stroke" transform="translate(-1662.68 8922.68)"/>
</g>
<g id="Shape">
<use xlink:href="#path48_stroke" transform="translate(-1663.55 8918.79)"/>
</g>
<g id="Shape">
<use xlink:href="#path48_stroke" transform="translate(-1664.41 8914.9)"/>
</g>
<g id="Shape">
<use xlink:href="#path49_stroke" transform="translate(-1665.29 8911)"/>
</g>
<g id="Shape">
<use xlink:href="#path50_stroke" transform="translate(-1666.15 8907.11)"/>
</g>
<g id="Shape">
<use xlink:href="#path48_stroke" transform="translate(-1667.02 8903.21)"/>
</g>
<g id="Shape">
<use xlink:href="#path51_stroke" transform="translate(-1667.89 8899.32)"/>
</g>
<g id="Shape">
<use xlink:href="#path52_fill" transform="translate(-1662.44 8913.3)"/>
</g>
<g id="Shape">
<use xlink:href="#path53_fill" transform="translate(-1664.37 8900.69)" fill="#FF8600"/>
</g>
<g id="Shape">
<use xlink:href="#path54_fill" transform="translate(-1658.95 8902.24)" fill="#FF8600"/>
</g>
<g id="Shape">
<use xlink:href="#path55_fill" transform="translate(-1665.61 8903.87)" fill="#FF8600"/>
</g>
<g id="Shape">
<use xlink:href="#path56_fill" transform="translate(-1653.82 8899.17)" fill="#4A71D3"/>
</g>
<g id="Shape">
<use xlink:href="#path57_fill" transform="translate(-1654.18 8898.36)"/>
</g>
</g>
</g>
<g id="Asset 15">
<g id="Shape">
<use xlink:href="#path58_fill" transform="translate(-1608.1 8878)" fill="#8C8C8C"/>
</g>
<g id="Shape">
<use xlink:href="#path59_fill" transform="translate(-1606.63 8935)" fill="#2ABC85"/>
</g>
<g id="Shape">
<use xlink:href="#path60_fill" transform="translate(-1608.82 8879.28)"/>
</g>
<g id="Shape">
<use xlink:href="#path61_fill" transform="translate(-1608.8 8879.26)" fill="#494949"/>
</g>
<g id="Shape">
<use xlink:href="#path62_fill" transform="translate(-1595.38 8888.94)" fill="#36F49A"/>
</g>
<g id="Shape">
<use xlink:href="#path62_fill" transform="translate(-1600.36 8886.14)" fill="#FFC400"/>
</g>
<g id="Shape">
<use xlink:href="#path62_fill" transform="translate(-1605.33 8883.34)" fill="#FF3B5C"/>
</g>
<g id="Shape">
<use xlink:href="#path63_fill" transform="translate(-1564.16 8930.68)" fill="#38FFA1"/>
</g>
<g id="Shape">
<use xlink:href="#path64_fill" transform="translate(-1592.24 8909.14)" fill="#38FFA1"/>
</g>
<g id="Shape">
<use xlink:href="#path65_fill" transform="translate(-1579.11 8937.56)" fill="#38FFA1"/>
</g>
<g id="Shape">
<use xlink:href="#path66_fill" transform="translate(-1617.27 8952.69)"/>
</g>
<g id="Shape">
<use xlink:href="#path67_fill" transform="translate(-1620.11 8942.98)" fill="#FF3B5C"/>
</g>
<g id="Shape">
<use xlink:href="#path68_fill" transform="translate(-1617.41 8942.19)" fill="#FF3B5C"/>
</g>
<g id="Shape">
<use xlink:href="#path69_fill" transform="translate(-1615.01 8943.09)" fill="#FF3B5C"/>
</g>
<g id="Shape">
<use xlink:href="#path70_fill" transform="translate(-1619.17 8938.55)" fill="#AF7E43"/>
</g>
<g id="Shape">
<use xlink:href="#path71_fill" transform="translate(-1620.08 8937.9)"/>
</g>
<g id="Shape">
<use xlink:href="#path72_fill" transform="translate(-1572.96 8979.1)"/>
</g>
<g id="Shape">
<use xlink:href="#path73_fill" transform="translate(-1572.41 8966.78)" fill="#FFC400"/>
</g>
<g id="Shape">
<use xlink:href="#path74_fill" transform="translate(-1575.43 8967.51)" fill="#FFC400"/>
</g>
<g id="Shape">
<use xlink:href="#path75_fill" transform="translate(-1569.34 8967.51)" fill="#FFC400"/>
</g>
<g id="Shape">
<use xlink:href="#path76_fill" transform="translate(-1571.88 8963.57)"/>
</g>
</g>
<g id="Asset 4">
<g id="Shape">
<use xlink:href="#path77_fill" transform="translate(-1759.28 8955.75)"/>
</g>
<g id="Shape">
<use xlink:href="#path78_fill" transform="translate(-1754.64 8944.91)" fill="#FF3B5C"/>
</g>
<g id="Shape">
<use xlink:href="#path79_fill" transform="translate(-1757.36 8944.35)" fill="#FF3B5C"/>
</g>
<g id="Shape">
<use xlink:href="#path80_fill" transform="translate(-1763.64 8944.49)" fill="#FF3B5C"/>
</g>
<g id="Shape">
<use xlink:href="#path81_fill" transform="translate(-1751.93 8940.35)" fill="#4A71D3"/>
</g>
<g id="Shape">
<use xlink:href="#path82_fill" transform="translate(-1750.7 8939.59)"/>
</g>
<g id="Shape">
<use xlink:href="#path83_fill" transform="translate(-1786.15 8943.66)" fill="#27E38C"/>
</g>
<g id="Shape">
<use xlink:href="#path84_fill" transform="translate(-1782.97 8924.77)"/>
</g>
<g id="Shape">
<use xlink:href="#path85_fill" transform="translate(-1778.33 8913.93)" fill="#36F49A"/>
</g>
<g id="Shape">
<use xlink:href="#path86_fill" transform="translate(-1781.05 8913.36)" fill="#36F49A"/>
</g>
<g id="Shape">
<use xlink:href="#path87_fill" transform="translate(-1787.3 8913.5)" fill="#36F49A"/>
</g>
<g id="Shape">
<use xlink:href="#path88_fill" transform="translate(-1775.61 8909.36)" fill="#FFC400"/>
</g>
<g id="Shape">
<use xlink:href="#path89_fill" transform="translate(-1774.38 8909.08)"/>
</g>
<g id="Shape">
<use xlink:href="#path90_fill" transform="translate(-1831.64 8933.08)" fill="#EFEEE8"/>
</g>
<g id="Shape">
<use xlink:href="#path91_fill" transform="translate(-1831.65 8917.33)" fill="#FFFFFF"/>
</g>
<g id="Shape">
<use xlink:href="#path92_fill" transform="translate(-1828.21 8920.19)" fill="#EFEEE8"/>
</g>
<g id="Shape">
<use xlink:href="#path93_fill" transform="translate(-1825.85 8921.95)" fill="#FFFFFF"/>
</g>
<g id="Shape">
<use xlink:href="#path94_fill" transform="translate(-1784.92 8944.19)" fill="#EFEEE8"/>
</g>
<g id="Shape">
<use xlink:href="#path95_fill" transform="translate(-1779.85 8946.25)" fill="#060807"/>
</g>
<g id="Shape">
<use xlink:href="#path96_fill" transform="translate(-1749.44 8963.49)" fill="#323031"/>
</g>
<g id="Shape">
<use xlink:href="#path97_fill" transform="translate(-1832.74 8948.19)"/>
</g>
<g id="Shape">
<use xlink:href="#path98_fill" transform="translate(-1833.95 8938.14)" fill="#668CFF"/>
</g>
<g id="Shape">
<use xlink:href="#path99_fill" transform="translate(-1833.41 8937.24)" fill="#668CFF"/>
</g>
<g id="Shape">
<use xlink:href="#path100_fill" transform="translate(-1831.57 8939.13)" fill="#668CFF"/>
</g>
<g id="Shape">
<use xlink:href="#path101_fill" transform="translate(-1835.6 8933.43)" fill="#AF7E43"/>
</g>
<g id="Shape">
<use xlink:href="#path102_fill" transform="translate(-1836.56 8932.76)"/>
</g>
<g id="Shape">
<use xlink:href="#path103_fill" transform="translate(-1810.58 8951.17)"/>
</g>
<g id="Shape">
<use xlink:href="#path104_fill" transform="translate(-1810.02 8938.34)" fill="#FFC400"/>
</g>
<g id="Shape">
<use xlink:href="#path105_fill" transform="translate(-1814.43 8939.07)" fill="#FFC400"/>
</g>
<g id="Shape">
<use xlink:href="#path106_fill" transform="translate(-1806.83 8939.06)" fill="#FFC400"/>
</g>
<g id="Shape">
<use xlink:href="#path107_fill" transform="translate(-1809.82 8934.96)" fill="#FF3B5C"/>
</g>
</g>
</g>
</g>
<defs>
<linearGradient id="paint9_linear" x1="0" y1="0" x2="1" y2="0" gradientUnits="userSpaceOnUse" gradientTransform="matrix(66.9619 0 0 37.7442 123142 407.457)">
<stop offset="0" stop-color="#668CFF"/>
<stop offset="1" stop-color="#92B1FF"/>
</linearGradient>
<linearGradient id="paint11_linear" x1="0" y1="0" x2="1" y2="0" gradientUnits="userSpaceOnUse" gradientTransform="matrix(66.9619 0 0 37.906 123142 356.865)">
<stop offset="0" stop-color="#668CFF"/>
<stop offset="1" stop-color="#92B1FF"/>
</linearGradient>
<linearGradient id="paint13_linear" x1="0" y1="0" x2="1" y2="0" gradientUnits="userSpaceOnUse" gradientTransform="matrix(67.0169 0 0 37.7131 123264 381.291)">
<stop offset="0" stop-color="#668CFF"/>
<stop offset="1" stop-color="#92B1FF"/>
</linearGradient>
<linearGradient id="paint15_linear" x1="0" y1="0" x2="1" y2="0" gradientUnits="userSpaceOnUse" gradientTransform="matrix(66.9619 0 0 37.7442 123223 381.291)">
<stop offset="0" stop-color="#668CFF"/>
<stop offset="1" stop-color="#92B1FF"/>
</linearGradient>
<linearGradient id="paint26_linear" x1="0" y1="0" x2="1" y2="0" gradientUnits="userSpaceOnUse" gradientTransform="matrix(5.50673 0 0 3.10396 1.06185e-12 1.55223)">
<stop offset="0" stop-color="#B21942"/>
<stop offset="1" stop-color="#D82B50"/>
</linearGradient>
<linearGradient id="paint28_linear" x1="0" y1="0" x2="1" y2="0" gradientUnits="userSpaceOnUse" gradientTransform="matrix(66.9619 0 0 37.7442 123142 64.9039)">
<stop offset="0" stop-color="#B21942"/>
<stop offset="1" stop-color="#D82B50"/>
</linearGradient>
<linearGradient id="paint30_linear" x1="0" y1="0" x2="1" y2="0" gradientUnits="userSpaceOnUse" gradientTransform="matrix(67.0169 0 0 37.7131 123264 90.853)">
<stop offset="0" stop-color="#B21942"/>
<stop offset="1" stop-color="#D82B50"/>
</linearGradient>
<linearGradient id="paint32_linear" x1="0" y1="0" x2="1" y2="0" gradientUnits="userSpaceOnUse" gradientTransform="matrix(66.9619 0 0 37.7442 123223 90.853)">
<stop offset="0" stop-color="#B21942"/>
<stop offset="1" stop-color="#D82B50"/>
</linearGradient>
<linearGradient id="paint37_linear" x1="0" y1="0" x2="1" y2="0" gradientUnits="userSpaceOnUse" gradientTransform="matrix(5.50673 0 0 3.35017 0.0181143 1.68528)">
<stop offset="0" stop-color="#2DD78C"/>
<stop offset="1" stop-color="#31E994"/>
</linearGradient>
<linearGradient id="paint39_linear" x1="0" y1="0" x2="1" y2="0" gradientUnits="userSpaceOnUse" gradientTransform="matrix(66.9068 0 0 40.9462 123223 154.719)">
<stop offset="0" stop-color="#2DD78C"/>
<stop offset="1" stop-color="#31E994"/>
</linearGradient>
<linearGradient id="paint44_linear" x1="0" y1="0" x2="1" y2="0" gradientUnits="userSpaceOnUse" gradientTransform="matrix(5.50673 0 0 3.10396 9.94281e-13 1.55223)">
<stop offset="0" stop-color="#668CFF"/>
<stop offset="1" stop-color="#92B1FF"/>
</linearGradient>
<linearGradient id="paint46_linear" x1="0" y1="0" x2="1" y2="0" gradientUnits="userSpaceOnUse" gradientTransform="matrix(66.9619 0 0 37.7442 123223 26.632)">
<stop offset="0" stop-color="#668CFF"/>
<stop offset="1" stop-color="#92B1FF"/>
</linearGradient>
<linearGradient id="paint48_linear" x1="0" y1="0" x2="1" y2="0" gradientUnits="userSpaceOnUse" gradientTransform="matrix(66.9619 0 0 37.7442 123142 52.5811)">
<stop offset="0" stop-color="#668CFF"/>
<stop offset="1" stop-color="#92B1FF"/>
</linearGradient>
<linearGradient id="paint50_linear" x1="0" y1="0" x2="1" y2="0" gradientUnits="userSpaceOnUse" gradientTransform="matrix(67.0169 0 0 37.7131 123507 52.5811)">
<stop offset="0" stop-color="#668CFF"/>
<stop offset="1" stop-color="#92B1FF"/>
</linearGradient>
<linearGradient id="paint52_linear" x1="0" y1="0" x2="1" y2="0" gradientUnits="userSpaceOnUse" gradientTransform="matrix(5.50673 0 0 3.11589 0.0181143 1.5611)">
<stop offset="0" stop-color="#FF8600"/>
<stop offset="1" stop-color="#FFC400"/>
</linearGradient>
<linearGradient id="paint54_linear" x1="0" y1="0" x2="1" y2="0" gradientUnits="userSpaceOnUse" gradientTransform="matrix(66.9068 0 0 36.4199 123385 138.875)">
<stop offset="0" stop-color="#FF8600"/>
<stop offset="1" stop-color="#FFC400"/>
</linearGradient>
<path id="path0_fill" d="M 9.17487 0.217312L 10.9501 25.6473L 8.28727 26.9822L 9.52357 25.155L 5.76939 6.84756L 2.97527 20.8797L 0 21.7712L 1.45367 20.4362L 2.03333 0L 9.17487 0.217312Z"/>
<path id="path1_fill" d="M 3.48247 2.09019C 3.48247 2.09019 4.26138 -0.442163 5.29389 0.0678562C 6.32641 0.577875 6.28112 4.11253 4.63272 8.11728C 3.70135 10.435 2.44714 12.6155 0.905713 14.5967L 0 13.7807C 0.824238 12.3274 1.50219 10.799 2.02427 9.21715C 3.11112 5.75789 3.0749 3.70451 3.48247 2.09019Z"/>
<path id="path2_fill" d="M 7.05721 12.1074C 7.05721 12.1074 3.13547 14.2495 0.540602 13.2117C -0.174911 12.9278 -0.00735431 12.0142 0.0877455 11.247C 0.205488 10.156 0.413802 9.37102 1.15649 7.01606C 2.65544 2.28841 6.62699 -0.700747 7.66403 0.141893C 8.70108 0.984533 8.04896 0.585388 7.52365 3.86725C 7.15933 6.59879 7.00342 9.35313 7.05721 12.1074Z"/>
<path id="path3_fill" d="M 11.4573 0.38645C 11.4573 0.38645 12.2181 -0.50054 12.8883 0.41306C 13.5585 1.32666 11.8648 3.86345 8.48653 6.63529C 5.10822 9.40713 0 10.436 0 10.436L 0 9.518C 0 9.518 3.99419 7.87264 5.66523 6.41354C 8.43672 4.06302 10.3297 1.62823 11.4573 0.38645Z"/>
<path id="path4_fill" d="M 0.820466 1.04993C 2.66359 -1.5046 5.53923 1.11645 3.5376 3.44924C 2.82662 4.27857 1.89826 4.93938 1.05595 4.68659C 0.100424 4.39831 -0.633204 3.05009 0.820466 1.04993Z"/>
<path id="path5_fill" d="M 0.14058 0.173391C -0.688148 0.705585 2.44562 1.34422 1.79351 2.21347C 0.851564 3.45969 2.83055 2.21347 1.94748 3.79674C 1.59425 4.43094 0.321722 5.17601 1.66218 4.68373C 3.00263 4.19145 4.02609 2.84323 3.33322 1.45066C 2.69922 0.182261 0.860621 -0.287843 0.14058 0.173391Z"/>
<path id="path6_fill" d="M 13.2913 15.03L 0 7.5128L 13.2913 0L 26.5827 7.5128L 13.2913 15.03Z"/>
<path id="path7_fill" d="M 13.2913 9.23356L 0 16.7464L 0 7.51723L 13.2913 0L 13.2913 9.23356Z"/>
<path id="path8_fill" d="M 0 9.23356L 13.2913 16.7464L 13.2913 7.51723L 0 0L 0 9.23356Z"/>
<path id="path9_fill" d="M 5.50673 1.5478C 5.46283 2.0309 5.15396 2.45233 4.70065 2.64766C 3.47678 3.25606 2.02995 3.25606 0.806085 2.64766C 0.35277 2.45233 0.0439054 2.0309 0 1.5478L 0 0L 5.50673 0L 5.50673 1.5478Z"/>
<path id="path10_fill" d="M 0.804952 0.456299C -0.268317 1.06389 -0.268317 2.04845 0.804952 2.67377C 2.02882 3.28217 3.47565 3.28217 4.69952 2.67377C 5.77279 2.06618 5.77279 1.08163 4.69952 0.456299C 3.47565 -0.1521 2.02882 -0.1521 0.804952 0.456299Z"/>
<path id="path11_fill" d="M 5.50673 1.53893C 5.47084 2.03023 5.16071 2.46192 4.70065 2.66097C 3.47678 3.26937 2.02995 3.26937 0.806085 2.66097C 0.35277 2.46564 0.0439054 2.04421 0 1.5611L 0 0L 5.50673 0L 5.50673 1.53893Z"/>
<path id="path12_fill" d="M 5.51579 1.5478C 5.47189 2.0309 5.16302 2.45233 4.70971 2.64766C 3.48584 3.25606 2.03901 3.25606 0.815142 2.64766C 0.358303 2.45484 0.0456046 2.03292 0 1.5478L 0 0L 5.51579 0L 5.51579 1.5478Z"/>
<path id="path13_fill" d="M 7.73932 1.75624L 9.46923 26.1307L 10.9818 26.4633L 8.31444 27.7982L 4.33384 8.38205L 1.70274 21.5716L 2.97527 21.7933L 0 22.6848L 0.679285 0L 7.73932 1.75624Z"/>
<path id="path14_fill" d="M 2.36999 0.376451C 2.36999 0.376451 1.32842 -0.43071 0.467996 0.318796C -0.392432 1.0683 -0.238461 3.14829 2.40169 6.60312C 3.97394 8.66933 5.91843 10.4369 8.13938 11.8186L 8.33411 10.9316C 7.15046 9.73468 6.08877 8.42758 5.16412 7.02887C 3.24853 3.95102 3.18061 1.83555 2.36999 0.376451Z"/>
<path id="path15_fill" d="M 1.36585 11.8505C 1.36585 11.8505 5.28758 15.323 7.88245 14.2852C 8.59796 14.0014 8.43041 13.0878 8.33531 12.3206C 8.21756 11.2296 8.00925 10.4446 7.26657 8.08963C 5.76761 3.36198 1.51982 -0.718174 0.473718 0.106726C -0.57238 0.931626 0.365033 1.64565 0.890346 4.92308C 1.27192 7.21231 1.43113 9.53181 1.36585 11.8505Z"/>
<path id="path16_fill" d="M 1.74727 0.201251C 1.74727 0.201251 1.07704 -0.370857 0.252844 0.414129C -0.571354 1.19911 0.651358 3.9887 3.45454 7.31934C 6.25772 10.65 11.1214 12.5348 11.1214 12.5348L 11.2754 11.6478C 11.2754 11.6478 7.65252 9.33281 6.25772 7.62535C 3.96174 4.78255 2.63034 1.62043 1.74727 0.201251Z"/>
<path id="path17_fill" d="M 3.39721 1.04993C 1.55409 -1.5046 -1.32155 1.11645 0.680076 3.44924C 1.39106 4.27857 2.31942 4.93938 3.16173 4.68659C 4.10367 4.39831 4.8373 3.04566 3.39721 1.04993Z"/>
<path id="path18_fill" d="M 3.33441 0.128787C 4.16314 0.66098 2.8408 1.74311 3.49291 2.61236C 4.43485 3.85858 2.45587 2.61236 3.33894 4.19563C 3.69217 4.82983 3.60613 6.0184 2.26567 5.52612C 0.925217 5.03384 -0.451467 3.87632 0.141775 1.84955C 0.553875 0.492452 2.6189 -0.332448 3.33441 0.128787Z"/>
<path id="path19_fill" d="M 13.2913 15.0345L 0 7.51723L 13.2913 0L 26.5827 7.51723L 13.2913 15.0345Z"/>
<path id="path20_fill" d="M 13.2913 9.22912L 0 16.7464L 0 7.51723L 13.2913 0L 13.2913 9.22912Z"/>
<path id="path21_fill" d="M 0 9.22912L 13.2913 16.7464L 13.2913 7.51723L 0 0L 0 9.22912Z"/>
<path id="path22_fill" d="M 5.52485 1.81389C 5.47779 2.29371 5.16942 2.71107 4.71876 2.90489C 3.4949 3.51329 2.04806 3.51329 0.824199 2.90489C 0.366493 2.7161 0.0504555 2.29776 0 1.81389L 0 0L 5.52485 0L 5.52485 1.81389Z"/>
<path id="path23_fill" d="M 5.50673 1.81389C 5.46283 2.297 5.15396 2.71843 4.70065 2.91376C 3.47678 3.52216 2.02995 3.52216 0.806085 2.91376C 0.35277 2.71843 0.0439054 2.297 0 1.81389L 0 0L 5.50673 0L 5.50673 1.81389Z"/>
<path id="path24_fill" d="M 13.2913 15.03L 0 7.51723L 13.2913 0L 26.5872 7.51723L 13.2913 15.03Z"/>
<path id="path25_fill" d="M 13.2959 9.22912L 0 16.7419L 0 7.5128L 13.2959 0L 13.2959 9.22912Z"/>
<path id="path26_fill" d="M 0 9.22912L 13.2913 16.7419L 13.2913 7.5128L 0 0L 0 9.22912Z"/>
<path id="path27_fill" d="M 5.52485 1.56997C 5.48094 2.05308 5.17208 2.47451 4.71876 2.66984C 3.4949 3.27824 2.04806 3.27824 0.824199 2.66984C 0.363834 2.47955 0.0472888 2.05713 0 1.56997L 0 0L 5.52485 0L 5.52485 1.56997Z"/>
<path id="path28_fill" d="M 0.804952 2.67377C 2.02882 3.28217 3.47565 3.28217 4.69952 2.67377C 5.77279 2.06618 5.77279 1.08163 4.69952 0.456299C 3.47565 -0.1521 2.02882 -0.1521 0.804952 0.456299C -0.268317 1.06389 -0.268317 2.04845 0.804952 2.67377Z"/>
<path id="path29_fill" d="M 5.50673 1.44136C 5.46283 1.92446 5.15396 2.3459 4.70065 2.54122C 3.47678 3.14962 2.02995 3.14962 0.806085 2.54122C 0.35277 2.3459 0.0439054 1.92446 0 1.44136L 0 0L 5.50673 0L 5.50673 1.44136Z"/>
<path id="path30_fill" d="M 7.10087 3.9951C -2.36696 9.33426 -2.36696 17.9765 7.10087 23.3244C 14.7074 27.6194 26.1439 28.4582 35.2538 25.8411C 37.3906 25.248 39.4481 24.4106 41.3837 23.3463C 50.8516 18.0071 50.8516 9.36484 41.3837 4.01694C 31.9159 -1.33096 16.5687 -1.3397 7.10087 3.9951Z"/>
<path id="path31_fill" d="M 31.5937 13.7368L 47.6121 44.0677L 48.6054 47.7903C 48.6054 51.2857 46.234 54.8029 41.4866 57.4768C 31.9964 62.8291 16.609 62.8291 7.11877 57.4768C 2.37143 54.7985 0 51.2944 0 47.7859L 1.34232 43.443L 17.0027 13.7324L 17.0027 0L 31.5937 0L 31.5937 13.7368Z"/>
<path id="path32_fill" d="M 42.122 20.4697L 41.2719 17.1098L 32.1799 0L 9.93764 0L 1.02016 16.8127L 0 20.4697C 0 23.5281 2.05822 26.5473 6.1702 28.8673C 14.3941 33.503 27.7323 33.503 35.9563 28.8673C 40.0683 26.5473 42.122 23.5107 42.122 20.4697Z"/>
<path id="path33_fill" d="M 3.3558 1.88913C -1.1186 4.40142 -1.1186 8.47789 3.3558 10.9945C 7.8302 13.5112 15.0474 13.5068 19.5039 10.9945C 23.9604 8.48225 23.9783 4.40579 19.5039 1.88913C 15.0295 -0.627526 7.8123 -0.631895 3.3558 1.88913Z"/>
<path id="path34_fill" d="M 2.07388 1.16985C -0.691295 2.72966 -0.691295 5.25505 2.07388 6.81486C 4.83906 8.37466 9.32241 8.37466 12.0876 6.81486C 14.8528 5.25505 14.8528 2.72966 12.0876 1.16985C 9.32241 -0.389951 4.83459 -0.389951 2.07388 1.16985Z"/>
<path id="path35_fill" d="M 6.15789 3.47843C -2.05263 8.11415 -2.05263 15.6335 6.15789 20.2693C 12.7755 24.0006 22.7132 24.7302 30.615 22.4539C 32.4733 21.9334 34.2621 21.2001 35.944 20.2693C 44.1679 15.6335 44.1679 8.11415 35.944 3.47843C 27.72 -1.15729 14.3953 -1.16166 6.15789 3.47843Z"/>
<path id="path36_fill" d="M 16.8372 2.11469C 16.8372 3.32933 16.0139 4.54397 14.3718 5.47024C 13.6996 5.84247 12.9847 6.13578 12.242 6.34408C 9.07856 7.25287 5.10977 6.96013 2.46539 5.47024C 0.82329 4.54397 0 3.32933 0 2.11469L 0 0L 16.8372 0L 16.8372 2.11469Z"/>
<path id="path37_fill" d="M 1.34232 2.72638C 3.98669 4.21628 7.95996 4.50901 11.1234 3.60022C 11.8661 3.39196 12.581 3.09865 13.2532 2.72638C 13.7423 2.45849 14.1935 2.12949 14.5955 1.74768L 14.5955 2.4836e-14C 14.1935 0.381809 13.7423 0.710815 13.2532 0.978701C 12.581 1.35097 11.8661 1.64428 11.1234 1.85254C 7.95996 2.76133 3.99117 2.4686 1.34232 0.978701C 0.853198 0.710857 0.40195 0.381847 0 0L 0 1.74768C 0.40195 2.12953 0.853198 2.45854 1.34232 2.72638Z"/>
<path id="path38_fill" fill-rule="evenodd" d="M 2.46661 1.38977C 5.75519 -0.463257 11.0887 -0.463257 14.3775 1.38977C 17.6795 3.24622 17.6795 6.25256 14.3775 8.1051C 13.7051 8.47717 12.9903 8.77063 12.2476 8.97864C 9.08429 9.88782 5.1109 9.59485 2.46661 8.1051C -0.822205 6.24817 -0.822205 3.24231 2.46661 1.38977ZM 11.3572 7.69836C 11.9266 7.53918 12.4749 7.31506 12.9903 7.02991C 15.514 5.60999 15.5093 3.29895 12.9903 1.87854C 10.4713 0.458618 6.38165 0.454224 3.85797 1.87854C 1.33453 3.30334 1.33453 5.60999 3.85797 7.02991C 5.88507 8.17053 8.93195 8.39758 11.3572 7.69836Z"/>
<path id="path39_fill" d="M 59.1337 16.6779C 59.1337 12.6495 56.5833 8.61672 51.469 5.45779C 40.019 -1.62469 20.542 -1.81256 8.65796 4.88542C 2.88151 8.14047 0 12.4092 0 16.6823L 0 80.6998C 0 84.9641 2.88599 89.2328 8.66244 92.4966C 20.2109 99.0067 38.9318 99.0067 50.4802 92.4966C 56.2522 89.2416 59.1426 84.9772 59.1426 80.6998L 59.1426 16.6779L 59.1337 16.6779Z"/>
<path id="path40_fill" d="M 52.7979 35.7226L 52.7979 0L 0 0L 0 35.7226C 0 39.5325 2.57725 43.3425 7.73624 46.248C 18.0274 52.0634 34.7706 52.0634 45.0841 46.248C 50.2207 43.3425 52.7979 39.5325 52.7979 35.7226Z"/>
<path id="path41_fill" d="M 7.71834 4.36155C -2.57278 10.177 -2.57278 19.6013 7.71834 25.4167C 18.0095 31.2321 34.7527 31.2321 45.0662 25.4167C 55.3797 19.6013 55.3573 10.177 45.0662 4.36155C 34.775 -1.45385 18.0318 -1.45385 7.71834 4.36155Z"/>
<path id="path42_fill" d="M 7.71834 4.36483C -2.57278 10.1802 -2.57278 19.6046 7.71834 25.42C 16.0184 30.0994 28.4661 31.0126 38.3859 28.1595C 40.7155 27.5067 42.9578 26.5871 45.0662 25.42C 55.3573 19.6046 55.3573 10.1802 45.0662 4.36483C 34.775 -1.45057 18.0318 -1.45931 7.71834 4.36483Z"/>
<path id="path43_stroke" d="M -0.359163 1.55502C -1.06641 1.75338 -1.47895 2.48752 -1.28059 3.19477C -1.08223 3.90202 -0.348086 4.31456 0.359163 4.1162L -0.359163 1.55502ZM 7.55309 1.16335C 8.19559 0.807337 8.42783 -0.00211416 8.07182 -0.644613C 7.71581 -1.28711 6.90636 -1.51936 6.26386 -1.16335L 7.55309 1.16335ZM 0.359163 4.1162C 2.86747 3.4127 5.28226 2.42162 7.55309 1.16335L 6.26386 -1.16335C 4.17431 -0.00551932 1.95118 0.907047 -0.359163 1.55502L 0.359163 4.1162Z"/>
<path id="path44_stroke" d="M -0.359819 1.55958C -1.06697 1.7583 -1.47912 2.49265 -1.2804 3.1998C -1.08168 3.90695 -0.347328 4.3191 0.359819 4.12038L -0.359819 1.55958ZM 7.55375 1.16298C 8.19605 0.806602 8.42783 -0.00298119 8.07145 -0.645276C 7.71508 -1.28757 6.90549 -1.51935 6.2632 -1.16298L 7.55375 1.16298ZM 0.359819 4.12038C 2.86834 3.41544 5.28314 2.42282 7.55375 1.16298L 6.2632 -1.16298C 4.17384 -0.00370418 1.95072 0.910271 -0.359819 1.55958L 0.359819 4.12038Z"/>
<path id="path45_fill" fill-rule="evenodd" d="M 3.97331 28.0463C 3.97331 26.5565 3.72258 24.9096 2.63103 23.5507C -2.30428 17.4076 -0.295244 9.94034 8.64909 4.88516C 20.5329 -1.81259 40.0102 -1.6246 51.4601 5.45792C 61.7199 11.8061 61.6706 21.6586 51.3483 27.9721C 42.4262 33.4247 28.7123 34.7357 17.4814 31.9047C 14.8229 31.3222 12.1022 31.0551 9.37834 31.1093L 7.42302 31.1093C 5.51701 31.1093 3.97331 30.2397 3.97331 29.1649L 3.97331 28.0463ZM 48.3996 5.73331C 43.3659 2.89737 36.6767 1.33341 29.5624 1.33341C 22.4435 1.33341 15.7543 2.89737 10.7475 5.72012C 2.94865 10.1156 0.765059 16.8573 5.3156 22.537C 6.33562 23.8041 6.83244 25.4032 6.83244 27.4174L 6.83244 28.5141C 6.85148 28.7231 6.98503 28.9057 7.18132 28.9906C 7.43986 29.1249 7.72966 29.1928 8.02263 29.1869L 9.92863 29.1869C 12.8791 29.1259 15.8261 29.4193 18.703 30.0609C 29.1642 32.7001 41.4196 31.2753 49.196 26.5175C 58.4626 20.8461 58.5072 11.9286 49.2944 6.24893L 48.9599 6.05508C 48.7717 5.94571 48.5856 5.8378 48.3996 5.73331Z"/>
<path id="path46_stroke" d="M 1.2346 -0.275645C 1.08237 -0.957497 0.406208 -1.38684 -0.275645 -1.2346C -0.957497 -1.08237 -1.38684 -0.406208 -1.2346 0.275645L 1.2346 -0.275645ZM 19.6653 93.8857C 19.8176 94.5676 20.4937 94.9969 21.1756 94.8447C 21.8574 94.6925 22.2868 94.0163 22.1345 93.3345L 19.6653 93.8857ZM -1.2346 0.275645L 19.6653 93.8857L 22.1345 93.3345L 1.2346 -0.275645L -1.2346 0.275645Z"/>
<path id="path47_stroke" d="M 1.23505 -0.273626C 1.08393 -0.955726 0.408475 -1.38617 -0.273626 -1.23505C -0.955726 -1.08393 -1.38617 -0.408475 -1.23505 0.273626L 1.23505 -0.273626ZM 19.5217 93.9624C 19.6728 94.6445 20.3483 95.0749 21.0304 94.9238C 21.7125 94.7727 22.1429 94.0972 21.9918 93.4151L 19.5217 93.9624ZM -1.23505 0.273626L 19.5217 93.9624L 21.9918 93.4151L 1.23505 -0.273626L -1.23505 0.273626Z"/>
<path id="path48_stroke" d="M 8.80072 1.10179C 9.40922 0.758535 9.62425 -0.013016 9.28099 -0.621518C 8.93774 -1.23002 8.16619 -1.44504 7.55769 -1.10179L 8.80072 1.10179ZM -0.621518 3.51208C -1.23002 3.85534 -1.44504 4.62689 -1.10179 5.23539C -0.758535 5.84389 0.013016 6.05892 0.621518 5.71566L -0.621518 3.51208ZM 7.55769 -1.10179L -0.621518 3.51208L 0.621518 5.71566L 8.80072 1.10179L 7.55769 -1.10179Z"/>
<path id="path49_stroke" d="M 8.80449 1.10219C 9.41321 0.759321 9.62873 -0.0120922 9.28587 -0.620813C 8.943 -1.22953 8.17159 -1.44505 7.56287 -1.10219L 8.80449 1.10219ZM -0.620813 3.50732C -1.22953 3.85018 -1.44505 4.6216 -1.10219 5.23032C -0.759321 5.83904 0.0120922 6.05456 0.620813 5.71169L -0.620813 3.50732ZM 7.56287 -1.10219L -0.620813 3.50732L 0.620813 5.71169L 8.80449 1.10219L 7.56287 -1.10219Z"/>
<path id="path50_stroke" d="M 8.80027 1.10204C 9.40892 0.759034 9.62425 -0.0124302 9.28125 -0.621071C 8.93824 -1.22971 8.16677 -1.44505 7.55813 -1.10204L 8.80027 1.10204ZM -0.621071 3.50746C -1.22971 3.85047 -1.44505 4.62194 -1.10204 5.23058C -0.759034 5.83922 0.0124302 6.05455 0.621071 5.71155L -0.621071 3.50746ZM 7.55813 -1.10204L -0.621071 3.50746L 0.621071 5.71155L 8.80027 1.10204L 7.55813 -1.10204Z"/>
<path id="path51_stroke" d="M 8.80494 1.10194C 9.41352 0.758823 9.62873 -0.0126778 9.28561 -0.62126C 8.9425 -1.22984 8.171 -1.44505 7.56242 -1.10194L 8.80494 1.10194ZM -0.62126 3.51194C -1.22984 3.85505 -1.44505 4.62655 -1.10194 5.23513C -0.758823 5.84372 0.0126778 6.05892 0.62126 5.71581L -0.62126 3.51194ZM 7.56242 -1.10194L -0.62126 3.51194L 0.62126 5.71581L 8.80494 1.10194L 7.56242 -1.10194Z"/>
<path id="path52_fill" d="M 3.48556 1.7302L 0 10.2064L 3.38265 19.574L 2.14324 20.4522L 5.09187 20.6401L 3.21262 10.3943L 6.85031 7.38395L 9.44993 21.2518L 8.1971 21.4702L 11.1368 22.3485L 10.4611 0L 3.48556 1.7302Z"/>
<path id="path53_fill" d="M 12.761 2.11906C 12.761 2.11906 13.8617 2.81813 13.4187 3.84053C 12.9758 4.86292 10.9399 5.37848 6.80109 4.05899C 4.32872 3.27481 2.02386 2.05619 0 0.463135L 0.796443 0C 2.31449 0.697534 3.89843 1.2492 5.52588 1.64719C 9.06514 2.44238 11.1099 1.83506 12.761 2.11906Z"/>
<path id="path54_fill" d="M 6.9728 11.6748C 6.9728 11.6748 3.09797 15.0959 0.534136 14.0735C -0.172819 13.7938 -0.00726635 12.8938 0.0866961 12.1379C 0.20303 11.0631 0.408853 10.2897 1.14265 7.9697C 2.62368 3.31214 6.82067 -0.707528 7.85426 0.105144C 8.88784 0.917815 7.96164 1.62126 7.44261 4.85009C 7.0656 7.10539 6.90829 9.3905 6.9728 11.6748Z"/>
<path id="path55_fill" d="M 12.2062 0.0250547C 12.2062 0.0250547 13.0474 -0.21962 13.4545 0.820249C 13.8617 1.86012 13.0071 4.00976 9.07856 5.86231C 5.15003 7.71485 0 7.44396 0 7.44396L 0.246092 6.57012C 0.246092 6.57012 4.48335 5.95843 6.44761 4.98847C 9.6826 3.40245 10.8146 0.942587 12.2062 0.0250547Z"/>
<path id="path56_fill" d="M 3.77271 2.81626C 5.27164 0.102984 1.63843 -1.23399 0.407966 1.5055C -0.0394745 2.4842 -0.213976 3.57213 0.381119 4.19255C 1.05675 4.896 2.60042 4.93969 3.77271 2.81626Z"/>
<path id="path57_fill" d="M 5.13747 2.02467C 5.02113 2.97715 3.01213 1.43046 2.51547 2.37421C 1.79957 3.73303 2.06803 1.47415 1.01655 2.93783C 0.600426 3.51894 0.193256 4.63308 0.0411259 3.26552C -0.111004 1.89796 0.0679724 0.38622 2.16647 0.0279453C 3.58485 -0.21673 5.24038 1.20326 5.13747 2.02467Z"/>
<path id="path58_fill" d="M 70.6634 99.6691L 73.6155 102.633L 75.8115 101.389C 76.3764 101.103 76.7332 100.39 76.7332 99.3665L 76.7332 44.5482C 76.7332 42.7287 75.5991 40.6149 74.1847 39.8274L 4.02674 0.294871C 3.56356 -0.022889 2.96638 -0.0885024 2.44238 0.120792C 2.29371 0.191253 0 1.48856 0 1.48856L 0.203886 2.53717L 2.44238 3.51948"/>
<path id="path59_fill" d="M 2.54857 4.72086C 1.1511 3.93336 0 1.81954 0 0L 2.54857 4.72086Z"/>
<path id="path60_fill" d="M 2.54857 61.6669L 72.7192 101.199C 74.1167 101.987 75.2678 101.15 75.2678 99.3301L 75.2678 44.4952C 75.2678 42.6757 74.1337 40.5619 72.7192 39.7744L 2.54857 0.241864C 1.19358 -0.417149 0 0.291601 0 2.11114L 0 56.946C 0.0169905 58.7655 1.1511 60.8959 2.54857 61.6669Z"/>
<path id="path61_fill" d="M 0 1.89593C 0 0.200732 1.21907 -0.48315 2.72272 0.362376L 72.5154 39.6835C 74.123 40.7055 75.1345 42.4146 75.2381 44.2842L 75.2381 50.2194L 0 7.83534L 0 1.89593Z"/>
<path id="path62_fill" d="M 3.31314 3.02414C 3.31314 4.05618 2.56981 4.4748 1.65657 3.9567C 0.678423 3.33365 0.0631517 2.29301 0 1.15486C 0 0.122823 0.743333 -0.295796 1.65657 0.222296C 2.63472 0.845349 3.24999 1.88599 3.31314 3.02414Z"/>
<path id="path63_fill" d="M 12.2204 25.9001C 12.6409 26.1968 13.1922 26.2506 13.6646 26.041C 14.4631 25.5934 14.4631 24.1344 13.6646 22.7874L 5.77251 9.45375L 13.6646 5.01059C 14.4631 4.56296 14.4631 3.10401 13.6646 1.75697C 12.866 0.409931 11.5748 -0.315398 10.7762 0.132234L 0 6.19598L 10.7762 24.408C 11.1186 25.0179 11.6159 25.5317 12.2204 25.9001Z"/>
<path id="path64_fill" d="M 2.05585 25.9001C 2.47634 26.1968 3.02766 26.2506 3.50004 26.041L 14.2762 19.9689L 3.50004 1.75697C 2.70149 0.409931 1.41021 -0.315398 0.611657 0.132234C -0.186895 0.579865 -0.186895 2.03881 0.611657 3.38585L 8.50373 16.7195L 0.598914 21.1626C -0.199638 21.6103 -0.199638 23.0692 0.598914 24.4162C 0.946038 25.0246 1.44777 25.5356 2.05585 25.9001Z"/>
<path id="path65_fill" d="M 2.0431 4.86816L 14.0596 11.6365C 15.1852 12.2707 16.1027 11.7567 16.1027 10.4884C 16.0241 9.08682 15.2652 7.80584 14.0596 7.04L 2.0431 0.271647C 0.917486 -0.362498 0 0.151449 0 1.41974C 0.0785818 2.82134 0.837532 4.10232 2.0431 4.86816Z"/>
<path id="path66_fill" d="M 7.25918 1.64132L 8.88177 24.4208L 10.3005 24.7358L 7.80288 25.9792L 4.06922 7.83355L 1.5971 20.16L 2.79069 20.3672L 0 21.2003L 0.637143 0L 7.25918 1.64132Z"/>
<path id="path67_fill" d="M 3.06718 0.196373C 3.06718 0.196373 3.13939 1.92473 4.14607 2.29775C 5.15276 2.67078 1.78864 4.33697 2.31959 4.83433C 2.85055 5.3317 4.31598 8.97907 4.31598 8.97907L 3.46645 9.20703C 3.46645 9.20703 1.48281 6.5544 0.0216329 4.85091C -0.339415 4.40328 3.95068 -1.09679 3.06718 0.196373Z"/>
<path id="path68_fill" d="M 0.768407 11.075C 0.768407 11.075 4.44685 14.3203 6.88073 13.3505C 7.55186 13.0852 7.39469 12.2314 7.30549 11.5143C 7.19506 10.4947 6.99966 9.76112 6.30306 7.56027C 4.89709 3.14198 1.76235 -0.671179 0.78115 0.0997419C -0.20005 0.870663 -0.149078 1.55869 0.343646 4.60922C 0.693907 6.74658 0.836128 8.91149 0.768407 11.075Z"/>
<path id="path69_fill" d="M 0 0C 0 0 1.01518 0.766776 0.628648 1.75322C 0.242114 2.73967 1.44844 4.12401 4.99095 6.19638L 3.2919 10.7556L 3.9163 11.1328C 3.9163 11.1328 8.85204 6.71447 6.71549 5.01099C 4.06072 2.88059 1.3295 0.870395 0 0Z"/>
<path id="path70_fill" d="M 3.18646 0.981226C 1.45768 -1.40614 -1.23956 1.0434 0.637885 3.22353C 1.30476 3.99859 2.17552 4.61616 2.96558 4.37991C 3.84909 4.1105 4.54145 2.86708 3.18646 0.981226Z"/>
<path id="path71_fill" d="M 3.12755 0.120359C 3.90487 0.617728 2.66456 1.62904 3.27622 2.44141C 4.15972 3.60608 2.30351 2.44141 3.1318 3.92108C 3.46311 4.51378 3.38241 5.62457 2.12511 5.1645C 0.867818 4.70444 -0.423458 3.62266 0.13298 1.72852C 0.523761 0.460228 2.45643 -0.310693 3.12755 0.120359Z"/>
<path id="path72_fill" d="M 6.91512 0L 8.55895 23.8861L 8.18941 24.3462C 8.11475 24.449 7.99621 24.5131 7.86729 24.5204C 7.73837 24.5276 7.61306 24.4772 7.52678 24.3835L 7.10202 23.969L 3.86533 8.04908L 1.27853 23.9649L 0.985448 24.2591C 0.875021 24.371 0.71567 24.4233 0.558404 24.3994C 0.401138 24.3755 0.26568 24.2783 0.19539 24.1389L 0 23.7659L 0.5352 1.05276L 6.91512 0Z"/>
<path id="path73_fill" d="M 0 14.0135C 0 14.0135 3.54676 15.9449 5.88295 13.8601C 6.52434 13.2882 6.37143 12.4343 6.30771 11.6924C 6.15892 10.0864 5.82697 8.50161 5.31802 6.96743C 3.95029 2.80197 3.19421 0.024993 2.25124 0.000124626C 1.30827 -0.0247438 0.841029 3.67651 0.416267 7.20368C 0.237867 8.70407 0 11.6924 0 14.0135Z"/>
<path id="path74_fill" d="M 4.76344 0.0124342C 4.76344 0.0124342 -0.673511 7.37349 0.069822 8.84901C 0.813155 10.3245 3.02192 12.6539 3.02192 12.6539L 3.53588 11.6011L 2.00674 8.41796L 4.76344 2.90132L 4.76344 0"/>
<path id="path75_fill" d="M 0 0.0124342C 0 0.0124342 6.71124 7.37349 5.9679 8.84901C 5.22457 10.3245 3.01581 12.6539 3.01581 12.6539L 2.50185 11.6011L 4.03099 8.41796L 0 2.90132L 0 0"/>
<path id="path76_fill" d="M 3.41044 2.05319C 3.41044 -0.984898 -0.238267 -0.48753 0.012343 2.46767C 0.0972954 3.51629 0.437105 4.54004 1.22716 4.80944C 2.10217 5.09543 3.41044 4.43227 3.41044 2.05319Z"/>
<path id="path77_fill" d="M 8.99067 0.216343L 10.7302 25.0266L 8.12089 26.329L 9.33237 24.542L 5.65356 6.68068L 2.91553 20.3709L 0 21.2406L 1.42448 19.9382L 1.9925 0L 8.99067 0.216343Z"/>
<path id="path78_fill" d="M 3.38593 2.03925C 3.38593 2.03925 4.1492 -0.431387 5.16098 0.0662026C 6.17277 0.563792 6.12839 4.01231 4.51309 7.91947C 3.60042 10.1807 2.37138 12.3081 0.860904 14.241L 0 13.4449C 0.798527 12.026 1.45393 10.5349 1.957 8.99253C 3.02204 5.62623 2.98654 3.61423 3.38593 2.03925Z"/>
<path id="path79_fill" d="M 6.91552 11.8123C 6.91552 11.8123 3.07252 13.9022 0.529749 12.8897C -0.1714 12.6128 -0.00720666 11.7215 0.0859839 10.9729C 0.201363 9.9085 0.405495 9.14265 1.13327 6.84508C 2.60213 2.23264 6.49395 -0.68367 7.51017 0.138435C 8.52639 0.96054 7.88737 0.571122 7.3726 3.773C 7.0156 6.43798 6.86281 9.1252 6.91552 11.8123Z"/>
<path id="path80_fill" d="M 11.2272 0.377032C 11.2272 0.377032 11.9728 -0.488341 12.6295 0.402993C 13.2863 1.29433 11.6089 3.7693 8.31615 6.4909C 5.02342 9.2125 0 10.199 0 10.199L 0 9.30336C 0 9.30336 3.91401 7.69809 5.5515 6.27455C 8.28509 3.96833 10.1223 1.58856 11.2272 0.377032Z"/>
<path id="path81_fill" d="M 0.797571 1.02434C 2.60369 -1.46793 5.4216 1.08925 3.46016 3.36518C 2.76345 4.1743 1.85373 4.81901 1.02833 4.57238C 0.100861 4.29113 -0.618038 2.97576 0.797571 1.02434Z"/>
<path id="path82_fill" d="M 0 1.29807C 0.664045 1.64044 1.26414 2.08952 1.77506 2.62642C 0.443765 4.59515 2.79128 2.62642 1.92594 4.17111C 1.77744 4.49197 1.53507 4.76291 1.22923 4.94995C 3.33267 5.69417 5.86213 3.07209 3.34599 0.757215C 2.29426 -0.194696 0.612395 -0.484596 0 1.29807Z"/>
<path id="path83_fill" d="M 2.36674 0.0377159C 4.35924 -0.394971 11.6015 2.99297 15.0628 5.19102C 18.5242 7.38906 14.0866 9.22798 11.2154 8.36261C 9.1874 7.74819 1.26176 2.86316 1.26176 2.86316C -1.21001 1.22328 0.378669 0.505018 2.36674 0.0377159Z"/>
<path id="path84_fill" d="M 8.99067 0.212017L 10.7302 25.0223L 8.11646 26.3247L 9.33237 24.5377L 5.65356 6.68068L 2.9111 20.3709L 0 21.2363L 1.42448 19.9382L 1.9925 0L 8.99067 0.212017Z"/>
<path id="path85_fill" d="M 3.38593 2.03925C 3.38593 2.03925 4.1492 -0.431387 5.16098 0.0662026C 6.17277 0.563792 6.12839 4.01231 4.51309 7.91947C 3.60042 10.1807 2.37138 12.3081 0.860904 14.241L 0 13.4449C 0.807427 12.0284 1.47176 10.5387 1.98363 8.99686C 3.01316 5.62623 3.01316 3.61423 3.38593 2.03925Z"/>
<path id="path86_fill" d="M 6.91552 11.8167C 6.91552 11.8167 3.06365 13.8935 0.529749 12.8897C -0.1714 12.6128 -0.00720666 11.7215 0.0859839 10.9729C 0.201363 9.9085 0.405495 9.14265 1.13327 6.84508C 2.60213 2.23264 6.49395 -0.68367 7.51017 0.138435C 8.52639 0.96054 7.88737 0.571122 7.3726 3.773C 7.01538 6.43941 6.86259 9.12809 6.91552 11.8167Z"/>
<path id="path87_fill" d="M 11.2095 0.377032C 11.2095 0.377032 11.955 -0.488341 12.6118 0.402993C 13.2686 1.29433 11.5911 3.7693 8.2984 6.4909C 5.00567 9.2125 0 10.199 0 10.199L 0 9.30336C 0 9.30336 3.91401 7.69809 5.5515 6.27455C 8.24959 3.96833 10.1045 1.59288 11.2095 0.377032Z"/>
<path id="path88_fill" d="M 0.797571 1.02434C 2.60369 -1.46793 5.4216 1.08925 3.46016 3.36518C 2.76345 4.1743 1.85373 4.81901 1.02833 4.57238C 0.100861 4.30844 -0.618038 2.99307 0.797571 1.02434Z"/>
<path id="path89_fill" d="M 0.137757 0.169096C -0.674332 0.692648 2.39652 1.29841 1.7575 2.16378C 0.834468 3.37963 2.77372 2.16378 1.90838 3.70847C 1.56224 4.32722 0.315263 5.05413 1.62881 4.57385C 2.94235 4.09357 3.94526 2.7782 3.2663 1.41956C 2.64059 0.17775 0.838905 -0.280898 0.137757 0.169096Z"/>
<path id="path90_fill" d="M 55.9587 5.32205C 55.9587 9.35469 53.2251 13.383 47.7624 16.4594C 36.8369 22.6122 19.1218 22.6122 8.1919 16.4594C 2.72915 13.3873 0 9.35469 0 5.32205L 0 0L 55.9587 0L 55.9587 5.32205Z"/>
<path id="path91_fill" d="M 47.7663 26.8893C 36.8408 33.0421 19.1257 33.0421 8.19578 26.8893C -2.73415 20.7365 -2.72971 10.7674 8.19578 4.6146C 19.1213 -1.5382 36.8364 -1.5382 47.7663 4.6146C 58.6962 10.7674 58.6918 20.7408 47.7663 26.8893Z"/>
<path id="path92_fill" d="M 6.74079 9.5018C 11.4624 6.84078 17.795 5.3783 24.5624 5.3783C 31.3298 5.3783 37.6579 6.84078 42.384 9.5018C 45.4903 11.2542 47.6026 13.357 48.5434 15.5897C 48.9132 14.7365 49.1063 13.8203 49.1114 12.8941C 49.1114 9.6792 46.724 6.56386 42.3884 4.12351C 37.6668 1.46248 31.3342 0 24.5668 0C 17.7994 0 11.4491 1.46681 6.74079 4.12783C 2.39189 6.56819 0 9.6619 0 12.8941C 0.00515292 13.8203 0.198199 14.7365 0.568019 15.5897C 1.5088 13.357 3.63443 11.2542 6.74079 9.5018Z"/>
<path id="path93_fill" d="M 4.11814 9.87391C 4.11814 7.10472 6.17721 4.41773 9.9137 2.31487C 11.7312 1.31387 13.669 0.536319 15.6826 0C 12.313 0.509341 9.06213 1.59474 6.07958 3.20621C 2.1567 5.41291 0 8.2297 0 11.1374L 0.235195 12.7859L 4.11814 9.87391Z"/>
<path id="path94_fill" d="M 3.58695 0.144631C 3.10264 -0.0874474 2.52611 -0.0374056 2.09146 0.274437C 0.863256 1.05539 0.0902654 2.3603 0.0102068 3.78785C -0.0545977 4.3169 0.19281 4.83621 0.649228 5.12918L 16.6248 14.1161L 19.5447 9.13586L 3.58695 0.144631Z"/>
<path id="path95_fill" d="M 5.68019 0.235588C 5.08111 -0.123542 4.23795 -0.0846002 3.30605 0.438951C 1.35474 1.67949 0.126782 3.75267 0 6.02061C 0 7.07204 0.386075 7.80328 1.01178 8.1278L 31.4452 25.3833L 36.0869 17.4738L 5.68019 0.235588Z"/>
<path id="path96_fill" d="M 6.61209 2.30169C 6.48531 4.56963 5.25736 6.64281 3.30605 7.88335C 1.48217 8.91315 0 8.07806 0 6.0228C 0.126782 3.75486 1.35474 1.68168 3.30605 0.441138C 5.13436 -0.588656 6.61209 0.246429 6.61209 2.30169Z"/>
<path id="path97_fill" d="M 7.58394 1.71344L 9.27912 25.4982L 10.7613 25.8227L 8.14752 27.1251L 4.24683 8.18211L 1.66856 21.0502L 2.91553 21.2666L 0 22.1319L 0.665647 0L 7.58394 1.71344Z"/>
<path id="path98_fill" d="M 2.32241 0.367277C 2.32241 0.367277 1.30175 -0.420213 0.4586 0.311027C -0.384553 1.04227 -0.233673 3.07157 2.35348 6.42489C 3.89252 8.44697 5.79807 10.1774 7.97597 11.5306L 8.16679 10.6652C 7.00691 9.49745 5.96653 8.2222 5.06044 6.85758C 3.18332 3.85906 3.11675 1.79514 2.32241 0.367277Z"/>
<path id="path99_fill" d="M 1.33842 11.5617C 1.33842 11.5617 5.18143 14.9496 7.7242 13.9371C 8.42535 13.6602 8.26115 12.7689 8.16796 12.0203C 8.05259 10.9559 7.84845 10.1901 7.12068 7.89249C 5.65182 3.28005 1.4893 -0.700673 0.464208 0.104125C -0.560889 0.908922 0.357704 1.60555 0.872471 4.8031C 1.24639 7.03655 1.4024 9.29952 1.33842 11.5617Z"/>
<path id="path100_fill" d="M 1.7117 0.196347C 1.7117 0.196347 1.05493 -0.361819 0.247281 0.404037C -0.560371 1.16989 0.642232 3.89582 3.38914 7.15828C 6.13604 10.4207 10.9021 12.2294 10.9021 12.2294L 11.053 11.364C 11.053 11.364 7.50283 9.10537 6.13604 7.43952C 3.88171 4.67033 2.57705 1.58094 1.7117 0.196347Z"/>
<path id="path101_fill" d="M 3.32901 1.02434C 1.52289 -1.46793 -1.29502 1.08925 0.666423 3.36518C 1.36313 4.1743 2.27285 4.81901 3.09825 4.57238C 4.02128 4.29113 4.74018 2.97576 3.32901 1.02434Z"/>
<path id="path102_fill" d="M 3.26642 0.119545C 4.07851 0.638769 2.78272 1.69452 3.42174 2.54259C 4.34477 3.75844 2.40552 2.54259 3.27086 4.08728C 3.61699 4.70602 3.53268 5.86563 2.21914 5.38534C 0.905591 4.90506 -0.447891 3.78008 0.142316 1.8027C 0.541704 0.470021 2.56527 -0.313142 3.26642 0.119545Z"/>
<path id="path103_fill" d="M 7.21561 0L 8.93298 24.9357L 8.54691 25.4074C 8.46891 25.5147 8.34507 25.5816 8.21038 25.5892C 8.07569 25.5968 7.94478 25.5442 7.85464 25.4463L 7.41087 25.0136L 4.02938 8.39412L 1.33573 25.018L 1.02953 25.3252C 0.914167 25.4419 0.747687 25.4966 0.583385 25.4716C 0.419084 25.4466 0.277566 25.3451 0.204132 25.1997L 0 24.8103L 0.559144 1.09902L 7.21561 0Z"/>
<path id="path104_fill" d="M 0 14.586C 0 14.586 3.70544 16.6023 6.14614 14.4389C 6.81623 13.8418 6.65647 12.9504 6.58991 12.1759C 6.4365 10.5101 6.09419 8.86592 5.56925 7.2736C 4.14033 2.92509 3.35042 0.0260919 2.36527 0.000130683C 1.38011 -0.0258305 0.878654 3.82076 0.434889 7.5159C 0.248508 9.05194 0 12.1716 0 14.586Z"/>
<path id="path105_fill" d="M 6.23489 0.00865374C 6.23489 0.00865374 3.22173 6.10954 2.21882 8.80085C 1.33129 11.2196 0 14.9926 0 14.9926L 1.15823 15.1527L 3.82081 10.0859L 6.25708 4.75955L 6.25708 0"/>
<path id="path106_fill" d="M 0 0.0129806C 0 0.0129806 4.43765 6.99222 5.56037 9.13402C 6.77185 11.4402 8.55135 14.9363 8.55135 14.9363L 7.63719 15.369L 2.12563 7.30808L 0 3.02881L 0 0"/>
<path id="path107_fill" d="M 3.92058 2.14342C 3.92058 -1.02818 0.108646 -0.508953 0.370467 2.5761C 0.45922 3.6708 -1.12058 7.53037 1.63963 7.76835C 6.45892 8.21401 3.92058 4.62704 3.92058 2.14342Z"/>
</defs>
</svg>
