<svg width="18" height="18" viewBox="0 0 18 18" version="1.1" xmlns="http://www.w3.org/2000/svg" xmlns:xlink="http://www.w3.org/1999/xlink">
<title>instagram - FontAwesome</title>
<desc>Created using Figma</desc>
<g id="Canvas" transform="translate(-4825 -12542)">
<g id="instagram - FontAwesome">
<use xlink:href="#path0_fill" transform="translate(4825 12541)"/>
</g>
</g>
<defs>
<path id="path0_fill" d="M 11.4286 9.85714C 11.4286 11.4308 10.1451 12.7143 8.57143 12.7143C 6.99777 12.7143 5.71429 11.4308 5.71429 9.85714C 5.71429 8.28348 6.99777 7 8.57143 7C 10.1451 7 11.4286 8.28348 11.4286 9.85714ZM 12.9688 9.85714C 12.9688 7.42411 11.0045 5.45982 8.57143 5.45982C 6.13839 5.45982 4.17411 7.42411 4.17411 9.85714C 4.17411 12.2902 6.13839 14.2545 8.57143 14.2545C 11.0045 14.2545 12.9688 12.2902 12.9688 9.85714ZM 14.1741 5.28125C 14.1741 4.71205 13.7165 4.25446 13.1473 4.25446C 12.5781 4.25446 12.1205 4.71205 12.1205 5.28125C 12.1205 5.85045 12.5781 6.30804 13.1473 6.30804C 13.7165 6.30804 14.1741 5.85045 14.1741 5.28125ZM 8.57143 2.82589C 9.82143 2.82589 12.5 2.72545 13.6272 3.17188C 14.0179 3.32812 14.308 3.51786 14.6094 3.8192C 14.9107 4.12054 15.1004 4.41071 15.2567 4.80134C 15.7031 5.92857 15.6027 8.60714 15.6027 9.85714C 15.6027 11.1071 15.7031 13.7857 15.2567 14.9129C 15.1004 15.3036 14.9107 15.5938 14.6094 15.8951C 14.308 16.1964 14.0179 16.3862 13.6272 16.5424C 12.5 16.9888 9.82143 16.8884 8.57143 16.8884C 7.32143 16.8884 4.64286 16.9888 3.51562 16.5424C 3.125 16.3862 2.83482 16.1964 2.53348 15.8951C 2.23214 15.5938 2.04241 15.3036 1.88616 14.9129C 1.43973 13.7857 1.54018 11.1071 1.54018 9.85714C 1.54018 8.60714 1.43973 5.92857 1.88616 4.80134C 2.04241 4.41071 2.23214 4.12054 2.53348 3.8192C 2.83482 3.51786 3.125 3.32812 3.51562 3.17188C 4.64286 2.72545 7.32143 2.82589 8.57143 2.82589ZM 17.1429 9.85714C 17.1429 8.67411 17.154 7.50223 17.0871 6.3192C 17.0201 4.94643 16.7076 3.72991 15.7031 2.72545C 14.6987 1.72098 13.4821 1.40848 12.1094 1.34152C 10.9263 1.27455 9.75446 1.28571 8.57143 1.28571C 7.38839 1.28571 6.21652 1.27455 5.03348 1.34152C 3.66071 1.40848 2.4442 1.72098 1.43973 2.72545C 0.435268 3.72991 0.122768 4.94643 0.0558036 6.3192C -0.0111607 7.50223 0 8.67411 0 9.85714C 0 11.0402 -0.0111607 12.2121 0.0558036 13.3951C 0.122768 14.7679 0.435268 15.9844 1.43973 16.9888C 2.4442 17.9933 3.66071 18.3058 5.03348 18.3728C 6.21652 18.4397 7.38839 18.4286 8.57143 18.4286C 9.75446 18.4286 10.9263 18.4397 12.1094 18.3728C 13.4821 18.3058 14.6987 17.9933 15.7031 16.9888C 16.7076 15.9844 17.0201 14.7679 17.0871 13.3951C 17.154 12.2121 17.1429 11.0402 17.1429 9.85714Z"/>
</defs>
</svg>
