<svg width="18" height="18" viewBox="0 0 18 18" version="1.1" xmlns="http://www.w3.org/2000/svg" xmlns:xlink="http://www.w3.org/1999/xlink">
<title>facebook-official - FontAwesome</title>
<desc>Created using Figma</desc>
<g id="Canvas" transform="translate(-4826 -12507)">
<g id="facebook-official - FontAwesome">
<use xlink:href="#path0_fill" transform="translate(4826 12506)"/>
</g>
</g>
<defs>
<path id="path0_fill" d="M 16.1942 1.28571L 0.948661 1.28571C 0.424107 1.28571 0 1.70982 0 2.23438L 0 17.4799C 0 18.0045 0.424107 18.4286 0.948661 18.4286L 9.15179 18.4286L 9.15179 11.7879L 6.91964 11.7879L 6.91964 9.19866L 9.15179 9.19866L 9.15179 7.29018C 9.15179 5.08036 10.5134 3.875 12.4888 3.875C 13.4263 3.875 14.2411 3.94196 14.4754 3.97545L 14.4754 6.28571L 13.1138 6.29688C 12.0312 6.29688 11.8304 6.79911 11.8304 7.54688L 11.8304 9.19866L 14.3862 9.19866L 14.0513 11.7879L 11.8304 11.7879L 11.8304 18.4286L 16.1942 18.4286C 16.7188 18.4286 17.1429 18.0045 17.1429 17.4799L 17.1429 2.23438C 17.1429 1.70982 16.7188 1.28571 16.1942 1.28571Z"/>
</defs>
</svg>
