<svg width="372" height="127" viewBox="0 0 372 127" version="1.1" xmlns="http://www.w3.org/2000/svg" xmlns:xlink="http://www.w3.org/1999/xlink">
<title>illustrations-group-2</title>
<desc>Created using Figma</desc>
<g id="Canvas" transform="translate(1920 -10709)">
<g id="illustrations-group-2">
<g id="Asset 7">
<g id="Layer_2-2">
<g id="Shape">
<use xlink:href="#path0_fill" transform="translate(-1706 10801.9)" fill="#8C8C8C"/>
</g>
<g id="Shape">
<use xlink:href="#path1_fill" transform="translate(-1706 10774.4)" fill="#C6C6C6"/>
</g>
<g id="Shape">
<use xlink:href="#path2_fill" transform="translate(-1688.81 10795.8)" fill="#FF8600"/>
</g>
<g id="Shape">
<use xlink:href="#path3_fill" transform="translate(-1688.84 10777.7)" fill="#FFC400"/>
</g>
<g id="Shape">
<use xlink:href="#path4_fill" transform="translate(-1648.32 10794.5)" fill="#B21942"/>
</g>
<g id="Shape">
<use xlink:href="#path5_fill" transform="translate(-1668.12 10782.9)" fill="#F0562E"/>
</g>
<g id="Shape">
<use xlink:href="#path6_fill" transform="translate(-1669.2 10784.3)" fill="#B21942"/>
</g>
<g id="Shape">
<use xlink:href="#path7_fill" transform="translate(-1676.83 10797.1)"/>
</g>
<g id="Shape">
<use xlink:href="#path8_fill" transform="translate(-1648.32 10790.8)" fill="#FF3B5C"/>
</g>
<g id="Shape">
<use xlink:href="#path9_fill" transform="translate(-1669.22 10780.8)" fill="#FF3B5C"/>
</g>
<g id="Shape">
<use xlink:href="#path10_fill" transform="translate(-1676.83 10793.6)" fill="#303030"/>
</g>
</g>
<g id="Lager_1">
<g id="Shape">
<use xlink:href="#path11_fill" transform="translate(-1701.52 10801.4)"/>
</g>
<g id="Shape">
<use xlink:href="#path12_fill" transform="translate(-1697.38 10790.2)" fill="url(#paint12_linear)"/>
</g>
<g id="Shape">
<use xlink:href="#path13_fill" transform="translate(-1700.77 10790.1)" fill="url(#paint13_linear)"/>
</g>
<g id="Shape">
<use xlink:href="#path14_fill" transform="translate(-1695.48 10792.1)" fill="url(#paint14_linear)"/>
</g>
<g id="Shape">
<use xlink:href="#path15_fill" transform="translate(-1695.92 10786.7)" fill="#AF7E43"/>
</g>
</g>
</g>
<g id="Asset 9">
<g id="Shape">
<use xlink:href="#path16_fill" transform="translate(-1912.76 10779.2)" fill="#76A3FF"/>
</g>
<g id="Shape">
<use xlink:href="#path17_fill" transform="translate(-1912.87 10786.7)" fill="#76A3FF"/>
</g>
<g id="Shape">
<use xlink:href="#path18_fill" transform="translate(-1911.41 10807.7)" fill="#D3D3D3"/>
</g>
<g id="Shape">
<use xlink:href="#path19_fill" transform="translate(-1875.65 10796.4)" fill="#FFFFFF"/>
</g>
<g id="Shape">
<use xlink:href="#path20_fill" transform="translate(-1875.65 10796.5)" fill="#668CFF"/>
</g>
<g id="Shape">
<use xlink:href="#path20_fill" transform="translate(-1875.65 10805.3)" fill="#668CFF"/>
</g>
<g id="Shape">
<use xlink:href="#path21_fill" transform="translate(-1912.76 10778.5)" fill="#76A3FF"/>
</g>
<g id="Shape">
<use xlink:href="#path22_fill" transform="translate(-1913.44 10806.6)" fill="#4F75D3"/>
</g>
<g id="Shape">
<use xlink:href="#path23_fill" transform="translate(-1903.16 10773.1)" fill="#D82B50"/>
</g>
<g id="Shape">
<use xlink:href="#path24_fill" transform="translate(-1901.64 10810.2)" fill="#D3D3D3"/>
</g>
<g id="Shape">
<use xlink:href="#path25_fill" transform="translate(-1903.16 10808.9)" fill="#B21942"/>
</g>
<g id="Shape">
<use xlink:href="#path26_fill" transform="translate(-1920 10762)" fill="#76A3FF"/>
</g>
<g id="Shape">
<use xlink:href="#path27_fill" transform="translate(-1920 10769.4)" fill="#76A3FF"/>
</g>
<g id="Shape">
<use xlink:href="#path28_fill" transform="translate(-1864.96 10790.4)" fill="#FFFFFF"/>
</g>
<g id="Shape">
<use xlink:href="#path29_fill" transform="translate(-1918.83 10779.1)" fill="#D3D3D3"/>
</g>
<g id="Shape">
<use xlink:href="#path30_fill" transform="translate(-1920 10779.3)" fill="#4F75D3"/>
</g>
<g id="Shape">
<use xlink:href="#path30_fill" transform="translate(-1920 10788.1)" fill="#4F75D3"/>
</g>
<g id="Shape">
<use xlink:href="#path31_fill" transform="translate(-1920 10761.3)" fill="#76A3FF"/>
</g>
<g id="Shape">
<use xlink:href="#path32_fill" transform="translate(-1864.96 10789.4)" fill="#668CFF"/>
</g>
<g id="Shape">
<use xlink:href="#path33_fill" transform="translate(-1912.87 10755)" fill="#76A3FF"/>
</g>
<g id="Shape">
<use xlink:href="#path34_fill" transform="translate(-1912.89 10761.3)" fill="#FFAB00"/>
</g>
<g id="Shape">
<use xlink:href="#path35_fill" transform="translate(-1866.28 10779.1)" fill="#FFFFFF"/>
</g>
<g id="Shape">
<use xlink:href="#path36_fill" transform="translate(-1911.9 10769.5)" fill="#D3D3D3"/>
</g>
<g id="Shape">
<use xlink:href="#path37_fill" transform="translate(-1912.89 10769.7)" fill="#FFC400"/>
</g>
<g id="Shape">
<use xlink:href="#path37_fill" transform="translate(-1912.89 10777.1)" fill="#FFAB00"/>
</g>
<g id="Shape">
<use xlink:href="#path38_fill" transform="translate(-1912.89 10754.4)" fill="#FFE200"/>
</g>
<g id="Shape">
<use xlink:href="#path39_fill" transform="translate(-1866.28 10778.2)" fill="#FFC400"/>
</g>
<g id="Shape">
<use xlink:href="#path40_fill" transform="translate(-1893.42 10777.1)"/>
</g>
<g id="Shape">
<use xlink:href="#path41_fill" transform="translate(-1884.72 10764.8)" fill="#FF3B5C"/>
</g>
<g id="Shape">
<use xlink:href="#path42_fill" transform="translate(-1879.65 10762.5)"/>
</g>
<g id="Shape">
<use xlink:href="#path43_fill" transform="translate(-1879.81 10765.7)" fill="#FF3B5C"/>
</g>
<g id="Shape">
<use xlink:href="#path44_fill" transform="translate(-1881.74 10761)" fill="#476BC4"/>
</g>
<g id="Shape">
<use xlink:href="#path45_fill" transform="translate(-1881.44 10760.8)"/>
</g>
<g id="Shape">
<use xlink:href="#path46_fill" transform="translate(-1872.21 10778.2)" fill="#FFC400"/>
</g>
<g id="Shape">
<use xlink:href="#path47_fill" transform="translate(-1907.18 10762.6)"/>
</g>
<g id="Shape">
<use xlink:href="#path48_fill" transform="translate(-1906.42 10750)" fill="#76A3FF"/>
</g>
<g id="Shape">
<use xlink:href="#path49_fill" transform="translate(-1901.4 10750.7)" fill="#76A3FF"/>
</g>
<g id="Shape">
<use xlink:href="#path50_fill" transform="translate(-1908.11 10750.7)" fill="#76A3FF"/>
</g>
<g id="Shape">
<use xlink:href="#path51_fill" transform="translate(-1903.76 10746.9)" fill="#FFC400"/>
</g>
<g id="Shape">
<use xlink:href="#path52_fill" transform="translate(-1904.99 10746.4)"/>
</g>
<g id="Shape">
<use xlink:href="#path53_fill" transform="translate(-1901.17 10746.8)"/>
</g>
</g>
<g id="Asset 17">
<g id="Shape">
<use xlink:href="#path54_fill" transform="translate(-1796 10709)" fill="#FFC400"/>
</g>
<g id="Shape">
<use xlink:href="#path55_fill" transform="translate(-1777.37 10789)" fill="#303030"/>
</g>
<g id="Shape">
<use xlink:href="#path56_fill" transform="translate(-1780.71 10724.6)" fill="#303030"/>
</g>
<g id="Shape">
<use xlink:href="#path57_fill" transform="translate(-1777.86 10720.7)" fill="#303030"/>
</g>
<g id="Shape">
<use xlink:href="#path58_fill" transform="translate(-1791.44 10718.2)" fill="#FFFFFF"/>
</g>
<g id="Shape">
<use xlink:href="#path59_fill" transform="translate(-1793.52 10710.2)"/>
</g>
<g id="Group">
<g id="Shape">
<use xlink:href="#path58_fill" transform="translate(-1791.44 10718.2)" fill="#FF3B5C"/>
</g>
<mask id="mask0_outline" mask-type="alpha">
<g id="Shape">
<use xlink:href="#path58_fill" transform="translate(-1791.44 10718.2)" fill="#FFFFFF"/>
</g>
</mask>
<g id="Shape" mask="url(#mask0_outline)">
<use xlink:href="#path60_fill" transform="translate(-1793.48 10762.8)" fill="#668CFF"/>
</g>
<g id="Shape" mask="url(#mask0_outline)">
<use xlink:href="#path61_fill" transform="translate(-1780.83 10761.8)" fill="#76A3FF"/>
</g>
<g id="Shape" mask="url(#mask0_outline)">
<use xlink:href="#path62_fill" transform="translate(-1779.93 10755.3)" fill="#FFC400"/>
</g>
<g id="Shape" mask="url(#mask0_outline)">
<use xlink:href="#path63_fill" transform="translate(-1778.81 10753.5)" fill="#FF8C00"/>
</g>
<g id="Shape" mask="url(#mask0_outline)">
<use xlink:href="#path64_fill" transform="translate(-1767.86 10741.2)" fill="#FFC400"/>
</g>
<g id="Shape" mask="url(#mask0_outline)">
<use xlink:href="#path65_fill" transform="translate(-1786.86 10754.5)" fill="#FFC400"/>
</g>
<g id="Shape" mask="url(#mask0_outline)">
<use xlink:href="#path66_fill" transform="translate(-1785.09 10736.4)" fill="#FFC400"/>
</g>
<g id="Shape" mask="url(#mask0_outline)">
<use xlink:href="#path67_fill" transform="translate(-1787.17 10733.8)"/>
</g>
<g id="Shape" mask="url(#mask0_outline)">
<use xlink:href="#path68_fill" transform="translate(-1774.92 10775.8)" fill="#00465A"/>
</g>
<g id="Shape" mask="url(#mask0_outline)">
<use xlink:href="#path69_fill" transform="translate(-1786.73 10734.1)"/>
</g>
<g id="Shape" mask="url(#mask0_outline)">
<use xlink:href="#path70_fill" transform="translate(-1768.91 10738.8)"/>
</g>
<g id="Shape" mask="url(#mask0_outline)">
<use xlink:href="#path71_fill" transform="translate(-1780.18 10766.5)" fill="#76A3FF"/>
</g>
<g id="Shape" mask="url(#mask0_outline)">
<use xlink:href="#path72_fill" transform="translate(-1774.76 10762)" fill="#76A3FF"/>
</g>
<g id="Shape" mask="url(#mask0_outline)">
<use xlink:href="#path73_fill" transform="translate(-1779.25 10775)" fill="#FF3B5C"/>
</g>
<g id="Shape" mask="url(#mask0_outline)">
<use xlink:href="#path74_stroke" transform="translate(-1786.86 10781.5)" fill="#FFFFFF"/>
</g>
<g id="Shape" mask="url(#mask0_outline)">
<use xlink:href="#path75_stroke" transform="translate(-1768.53 10772.1)" fill="#FFFFFF"/>
</g>
<g id="Shape" mask="url(#mask0_outline)">
<use xlink:href="#path76_stroke" transform="translate(-1784.82 10783.7)" fill="#FFFFFF"/>
</g>
<g id="Shape" mask="url(#mask0_outline)">
<use xlink:href="#path77_stroke" transform="translate(-1766.49 10774.3)" fill="#FFFFFF"/>
</g>
<g id="Shape" mask="url(#mask0_outline)">
<use xlink:href="#path78_fill" transform="translate(-1777.33 10776.8)" fill="#FFFFFF"/>
</g>
</g>
<g id="Shape">
<use xlink:href="#path79_fill" transform="translate(-1753.45 10785.7)"/>
</g>
<g id="Shape">
<use xlink:href="#path80_fill" transform="translate(-1749.89 10774.5)" fill="#FF3B5C"/>
</g>
<g id="Shape">
<use xlink:href="#path81_fill" transform="translate(-1752.16 10771.2)" fill="#FF3B5C"/>
</g>
<g id="Shape">
<use xlink:href="#path82_fill" transform="translate(-1742.81 10770.6)" fill="#476BC4"/>
</g>
<g id="Shape">
<use xlink:href="#path83_fill" transform="translate(-1742.05 10770.1)"/>
</g>
<g id="Shape">
<use xlink:href="#path84_fill" transform="translate(-1780.1 10800.5)"/>
</g>
<g id="Shape">
<use xlink:href="#path85_fill" transform="translate(-1779.48 10787.4)" fill="#FFC400"/>
</g>
<g id="Shape">
<use xlink:href="#path86_fill" transform="translate(-1782.12 10788.1)" fill="#FFC400"/>
</g>
<g id="Shape">
<use xlink:href="#path87_fill" transform="translate(-1775.89 10788.1)" fill="#FFC400"/>
</g>
<g id="Shape">
<use xlink:href="#path88_fill" transform="translate(-1778.87 10783.9)"/>
</g>
<g id="Shape">
<use xlink:href="#path89_fill" transform="translate(-1732.56 10805.6)"/>
</g>
<g id="Shape">
<use xlink:href="#path90_fill" transform="translate(-1729 10793.4)" fill="#668CFF"/>
</g>
<g id="Shape">
<use xlink:href="#path91_fill" transform="translate(-1727 10789.2)" fill="#FFC400"/>
</g>
<g id="Shape">
<use xlink:href="#path92_fill" transform="translate(-1727.09 10787.7)" fill="#FF3B5C"/>
</g>
<g id="Shape">
<use xlink:href="#path93_fill" transform="translate(-1736.26 10794.6)" fill="#668CFF"/>
</g>
</g>
<g id="Shape">
<use xlink:href="#path94_fill" transform="translate(-1589 10760)" fill="#C6C6C6"/>
</g>
<g id="Shape">
<use xlink:href="#path95_fill" transform="translate(-1574 10744)" fill="#436CD2"/>
</g>
<g id="Shape">
<use xlink:href="#path96_fill" transform="translate(-1588 10761)" fill="#FFFFFF"/>
</g>
<g id="Shape">
<use xlink:href="#path97_fill" transform="translate(-1573 10744)" fill="#668CFF"/>
</g>
<g id="Shape">
<use xlink:href="#path98_fill" transform="translate(-1574 10768)" fill="#436CD2"/>
</g>
<g id="Shape">
<use xlink:href="#path97_fill" transform="translate(-1573 10769)" fill="#668CFF"/>
</g>
<g id="Oval">
<use xlink:href="#path99_fill" transform="translate(-1566 10817)"/>
</g>
<g id="Shape">
<use xlink:href="#path100_fill" transform="translate(-1567 10817)"/>
</g>
<g id="Shape">
<use xlink:href="#path101_fill" transform="translate(-1560 10808)" fill="#FF8600"/>
</g>
<g id="Shape">
<use xlink:href="#path102_fill" transform="translate(-1568 10804)" fill="#FF8600"/>
</g>
<g id="Shape">
<use xlink:href="#path103_fill" transform="translate(-1552 10804)" fill="#FF8600"/>
</g>
<g id="Shape">
<use xlink:href="#path104_fill" transform="translate(-1569 10799)" fill="#FF8600"/>
</g>
<g id="Shape">
<use xlink:href="#path105_fill" transform="translate(-1569 10798)" fill="#FFC400"/>
</g>
<g id="Shape">
<use xlink:href="#path106_fill" transform="translate(-1558 10785)" fill="#FF8600"/>
</g>
<g id="Shape">
<use xlink:href="#path107_fill" transform="translate(-1559 10786)" fill="#FFC400"/>
</g>
<g id="Shape">
<use xlink:href="#path108_fill" transform="translate(-1571 10799)"/>
</g>
<g id="Shape">
<use xlink:href="#path109_fill" transform="translate(-1569 10807)"/>
</g>
<g id="Shape">
<use xlink:href="#path110_fill" transform="translate(-1561 10785)" fill="#FF3B5C"/>
</g>
<g id="Shape">
<use xlink:href="#path111_fill" transform="translate(-1557 10780)" fill="#FFC400"/>
</g>
<g id="Shape">
<use xlink:href="#path112_fill" transform="translate(-1557 10780)"/>
</g>
<g id="Shape">
<use xlink:href="#path113_fill" transform="translate(-1579 10802)" fill="#FF8600"/>
</g>
<g id="Shape">
<use xlink:href="#path114_fill" transform="translate(-1579 10797)" fill="#FFC400"/>
</g>
<g id="Shape">
<use xlink:href="#path115_fill" transform="translate(-1576 10816)"/>
</g>
<g id="Shape">
<use xlink:href="#path116_fill" transform="translate(-1571 10811)"/>
</g>
<g id="Shape">
<use xlink:href="#path117_fill" transform="translate(-1578 10809)"/>
</g>
<g id="Shape">
<use xlink:href="#path118_fill" transform="translate(-1581 10820)" fill="#FF8600"/>
</g>
<g id="Shape">
<use xlink:href="#path119_fill" transform="translate(-1589 10815)" fill="#FF8600"/>
</g>
<g id="Shape">
<use xlink:href="#path120_fill" transform="translate(-1573 10815)" fill="#FF8600"/>
</g>
<g id="Shape">
<use xlink:href="#path121_fill" transform="translate(-1581 10811)" fill="#FF8600"/>
</g>
<g id="Shape">
<use xlink:href="#path122_fill" transform="translate(-1590 10810)" fill="#FF8600"/>
</g>
<g id="Shape">
<use xlink:href="#path123_fill" transform="translate(-1590 10810)" fill="#FFC400"/>
</g>
<g id="Shape">
<use xlink:href="#path124_fill" transform="translate(-1592 10805)"/>
</g>
<g id="Shape">
<use xlink:href="#path125_fill" transform="translate(-1586 10806)"/>
</g>
<g id="Shape">
<use xlink:href="#path126_fill" transform="translate(-1586 10797)" fill="#FFFFFF"/>
</g>
<g id="Shape">
<use xlink:href="#path127_fill" transform="translate(-1588 10795)" fill="#FFFFFF"/>
</g>
<g id="Shape">
<use xlink:href="#path128_fill" transform="translate(-1585 10799)" fill="#FFFFFF"/>
</g>
<g id="Shape">
<use xlink:href="#path129_fill" transform="translate(-1585 10792)" fill="#AF7E43"/>
</g>
<g id="Shape">
<use xlink:href="#path130_fill" transform="translate(-1589 10791)"/>
</g>
<g id="Shape">
<use xlink:href="#path131_fill" transform="translate(-1593 10800)" fill="#FF8600"/>
</g>
<g id="Shape">
<use xlink:href="#path132_fill" transform="translate(-1593 10801)" fill="#FFC400"/>
</g>
<g id="Shape">
<use xlink:href="#path133_fill" transform="translate(-1559 10786)" fill="#FF3B5C"/>
</g>
<g id="Shape">
<use xlink:href="#path134_fill" transform="translate(-1567 10786)" fill="#FF3B5C"/>
</g>
<g id="Shape">
<use xlink:href="#path135_fill" transform="translate(-1583 10817)" fill="#FFE200"/>
</g>
</g>
</g>
<defs>
<linearGradient id="paint12_linear" x1="0" y1="0" x2="1" y2="0" gradientUnits="userSpaceOnUse" gradientTransform="matrix(1.00147 -2.68957 4.20875 0.63998 6.07493 5.73858)">
<stop offset="0" stop-color="#668CFF"/>
<stop offset="1" stop-color="#92B1FF"/>
</linearGradient>
<linearGradient id="paint13_linear" x1="0" y1="0" x2="1" y2="0" gradientUnits="userSpaceOnUse" gradientTransform="matrix(-90.7861 -22.0679 11.8637 -168.873 216.157 192.15)">
<stop offset="0" stop-color="#668CFF"/>
<stop offset="1" stop-color="#92B1FF"/>
</linearGradient>
<linearGradient id="paint14_linear" x1="0" y1="0" x2="1" y2="0" gradientUnits="userSpaceOnUse" gradientTransform="matrix(-40.3621 -28.9389 45.9541 -25.4175 -18919.2 -42256.5)">
<stop offset="0" stop-color="#668CFF"/>
<stop offset="1" stop-color="#92B1FF"/>
</linearGradient>
<path id="path0_fill" d="M 106.459 6.33658C 106.459 7.38818 105.733 8.39484 104.276 9.14535L 59.0916 32.4019C 55.8555 34.0692 50.1998 33.858 46.4647 31.9525L 3.11512 9.62621C 1.04341 8.53865 0 7.19044 0 5.92762L 0 0L 106.448 0L 106.459 6.33658Z"/>
<path id="path1_fill" d="M 104.275 30.4186L 59.0904 53.6752C 55.8543 55.3425 50.1987 55.1312 46.4636 53.2258L 3.11398 30.8994C -0.646349 28.9625 -1.05464 26.0684 2.18146 24.3876L 47.381 1.12651C 50.6171 -0.54077 56.2727 -0.329551 60.0078 1.57592L 103.357 23.9022C 107.103 25.8437 107.511 28.7648 104.275 30.4186Z"/>
<path id="path2_fill" d="M 72.0813 4.8895C 72.0813 9.6352 68.5529 14.3854 61.5262 18.0076C 47.4527 25.2519 24.6488 25.2519 10.535 18.0076C 3.51837 14.3854 0 9.62171 0 4.8895L 0 0L 72.0813 0L 72.0813 4.8895Z"/>
<path id="path3_fill" d="M 61.5539 31.6739C 47.4804 38.9183 24.6765 38.9183 10.5627 31.6694C -3.55113 24.4205 -3.49064 12.6777 10.5627 5.43328C 24.616 -1.81109 47.4603 -1.81109 61.5338 5.43328C 75.6073 12.6777 75.6274 24.425 61.5539 31.6739Z"/>
<path id="path4_fill" fill-rule="evenodd" d="M 15.969 3.23145C 17.3804 3.39307 19.7141 3.79297 21.2263 4.57959L 13.8267 3.95947L 13.6956 0L 16.4932 0.103516L 16.4932 1.33936C 16.4944 1.56543 16.4707 1.79102 16.4226 2.01318C 16.3281 2.43457 16.1758 2.84326 15.969 3.23145ZM 0 6.1748L 22.9097 5.30273L 22.9048 6.87109C 22.9199 7.81055 22.3149 8.66895 21.1404 9.31592C 19.5427 10.1968 17.1382 10.5654 14.5422 10.3315C 10.7617 9.99023 1.14429 8.30908 0.73584 8.2373C 0.589111 8.21289 0.447998 8.16748 0.317627 8.10254C 0.150635 8.0332 0.0322266 7.89551 0 7.73389L 0 6.1748Z"/>
<path id="path5_fill" d="M 7.48966 0.116847C 11.124 0.56625 12.0262 3.71207 12.0262 3.71207C 12.4194 3.63567 17.8532 2.62451 20.3282 3.97722C 23.6853 5.81527 22.3747 8.22407 17.9944 9.02401C 14.3097 9.69811 4.14771 10.6419 4.14771 10.6419C 4.14771 10.6419 0.77551 5.54563 0.115184 3.62219C -0.681239 1.29428 2.7464 -0.480858 7.48966 0.116847Z"/>
<path id="path6_fill" d="M 24.3917 3.24019L 14.6179 3.14582L 0 0L 0 1.51898C 0.00188617 1.77796 0.0460344 2.03532 0.131057 2.28297C 0.791382 4.22888 4.06277 9.1813 4.2039 9.38802C 4.26911 9.47875 4.35937 9.55303 4.46602 9.60374C 4.76335 9.74223 5.1008 9.79708 5.43382 9.76103C 5.8522 9.72058 15.7218 8.8038 19.4519 8.12071C 21.9369 7.67131 23.6759 6.73655 24.2254 5.56361C 24.3427 5.31781 24.4028 5.05328 24.4018 4.78614L 24.3917 3.24019Z"/>
<path id="path7_fill" d="M 26.2769 10.0037C 26.2732 10.1486 26.1828 10.2806 26.04 10.3497L 25.9896 10.3812L 25.8535 10.4396C 20.8885 12.7226 11.0289 11.5182 5.54472 8.69594C 2.42959 7.09158 0.0907317 4.28281 0 1.79761L 0 0L 26.2769 8.47124L 26.2769 10.0037Z"/>
<path id="path8_fill" d="M 14.9013 1.18072L 14.7955 1.12679C 12.7634 0.172804 10.4468 -0.188716 8.17207 0.0931624C 5.89874 0.376286 4.08914 1.2706 3.20703 2.5514C 1.88638 4.47035 0.0969481 9.55309 0.0213384 9.7688C -0.0542714 9.98452 0.0767855 10.1418 0.323777 10.2676C 0.454111 10.3325 0.595415 10.378 0.742151 10.4025C 1.15044 10.4744 10.768 12.1551 14.5485 12.4967C 17.1444 12.7304 19.5488 12.3619 21.1467 11.481C 22.7446 10.6002 23.289 9.33738 22.6589 8.00265C 22.3476 7.45734 21.8473 7.01607 21.2324 6.74432C 19.7202 5.95787 17.3864 5.5579 15.975 5.39612C 16.181 5.01118 16.3334 4.60519 16.4287 4.18722C 16.7618 3.00025 16.1357 1.76483 14.9165 1.20319L 14.9013 1.18072Z"/>
<path id="path9_fill" d="M 22.1129 4.11529C 20.8377 3.45917 18.8365 3.18952 16.3162 3.32884C 15.424 3.37827 14.6024 3.47265 13.9673 3.56253C 13.4246 2.43551 12.4944 1.4913 11.3108 0.866112C 10.5547 0.483766 9.72289 0.235047 8.86107 0.133585C 6.27018 -0.194479 3.82042 0.088645 2.1066 0.906558C 0.392778 1.72447 -0.322994 2.96932 0.135705 4.30404C 0.79603 6.25445 4.04725 11.1979 4.20855 11.4001C 4.27376 11.4908 4.36402 11.5651 4.47066 11.6158C 4.768 11.7543 5.10545 11.8092 5.43847 11.7731C 5.85684 11.7327 15.7264 10.8159 19.4565 10.1328C 21.9416 9.68339 23.6806 8.74864 24.23 7.5757C 24.7794 6.40275 24.0435 5.1669 22.2138 4.16922L 22.1129 4.11529Z"/>
<path id="path10_fill" d="M 25.8673 11.5654L 25.9984 11.6193C 26.3613 11.8081 26.3764 12.1047 26.0488 12.3024L 25.9984 12.3339L 25.8623 12.3923C 20.8973 14.6753 11.0377 13.4709 5.55351 10.6486C 0.734649 8.17242 -2.21917 2.81554 2.08554 0.231469C 2.12574 0.198976 2.16967 0.170355 2.2166 0.146083L 2.29725 0.114624C 2.71775 -0.0485455 3.19777 -0.0370234 3.60782 0.146083L 3.68343 0.191023L 25.8673 11.5654Z"/>
<path id="path11_fill" d="M 8.61447 1.77964L 10.54 26.4788L 12.2236 26.8204L 9.25968 28.1686L 4.82894 8.49371L 1.89528 21.859L 3.31171 22.0881L 0 22.987L 0.756098 0L 8.61447 1.77964Z"/>
<path id="path12_fill" d="M 2.09828 0.0537946C 2.09828 0.0537946 0.666736 -0.287751 0.127386 0.750369C -0.411964 1.78849 0.681858 3.65801 4.94121 5.81963C 7.48026 7.12146 10.2647 7.99871 13.1575 8.40819L 12.9558 7.50939C 11.213 6.85975 9.54505 6.06054 7.97568 5.12306C 4.61357 3.03333 3.59031 1.09192 2.09828 0.0537946Z"/>
<path id="path13_fill" d="M 0 11.9576C 0 11.9576 4.34504 15.4765 7.25854 14.4249C 8.05496 14.1373 7.86846 13.2115 7.7626 12.434C 7.63155 11.3285 7.35935 10.6364 7.07707 8.14671C 6.4722 2.89769 7.58114 0.574276 4.21398 0.0215104C 2.73707 -0.221167 1.18959 1.59442 0.267155 5.2211C -0.126016 6.78502 0.0554472 8.41635 0 11.9576Z"/>
<path id="path14_fill" d="M 2.11984 0.0537946C 2.11984 0.0537946 0.688292 -0.287751 0.148942 0.750369C -0.390407 1.78849 0.406015 4.05797 4.68553 6.22859C 7.49265 7.58217 10.58 8.41099 13.7587 8.66435L 13.5722 7.68016C 13.5722 7.68016 9.83203 6.65552 7.69984 5.51853C 4.17642 3.64003 3.59675 1.08742 2.11984 0.0537946Z"/>
<path id="path15_fill" d="M 4.24228 2.86713C 5.87041 0.049372 1.74716 -1.2539 0.421464 1.59532C -0.0523573 2.61097 -0.233821 3.73447 0.451708 4.35914C 1.23301 5.05572 2.96699 5.0737 4.24228 2.86713Z"/>
<path id="path16_fill" d="M 60.6126 1.13535L 92.1511 17.3366L 36.2913 46.2656L 0 27.6257L 51.1262 1.13535C 54.0594 -0.378449 57.6793 -0.378449 60.6126 1.13535Z"/>
<path id="path17_fill" d="M 55.979 0L 92.2703 18.6442L 36.4009 47.5901L 1.8353 29.8324L 0 27.1901L 0.381361 21.0998L 55.979 0Z"/>
<path id="path18_fill" d="M 1.38243 0.166765C 0.619712 -0.223423 0 0.0946648 0 0.87504L 0 5.56577C 0.0561129 6.42785 0.569229 7.21495 1.38243 7.68635L 35.7478 25.3551L 35.7478 17.827L 1.38243 0.166765Z"/>
<path id="path19_fill" d="M 0 36.6437L 0 27.8814L 53.872 0L 53.872 8.76225L 0 36.6437Z"/>
<path id="path20_fill" d="M 0 29.7603L 0 28.4879L 55.0447 0L 55.0447 1.27235L 0 29.7603Z"/>
<path id="path21_fill" d="M 58.1528 0.54632L 92.1559 18.0157L 36.2913 46.9489L 0 28.309L 53.586 0.54632C 54.9982 -0.182107 56.7406 -0.182107 58.1528 0.54632Z"/>
<path id="path22_fill" d="M 2.61709 1.59014L 37.7738 19.6533L 37.7738 18.3809L 2.61709 0.317789C 1.18699 -0.424416 0 0.17783 0 1.66224L 0 6.36569C 0.0985362 8.00591 1.07078 9.50587 2.61709 10.4033L 37.7738 28.4537L 37.7738 27.1813L 2.61709 9.11821C 1.80388 8.6468 1.29077 7.85971 1.23466 6.99763L 1.23466 2.29841C 1.23466 1.51804 1.85437 1.19995 2.61709 1.59014Z"/>
<path id="path23_fill" d="M 58.6056 0L 3.21297 0C 1.43849 0 0 1.27982 0 2.85855L 0 39.4895L 58.6009 36.2789L 58.6056 0Z"/>
<path id="path24_fill" d="M 1.69229 0C 0.758751 0.00232978 0.00261864 0.675054 0 1.50561L 0 6.48899C 0.00261864 7.31955 0.758751 7.99227 1.69229 7.9946L 56.1125 7.9946L 56.1125 0L 1.69229 0Z"/>
<path id="path25_fill" d="M 3.21297 1.35293L 58.6056 1.35293L 58.6056 0L 3.21297 0C 1.43849 0 0 1.27982 0 2.85855L 0 7.84192C -3.38717e-15 8.60005 0.338508 9.32714 0.941056 9.86322C 1.5436 10.3993 2.36083 10.7005 3.21297 10.7005L 58.6056 10.7005L 58.6056 9.34753L 3.21297 9.34753C 2.27943 9.3452 1.5233 8.67248 1.52068 7.84192L 1.52068 2.85855C 1.5233 2.02799 2.27943 1.35526 3.21297 1.35293Z"/>
<path id="path26_fill" d="M 31.5386 1.12689L 0 17.3281L 55.8646 46.2741L 92.1511 27.6342L 41.0249 1.14385C 38.0951 -0.375197 34.4752 -0.38167 31.5386 1.12689Z"/>
<path id="path27_fill" d="M 36.2913 0L 0 18.6399L 55.8646 47.5901L 90.435 29.8324L 92.2703 27.1901L 91.8889 21.0998L 36.2913 0Z"/>
<path id="path28_fill" d="M 34.3845 0.166765C 35.1472 -0.223423 35.7669 0.0946648 35.7669 0.87504L 35.7669 5.56577C 35.7108 6.42785 35.1977 7.21495 34.3845 7.68635L 0 25.3466L 0 17.8227L 34.3845 0.166765Z"/>
<path id="path29_fill" d="M 53.872 36.6437L 53.872 27.8857L 0 0L 0 8.76649L 53.872 36.6437Z"/>
<path id="path30_fill" d="M 55.0447 29.7645L 55.0447 28.4922L 0 0L 0 1.27659L 55.0447 29.7645Z"/>
<path id="path31_fill" d="M 34.0031 0.542089L 0 18.0072L 55.8646 46.9532L 92.1511 28.3133L 38.5699 0.550571C 37.1594 -0.18048 35.417 -0.183716 34.0031 0.542089Z"/>
<path id="path32_fill" d="M 35.1758 1.59014L 0 19.6533L 0 18.3809L 35.1758 0.317789C 36.6059 -0.424416 37.7929 0.17783 37.7929 1.66224L 37.7929 6.35297C 37.6943 7.99319 36.7221 9.49315 35.1758 10.3906L 0 28.4537L 0 27.1813L 35.1758 9.11821C 35.989 8.6468 36.5021 7.85971 36.5582 6.99763L 36.5582 2.29841C 36.5582 1.51804 35.9385 1.19571 35.1758 1.59014Z"/>
<path id="path33_fill" d="M 26.6953 0.955037L 0 14.6752L 47.3078 39.1849L 78.036 23.4035L 34.7277 0.967761C 32.2466 -0.318024 29.1815 -0.322879 26.6953 0.955037Z"/>
<path id="path34_fill" d="M 30.7282 0L 0 15.7856L 47.3078 40.2953L 76.582 25.2604L 78.1361 23.0253L 77.8072 17.868L 30.7282 0Z"/>
<path id="path35_fill" d="M 29.1169 0.141791C 29.7605 -0.18902 30.2848 0.0781739 30.2848 0.744037L 30.2848 4.71801C 30.2401 5.44997 29.8065 6.11929 29.1169 6.52051L 0 21.4706L 0 15.1089L 29.1169 0.141791Z"/>
<path id="path36_fill" d="M 45.6203 31.0284L 45.6203 23.6106L 0 0L 0 7.4178L 45.6203 31.0284Z"/>
<path id="path37_fill" d="M 46.6118 25.2053L 46.6118 24.128L 0 0L 0 1.0815L 46.6118 25.2053Z"/>
<path id="path38_fill" d="M 28.7928 0.462134L 0 15.2426L 47.3078 39.7523L 78.036 23.9709L 32.6588 0.462134C 31.4632 -0.154045 29.9884 -0.154045 28.7928 0.462134Z"/>
<path id="path39_fill" d="M 29.7843 1.34599L 0 16.6439L 0 15.5666L 29.7843 0.268734C 31.0094 -0.358959 32.001 0.149981 32.001 1.40961L 32.001 5.38358C 31.9172 6.77237 31.0937 8.04227 29.7843 8.80196L 0 24.0956L 0 23.0184L 29.7843 7.72047C 30.4725 7.32012 30.906 6.65265 30.9522 5.92221L 30.9522 1.94824C 30.9522 1.28661 30.4278 1.01518 29.7843 1.34599Z"/>
<path id="path40_fill" d="M 15.7359 0.212058L 15.7025 0.814304C 15.6167 2.42595 15.2687 3.50745 13.8958 4.5635L 8.69503 7.09971L 8.19449 17.885L 5.38672 19.1574L 6.69288 17.4058L 5.50113 6.21755L 9.56263 3.76192L 4.02336 6.6035L 3.13193 14.5896L 0 15.4378L 1.53498 14.1655L 1.8067 4.97913L 8.69503 0L 15.7359 0.212058Z"/>
<path id="path41_fill" d="M 6.936 13.8358C 6.936 13.8358 2.7315 13.242 0 12.2496C 0 12.2496 2.09272 9.41224 2.25956 8.69125C 2.64092 7.02023 1.65415 6.60883 2.42641 4.35677C 4.1044 -0.537535 3.33691 -0.210965 4.6669 0.234358C 5.9969 0.67968 6.4593 0.370075 7.08855 3.49157C 7.38887 4.97598 7.43177 10.1629 6.936 13.8358Z"/>
<path id="path42_fill" d="M 2.51222 0C 2.38196 1.12113 2.64685 2.25054 3.27017 3.23177C 4.30938 4.84765 4.36658 7.04882 3.27017 7.47294C 2.17376 7.89705 0.328924 5.77647 0.409963 3.7704C 0.486137 2.71223 0.347261 1.65051 0 0.636175L 2.51222 0Z"/>
<path id="path43_fill" d="M 0.0758424 1.84874C 0.0758424 1.84874 -0.348422 -0.271841 0.809962 0.0292819C 1.96835 0.330405 8.175 13.1769 8.175 13.1769L 7.61249 13.4526C 7.61249 13.4526 -0.0624009 3.43494 0.0758424 1.84874Z"/>
<path id="path44_fill" d="M 0.222903 1.56069C 1.17631 -1.31482 4.93748 0.169584 3.77433 2.89241C 3.3596 3.8594 2.66838 4.74156 1.74358 4.77125C 0.699605 4.80518 -0.50645 3.81275 0.222903 1.56069Z"/>
<path id="path45_fill" d="M 0.0930851 0.509008C -0.545695 1.24697 2.32405 0.861025 1.99989 1.84073C 1.52319 3.25728 3.0248 1.50992 2.71017 3.22336C 2.58623 3.90618 1.58039 5.39483 2.73878 4.5466C 3.89716 3.69837 4.9173 1.73471 3.73985 0.687137C 2.6339 -0.271367 0.641291 -0.127167 0.0930851 0.509008Z"/>
<path id="path46_fill" d="M 0.266953 0.0507892C 0.266953 0.0507892 2.96985 -0.216404 2.7887 0.474906C 2.60756 1.16622 0 1.00505 0 1.00505L 0.266953 0.0507892Z"/>
<path id="path47_fill" d="M 0.758043 0.1442L 0.00485503 5.28874C -0.056416 6.04654 0.467527 6.74489 1.27765 6.9852L 12.9187 10.429L 14.2535 10.9804C 14.5728 11.1246 17.8192 11.8286 17.1995 10.5563L 13.567 9.45356L 4.7814 5.2336L 5.85398 4.03335L 15.3022 3.82553L 9.97268 10.8404C 9.97268 10.8404 11.9701 13.2367 12.1798 12.8804L 11.6602 10.6029L 18.1004 4.08C 18.485 3.59334 18.548 2.96095 18.2656 2.42171C 17.9832 1.88247 17.3985 1.51856 16.7323 1.46744L 8.79046 0L 0.758043 0.1442Z"/>
<path id="path48_fill" d="M 7.36619 12.9105C 7.36619 12.9105 3.58595 14.4755 0.568431 13.148C -0.270563 12.779 0.0440599 12.1556 0.125099 11.4515C 0.288455 9.87989 0.648202 8.32936 1.19768 6.82864C 2.66592 2.74864 3.48108 0.0427768 4.49168 0.000365102C 5.50229 -0.0420466 6.44139 3.61808 6.91809 7.05767C 7.19533 8.99919 7.34495 10.9534 7.36619 12.9105Z"/>
<path id="path49_fill" d="M 0.858062 0.131476L 3.75641 6.44657L 10.8831 13.0586L 9.99166 13.6057L 3.44655 9.57232L 0 4.04607L 0 0"/>
<path id="path50_fill" d="M 5.27557 0C 5.27557 0 1.53823 6.30662 0.379848 8.33389C -0.869109 10.5011 1.36185 17.5796 1.36185 17.5796L 2.68708 17.1555L 2.36293 9.27543L 5.27557 2.82886L 5.27557 0Z"/>
<path id="path51_fill" d="M 0 2.00788C 0 -0.960938 3.92325 -0.477445 3.66583 2.40655C 3.57526 3.43291 3.18913 4.44231 2.35967 4.69678C 1.39673 4.98942 0 4.33628 0 2.00788Z"/>
<path id="path52_fill" d="M 4.58163 0.751778C 4.35499 1.19349 3.97368 1.55803 3.49475 1.79086C 2.82737 2.01565 2.2601 2.26163 2.06465 2.7324C 1.81101 3.66765 1.90295 4.65072 2.32683 5.53582C 2.87027 6.72334 2.83691 8.28833 1.93594 8.58097C 1.03497 8.87361 0.0958733 7.20259 0.00530005 5.61216C -0.0852732 4.02172 1.01114 2.35918 1.29716 1.29465C 1.64992 0.0222973 3.75217 -0.571466 4.58163 0.730572"/>
<path id="path53_fill" d="M 0 0.511049C 0.342633 0.746086 0.661637 1.00719 0.953402 1.29142C 1.52544 1.83005 0.672149 3.69617 0.476701 4.47654C 0.281254 5.25692 1.21559 5.91006 2.34537 6.89825C 3.20343 7.65317 3.41318 5.88461 2.22143 3.88702C 1.22512 2.22024 2.44548 0.58739 0.743654 0.031797C 0.200215 -0.150573 0 0.511049 0 0.511049Z"/>
<path id="path54_fill" d="M 37.4303 3.54271L 37.4303 70.9957C 37.4303 74.0589 35.3434 77.6187 32.7695 78.9441L 3.97507 94.8632C 3.97507 94.8632 2.83721 94.2248 1.80369 93.7239C 0.77017 93.2229 0 92.0526 0 90.2794L 0 22.8308C 0 19.7676 2.08691 16.2079 4.66077 14.8824L 32.3521 0.616905C 33.694 -0.0864374 35.3258 -0.194516 36.7694 0.324325C 37.8388 0.713474 38.719 1.42811 39.2538 2.34135"/>
<path id="path55_fill" d="M 2.56889 0.312972C 1.04553 1.19884 0.0903025 2.68239 0 4.3027C 0 5.7656 1.1478 6.35519 2.56889 5.63261C 4.09226 4.74674 5.04748 3.26319 5.13778 1.64288C 5.13778 0.175548 3.98998 -0.418478 2.56889 0.312972Z"/>
<path id="path56_fill" d="M 0.576386 0.0741415C 0.237094 0.271033 0.0230809 0.600231 0 0.960748C 0 1.28879 0.25838 1.40405 0.576386 1.25776C 0.915678 1.06087 1.12969 0.731672 1.15277 0.371155C 1.15277 0.0431103 0.894391 -0.0987467 0.576386 0.0741415Z"/>
<path id="path57_fill" d="M 0.576386 3.83389C 0.25838 3.99792 0 3.86492 0 3.53688C 0.0230809 3.17636 0.237094 2.84717 0.576386 2.65027L 5.58995 0.0702499C 5.90795 -0.0937723 6.16633 0.0392187 6.16633 0.367263C 6.14325 0.72778 5.92924 1.05698 5.58995 1.25387L 0.576386 3.83389Z"/>
<path id="path58_fill" d="M 0 77.6534L 0 17.0938L 33.177 0L 33.177 60.5641L 0 77.6534Z"/>
<path id="path59_fill" d="M 0 90.3762L 0 22.9277C 0 19.8644 2.08691 16.3047 4.66077 14.9792L 32.7944 0.500963C 35.3682 -0.828947 37.4551 0.580757 37.4551 3.64398L 37.4551 71.0926C 37.4352 74.1558 35.3483 77.7022 32.7944 79.0321L 4.66574 93.5237C 2.09188 94.8492 0 93.4395 0 90.3762Z"/>
<path id="path60_fill" d="M 26.6364 0.0907646C 26.6364 0.0907646 36.276 -0.352539 36.6635 0.720255C 37.389 2.74172 38.2784 8.24311 36.6635 15.336C 35.0487 22.4288 2.47791 37.674 0.823289 32.8464C -0.409856 29.32 -0.130129 23.3195 0.823289 19.7247C 1.32017 17.5081 9.19579 9.31147 12.2069 7.20578C 12.982 6.66495 15.7894 3.72142 19.3024 1.56696C 22.085 -0.17965 26.6364 0.0907646 26.6364 0.0907646Z"/>
<path id="path61_fill" d="M 11.1605 0.946597C 10.5891 -0.0907323 9.17299 -0.604964 6.06747 1.16382C 1.42657 3.79704 0.696152 6.12881 0.44771 7.81336C -0.0938942 11.4529 -0.138614 14.1304 0.283738 19.8535C 0.909812 28.4004 6.5246 35.2627 6.5246 35.2627C 6.5246 35.2627 11.0959 24.5082 12.1692 16.7504C 13.4959 7.03315 12.686 3.73054 11.1605 0.946597Z"/>
<path id="path62_fill" d="M 8.80702 0C 8.80702 0 8.98093 2.43817 8.98093 6.07325C 8.98093 7.3012 9.34862 7.90853 9.91507 8.09028C 10.9386 8.42276 8.03188 11.0161 9.35359 10.2181C 10.561 9.48669 11.0032 9.97432 5.16486 12.9799C -0.673533 15.9855 1.47301 14.2256 1.47301 14.2256C 1.47301 14.2256 -0.832536 14.9349 0.325204 12.9578C 1.10034 11.6278 1.22953 10.4088 1.2196 8.22771C 1.20966 6.04665 1.12022 3.95426 1.12022 3.95426L 8.80702 0Z"/>
<path id="path63_fill" d="M 0.0596261 9.2606C 0.0596261 9.2606 1.36146 10.5595 4.7999 9.52215C 5.92158 9.16813 6.96077 8.63319 7.86568 7.94399L 7.81102 0L 0 5.93583L 0.0596261 9.2606Z"/>
<path id="path64_fill" d="M 2.90304 1.48409C 3.1167 2.76524 2.78379 5.55805 0.334153 7.216C -0.386329 7.70363 0.26459 5.16351 0.383842 3.66958C 0.542845 1.69244 0.532907 0.792539 1.37761 0.225111C 2.22231 -0.342317 2.66951 0.194079 2.90304 1.48409Z"/>
<path id="path65_fill" d="M 0.0866292 2.93792C 0.300289 4.21907 1.39343 6.04105 3.84307 4.38753C 4.56356 3.89989 3.47538 2.57442 2.95862 1.51935C 2.28783 0.153981 1.86051 -0.355818 0.971083 0.25594C -0.127031 0.996257 -0.0723737 1.97152 0.0866292 2.93792Z"/>
<path id="path66_fill" d="M 7.3068 1.93387C 12.1365 -1.3377 16.519 -0.610687 17.4929 5.28524C 17.6594 6.51341 17.7391 7.74972 17.7314 8.98682C 17.642 13.012 17.7016 14.8783 16.206 17.9415C 14.9439 20.526 13.17 22.9553 11.0285 24.4049C 8.88689 25.8545 6.75029 26.0717 4.97144 25.5486C 2.85968 24.9236 2.35286 23.3631 1.08581 20.2556C 0.685738 19.1971 0.380032 18.1121 0.171541 17.0106C -0.802352 11.1191 2.47708 5.20545 7.3068 1.93387Z"/>
<path id="path67_fill" d="M 4.75696 7.58883C 4.45882 6.99481 5.4029 5.40335 6.09357 4.6852C 9.70592 0.912688 13.681 -0.191136 16.2648 0.0260825C 18.0685 0.181239 20.7367 1.58651 20.9305 3.43065C 21.1293 5.49644 19.9715 6.73769 18.7244 7.76616C 16.8339 9.34082 14.6984 10.6637 12.3841 11.6938C 9.25873 13.0592 5.92463 14.1231 3.98182 13.9768C 3.98182 13.9768 2.98805 16.2643 3.30605 21.4642C 3.33587 21.9341 1.34336 20.3471 1.1297 20.0279C -0.0181011 18.3035 -0.28145 15.9407 0.294936 13.8217C 0.667599 12.443 1.68621 9.44627 4.76689 7.61543"/>
<path id="path68_fill" d="M 0 0C 0 0 0.00496884 0.00886606 0 0L 0 0Z"/>
<path id="path69_fill" d="M 9.74887 3.09789C 9.74887 5.87296 7.56755 9.2465 4.87443 10.634C 2.18132 12.0216 0 10.8956 0 8.12051C 0 5.34543 2.15648 1.94973 4.87443 0.584357C 7.59239 -0.781016 9.74887 0.322809 9.74887 3.09789Z"/>
<path id="path70_fill" d="M 0 8.28891e-05C 0 8.28891e-05 2.87199 -0.0531135 2.48442 2.53578C 2.30614 3.94456 1.97329 5.33433 1.49065 6.68509L 0 8.28891e-05Z"/>
<path id="path71_fill" d="M 1.07327 0C 1.44104 0.74955 2.13274 1.33468 2.99124 1.62249C 3.75904 1.912 4.61068 1.97415 5.42101 1.79981C 5.42101 1.79981 4.8645 5.23541 2.89683 5.9181C 0.606199 6.71604 0 2.81498 0 2.81498L 1.07327 0Z"/>
<path id="path72_fill" d="M 4.34774 0C 3.91076 1.27765 3.26444 2.49064 2.42976 3.59962C 1.75939 4.58081 0.94191 5.47569 0 6.25944C 0 6.25944 0.55651 9.11875 2.52417 7.77997C 4.81481 6.21954 5.42101 1.68898 5.42101 1.68898L 4.34774 0Z"/>
<path id="path73_fill" d="M 8.78491 2.79685C 8.78491 5.29708 6.79737 8.33371 4.39246 9.58382C 1.98754 10.8339 0 9.81877 0 7.32298C 0 4.82718 1.98754 1.78612 4.39246 0.536006C 6.79737 -0.714109 8.78491 0.296622 8.78491 2.79685Z"/>
<path id="path74_stroke" d="M 5.68435 1.8108L 6.3082 1.84873L 6.30935 1.82978L 6.30935 1.8108L 5.68435 1.8108ZM 2.84218 6.20394L 3.12782 6.75984L 3.1424 6.75236L 3.15655 6.74412L 2.84218 6.20394ZM 0 4.74104L -0.623848 4.70312L -0.625 4.72206L -0.625 4.74104L 0 4.74104ZM 2.84218 0.347904L 2.55529 -0.207362L 2.54136 -0.200163L 2.5278 -0.192274L 2.84218 0.347904ZM 5.06051 1.77288C 4.96593 3.32871 4.04351 4.78164 2.5278 5.66376L 3.15655 6.74412C 4.99686 5.67308 6.18579 3.86251 6.3082 1.84873L 5.06051 1.77288ZM 2.55653 5.64803C 1.87943 5.99595 1.39188 5.96671 1.11798 5.82594C 0.867579 5.69724 0.625 5.38563 0.625 4.74104L -0.625 4.74104C -0.625 5.7145 -0.231568 6.53775 0.546579 6.93769C 1.30123 7.32555 2.23477 7.21874 3.12782 6.75984L 2.55653 5.64803ZM 0.623848 4.77896C 0.718422 3.22313 1.64084 1.7702 3.15655 0.888083L 2.5278 -0.192274C 0.687491 0.87876 -0.501438 2.68933 -0.623848 4.70312L 0.623848 4.77896ZM 3.12906 0.903171C 3.80564 0.553608 4.29251 0.583191 4.5659 0.724C 4.81654 0.85309 5.05935 1.16594 5.05935 1.8108L 6.30935 1.8108C 6.30935 0.837611 5.91616 0.0133901 5.13825 -0.387267C 4.38309 -0.776206 3.44887 -0.669045 2.55529 -0.207362L 3.12906 0.903171Z"/>
<path id="path75_stroke" d="M 5.68435 1.81239L 6.3082 1.85031L 6.30935 1.83137L 6.30935 1.81239L 5.68435 1.81239ZM 2.84218 6.20552L 3.12782 6.76143L 3.1424 6.75394L 3.15655 6.7457L 2.84218 6.20552ZM 0 4.74262L -0.623883 4.70527L -0.625 4.72393L -0.625 4.74262L 0 4.74262ZM 2.84218 0.345054L 2.55653 -0.210851L 2.54195 -0.203357L 2.52777 -0.195109L 2.84218 0.345054ZM 5.06051 1.77447C 4.96593 3.3303 4.04351 4.78322 2.5278 5.66534L 3.15655 6.7457C 4.99686 5.67467 6.18579 3.86409 6.3082 1.85031L 5.06051 1.77447ZM 2.55653 5.64962C 1.87943 5.99754 1.39188 5.9683 1.11798 5.82752C 0.867579 5.69882 0.625 5.38721 0.625 4.74262L -0.625 4.74262C -0.625 5.71609 -0.231568 6.53933 0.546579 6.93927C 1.30123 7.32714 2.23477 7.22032 3.12782 6.76143L 2.55653 5.64962ZM 0.623883 4.77997C 0.717103 3.22278 1.63964 1.76816 3.15658 0.885216L 2.52777 -0.195109C 0.68596 0.876924 -0.50322 2.68966 -0.623883 4.70527L 0.623883 4.77997ZM 3.12782 0.900959C 3.80426 0.553379 4.29143 0.58337 4.56543 0.724785C 4.81662 0.85443 5.05935 1.1677 5.05935 1.81239L 6.30935 1.81239C 6.30935 0.839021 5.91608 0.0152159 5.13872 -0.385995C 4.38417 -0.775436 3.45025 -0.670083 2.55653 -0.210851L 3.12782 0.900959Z"/>
<path id="path76_stroke" d="M 0.352901 2.1355L 0.628226 2.6966L 0.630458 2.69549L 0.352901 2.1355ZM 1.24729 1.6922L 1.52485 2.25219L 1.55603 2.23673L 1.58531 2.21791L 1.24729 1.6922ZM 1.60008 1.08931L 2.22508 1.10049L 2.22508 1.08931L 1.60008 1.08931ZM 1.24729 0.0386811L 1.52485 0.59867L 1.53162 0.595313L 1.53831 0.591793L 1.24729 0.0386811ZM 0.352901 0.481984L 0.075344 -0.0780042L 0.0441611 -0.0625485L 0.014887 -0.0437262L 0.352901 0.481984ZM 0.000113364 1.08488L -0.624887 1.0737L -0.624887 1.08488L 0.000113364 1.08488ZM 0.000113364 1.89612L 0.625113 1.90959L 0.625113 1.89612L 0.000113364 1.89612ZM 0.630458 2.69549L 1.52485 2.25219L 0.969735 1.13221L 0.075344 1.57552L 0.630458 2.69549ZM 1.58531 2.21791C 1.9617 1.97591 2.21662 1.5678 2.22498 1.10048L 0.97518 1.07814C 0.974975 1.08961 0.968315 1.12853 0.909278 1.16649L 1.58531 2.21791ZM 2.22508 1.08931L 2.22508 0.278065L 0.97508 0.278065L 0.97508 1.08931L 2.22508 1.08931ZM 2.22508 0.278065C 2.22508 0.0337528 2.13982 -0.287503 1.84625 -0.48585C 1.5375 -0.694444 1.19206 -0.63849 0.956273 -0.514431L 1.53831 0.591793C 1.49631 0.613892 1.32726 0.672063 1.14646 0.549913C 0.980835 0.43801 0.97508 0.287426 0.97508 0.278065L 2.22508 0.278065ZM 0.969735 -0.521307L 0.075344 -0.0780042L 0.630458 1.04197L 1.52485 0.59867L 0.969735 -0.521307ZM 0.014887 -0.0437262C -0.361504 0.198281 -0.616431 0.606389 -0.624787 1.0737L 0.625013 1.09605C 0.625219 1.08458 0.631878 1.04565 0.690915 1.00769L 0.014887 -0.0437262ZM -0.624887 1.08488L -0.624887 1.89612L 0.625113 1.89612L 0.625113 1.08488L -0.624887 1.08488ZM -0.624741 1.88265C -0.630123 2.1323 -0.545825 2.4567 -0.24978 2.65671C 0.0538074 2.86182 0.394056 2.8115 0.628223 2.6966L 0.0775788 1.57441C 0.112993 1.55704 0.274363 1.50228 0.450003 1.62095C 0.6181 1.73452 0.625381 1.89046 0.624968 1.90959L -0.624741 1.88265Z"/>
<path id="path77_stroke" d="M 0.352788 2.1355L 0.0752306 1.57552L 0.0684579 1.57887L 0.0617684 1.58239L 0.352788 2.1355ZM 1.24718 1.6922L 1.52474 2.25219L 1.55592 2.23673L 1.58519 2.21791L 1.24718 1.6922ZM 1.59997 1.08931L 2.22497 1.10049L 2.22497 1.08931L 1.59997 1.08931ZM 1.24718 0.0386811L 1.52474 0.59867L 1.53151 0.595313L 1.5382 0.591793L 1.24718 0.0386811ZM 0.352788 0.481984L 0.0752307 -0.0780042L 0.0440478 -0.0625485L 0.0147736 -0.0437262L 0.352788 0.481984ZM 0 1.08488L -0.625 1.0737L -0.625 1.08488L 0 1.08488ZM 0 1.89612L -0.625 1.89612L 0 1.89612ZM 0.630345 2.69549L 1.52474 2.25219L 0.969622 1.13221L 0.0752306 1.57552L 0.630345 2.69549ZM 1.58519 2.21791C 1.96158 1.97591 2.21651 1.5678 2.22487 1.10048L 0.975067 1.07814C 0.974862 1.08961 0.968202 1.12853 0.909165 1.16649L 1.58519 2.21791ZM 2.22497 1.08931L 2.22497 0.278065L 0.974967 0.278065L 0.974967 1.08931L 2.22497 1.08931ZM 2.22497 0.278065C 2.22497 0.0337528 2.13971 -0.287503 1.84613 -0.48585C 1.53739 -0.694444 1.19195 -0.63849 0.95616 -0.514431L 1.5382 0.591793C 1.4962 0.613892 1.32715 0.672063 1.14635 0.549913C 0.980722 0.43801 0.974967 0.287426 0.974967 0.278065L 2.22497 0.278065ZM 0.969622 -0.521307L 0.0752307 -0.0780042L 0.630345 1.04197L 1.52474 0.59867L 0.969622 -0.521307ZM 0.0147736 -0.0437262C -0.361618 0.198281 -0.616544 0.606389 -0.6249 1.0737L 0.6249 1.09605C 0.625105 1.08458 0.631765 1.04565 0.690802 1.00769L 0.0147736 -0.0437262ZM -0.625 1.08488L -0.625 1.89612L 0.625 1.89612L 0.625 1.08488L -0.625 1.08488ZM -0.625 1.89612C -0.625 2.14043 -0.539743 2.46169 -0.246167 2.66004C 0.0625773 2.86863 0.408021 2.81268 0.643807 2.68862L 0.0617684 1.58239C 0.10377 1.56029 0.27282 1.50212 0.453616 1.62427C 0.619245 1.73618 0.625 1.88676 0.625 1.89612L -0.625 1.89612Z"/>
<path id="path78_fill" d="M 1.75524 6.02462C 1.52423 6.24638 1.25603 6.43481 0.960229 6.58318C 0.825513 6.65475 0.657686 6.65475 0.522971 6.58318L 0.130432 6.37483C -0.0434774 6.28617 -0.0434774 6.06008 0.130432 5.7941L 0.453407 5.2976C 0.557752 5.13358 0.657129 4.97399 0.761475 4.81884C 0.945322 4.53512 1.15898 4.4243 1.34283 4.51739C 1.52668 4.61048 1.60618 4.65038 1.7304 4.72131C 1.76518 4.72131 1.79003 4.72131 1.83474 4.69028C 2.0459 4.48657 2.23708 4.26707 2.40616 4.03419C 2.7591 3.56399 3.06187 3.06531 3.31049 2.54469C 3.36018 2.43387 3.39993 2.32304 3.44465 2.20778C 3.48937 2.09252 3.44465 2.12355 3.44465 2.10582L 3.04217 1.90633C 2.86826 1.81767 2.86826 1.59159 3.04217 1.32561C 3.21608 1.05963 3.46452 0.669519 3.67818 0.337041C 3.89184 0.00456396 4.07569 -0.0530654 4.25457 0.0400282C 4.37297 0.107089 4.49575 0.167781 4.62226 0.221783C 4.80611 0.297144 4.86574 0.478898 4.8558 0.731581C 4.82235 1.12427 4.72701 1.5108 4.57258 1.87974C 4.23239 2.76805 3.77008 3.61531 3.19621 4.40213C 2.78273 4.98765 2.29961 5.53163 1.75524 6.02462Z"/>
<path id="path79_fill" d="M 3.55769 1.75548L 1.66456 26.1239L 0 26.4563L 2.92665 27.7907L 7.29426 8.38286L 10.1861 21.5667L 8.78988 21.7883L 12.0544 22.675L 11.3041 0L 3.55769 1.75548Z"/>
<path id="path80_fill" d="M 7.73835 11.8647C 7.73835 11.8647 3.43534 15.3402 0.593161 14.2896C -0.191916 14.0058 -0.00806931 13.0926 0.0962764 12.3257C 0.225466 11.2352 0.950917 10.0072 1.76581 7.6533C 3.41049 2.92769 7.57438 -0.707394 8.72219 0.11715C 9.86999 0.941693 8.84144 1.65541 8.26505 4.93142C 7.84409 7.22244 7.66773 9.54394 7.73835 11.8647Z"/>
<path id="path81_fill" d="M 9.82393 4.37984C 9.82393 4.37984 10.4699 5.54572 9.45126 6.21511C 8.43265 6.8845 4.75074 9.99205 1.78434 9.90783C -2.71743 9.7837 2.71848 0 2.71848 0L 3.74703 0L 2.37066 7.28347C 2.37066 7.28347 8.39787 3.29374 9.82393 4.37984Z"/>
<path id="path82_fill" d="M 0.893042 1.04948C 2.91536 -1.50395 6.07057 1.11597 3.87435 3.44775C 3.09424 4.27672 2.07563 4.93724 1.15142 4.68456C 0.112934 4.39642 -0.692018 3.04877 0.893042 1.04948Z"/>
<path id="path83_fill" d="M 1.37994 1.00513C 1.37994 1.00513 2.97494 2.21092 1.92154 3.4034C 0.86815 4.59589 -0.791443 7.44633 0.430892 9.41016C 1.65323 11.374 4.00349 10.2746 4.63453 8.47922C 5.26557 6.68385 5.6283 1.76761 3.31282 0.566263C 0.99734 -0.635088 0.768773 0.349045 1.37994 1.00513Z"/>
<path id="path84_fill" d="M 8.0694 0L 9.99234 25.5476L 9.56005 26.0396C 9.47272 26.1496 9.33405 26.2181 9.18324 26.2259C 9.03242 26.2337 8.88584 26.1798 8.78491 26.0795L 8.28803 25.6362L 4.50177 8.60895L 1.49562 25.6274L 1.15277 25.9421C 1.02359 26.0617 0.837187 26.1177 0.653218 26.0921C 0.469249 26.0665 0.310791 25.9626 0.228567 25.8135L 0 25.4146L 0.621105 1.12156L 8.0694 0Z"/>
<path id="path85_fill" d="M 0 14.9572C 0 14.9572 4.14898 17.023 6.88184 14.7932C 7.63214 14.1814 7.45326 13.2682 7.37873 12.4747C 7.20696 10.7679 6.82368 9.08345 6.2359 7.45206C 4.63593 2.99686 3.75148 0.0267315 2.64839 0.000133294C 1.54531 -0.0264649 0.998737 3.93223 0.501853 7.70474C 0.278255 9.28733 0 12.4835 0 14.9572Z"/>
<path id="path86_fill" d="M 4.67841 0.0132991C 4.67841 0.0132991 1.30457 5.37727 0.181608 8.13461C -0.812161 10.6127 2.59646 14.1591 2.59646 14.1591L 3.89333 14.3231L 1.95548 9.44679L 4.68338 4.87633L 4.68338 0"/>
<path id="path87_fill" d="M 0 0.0221652C 0 0.0221652 4.69556 5.55902 5.96261 7.75337C 7.3191 10.1162 3.97507 14.0217 3.97507 14.0217L 3.47819 13.503L 4.55146 8.42276L 0.00993768 3.10312L 0.00993768 0"/>
<path id="path88_fill" d="M 3.98951 2.19601C 3.98951 -1.0534 -0.278723 -0.521441 0.0144388 2.63931C 0.113816 3.76087 0.511323 4.85583 1.43553 5.14397C 2.45414 5.42769 3.98951 4.7184 3.98951 2.19601Z"/>
<path id="path89_fill" d="M 3.55769 1.75548L 1.65959 26.1239L 0 26.4563L 2.92665 27.7907L 7.28929 8.38286L 10.1812 21.5623L 8.78491 21.7883L 12.0494 22.675L 11.3041 0L 3.55769 1.75548Z"/>
<path id="path90_fill" d="M 7.74332 12.8975C 7.74332 12.8975 3.44031 16.3686 0.593161 15.3313C -0.191916 15.0475 -0.00806931 14.1343 0.0962764 13.3674C 0.225466 12.2769 0.304968 10.2022 0.6826 7.76408C 1.76581 0.821949 3.02789 -0.117854 4.49867 0.0107043C 5.96945 0.139262 6.42658 2.62176 7.0775 5.88447C 7.52878 8.2003 7.75158 10.547 7.74332 12.8975Z"/>
<path id="path91_fill" d="M 0.00143803 2.08101C 0.066033 -1.04428 4.32433 -0.459119 3.97651 2.56864C 3.85229 3.64587 3.42497 4.70093 2.48586 4.95361C 1.46228 5.24176 -0.0532192 4.52804 0.00143803 2.08101Z"/>
<path id="path92_fill" d="M 0.737217 2.42069C 0.737217 2.42069 2.81419 2.61574 2.69494 4.13184C 2.57569 5.64793 2.92848 6.34835 3.66386 5.98928C 4.65763 5.51494 5.88494 3.95008 5.54209 2.09707C 5.38141 1.39816 4.90871 0.78774 4.23284 0.406379C 3.55698 0.0250191 2.73621 -0.094404 1.95955 0.0756122C -0.678903 0.603143 -0.182019 2.1946 0.737217 2.42069Z"/>
<path id="path93_fill" d="M 9.72402 0C 8.56094 2.89529 6.82591 5.58128 4.60115 7.93069C 1.36146 11.2643 0 11.4771 0 11.4771L 0.417383 12.2219C 2.45863 11.357 4.40778 10.3287 6.24086 9.14978C 9.78862 6.8845 10.9265 4.53056 10.9265 4.53056L 9.72402 0Z"/>
<path id="path94_fill" d="M 2.70477 20.5455L 18.7664 12.2736C 19.918 11.6051 20.6426 10.4876 20.7168 9.26516L 20.7168 1.23791L 21.5897 0.758102L 20.1565 0L 20.1241 0L 20.0918 0L 20.0541 0L 20.0218 0L 19.9841 0L 19.9463 0L 19.9086 0L 19.8709 0L 19.4506 0L 19.4022 0L 19.359 0L 19.3106 0L 19.2675 0L 19.2136 0L 19.1705 0L 19.1166 0L 19.0735 0L 19.0142 0L 18.9765 0L 18.9172 0.0287887L 18.8795 0.0287887L 18.7771 0.0767698L 1.94506 8.71338C 0.991179 9.27114 0.320153 10.1391 0.0754319 11.1316C 0.0385652 11.2737 0.0133547 11.4181 0 11.5635C 0 11.6338 0 11.7042 0 11.7746L 0.010776 11.7746L 0.010776 23.338C -0.00374258 23.4583 0.0534864 23.5766 0.16164 23.6499L 1.62717 24.4368L 2.70477 20.5455Z"/>
<path id="path95_fill" d="M 18.0245 7.94867L 19.781 8.85072C 20.1259 9.02825 20.7185 8.47167 20.7185 7.96787L 20.7185 1.35607L 21.5914 0.876254L 20.1797 0.118152C 19.7278 -0.0737152 19.1941 -0.0295046 18.7896 0.233307L 1.95756 8.86991C 0.805898 9.53837 0.081352 10.6559 0.00710646 11.8783L 0.00710646 15.2034C -0.0415922 15.6311 0.162375 16.0507 0.545905 16.3118L 2.0276 17.0891L 2.5664 16.1295"/>
<path id="path96_fill" d="M 1.94506 8.87305L 18.7771 0.236447C 19.8547 -0.315337 20.7276 0.130888 20.7276 1.23925L 20.7276 9.39605C 20.6462 10.6089 19.9248 11.7159 18.7825 12.3805L 2.68861 20.6476L 0.932122 23.3538C 0.587291 23.8959 0 23.9391 0 23.4161L 0 11.9007C 0.0662776 10.6723 0.789507 9.5465 1.94506 8.87305Z"/>
<path id="path97_fill" d="M 1.95045 8.87305L 18.7825 0.236447C 19.8601 -0.315337 20.733 0.130888 20.733 1.23925L 20.733 7.95661C 20.733 8.43642 20.1403 9.017 19.7955 8.83947L 18.039 7.93742L 1.95045 16.2046C 0.872854 16.7564 0 16.3101 0 15.2018L 0 11.8815C 0.0742455 10.6591 0.798791 9.54151 1.95045 8.87305Z"/>
<path id="path98_fill" d="M 18.0461 7.93428L 19.8026 8.83633C 20.1474 9.01386 20.7401 8.45727 20.7401 7.95347L 20.7401 1.35607L 21.6129 0.876254L 20.2013 0.118152C 19.7493 -0.0737152 19.2156 -0.0295046 18.8112 0.233307L 1.95756 8.8939C 0.805898 9.56236 0.081352 10.6799 0.00710646 11.9023L 0.00710646 15.2274C -0.0415922 15.6551 0.162375 16.0747 0.545905 16.3358L 2.0276 17.1131L 2.5664 16.1535"/>
<path id="path99_fill" d="M 1.07221 1.90965C 1.66438 1.90965 2.14442 1.48216 2.14442 0.954825C 2.14442 0.42749 1.66438 0 1.07221 0C 0.480045 0 0 0.42749 0 0.954825C 0 1.48216 0.480045 1.90965 1.07221 1.90965Z"/>
<path id="path100_fill" d="M 0 0.945228L 0 0L 1.54635 0.796487L 1.54635 1.74172L 0 0.945228Z"/>
<path id="path101_fill" d="M 0 11.9953L 0 0L 1.26618 0L 1.26618 11.9953C 1.2566 12.096 1.18648 12.1841 1.08299 12.2256C 0.801997 12.3529 0.469568 12.3529 0.18858 12.2256C 0.0829915 12.1855 0.0105901 12.0971 3.8284e-15 11.9953L 0 11.9953Z"/>
<path id="path102_fill" d="M 0 11.9953L 0 0L 1.26618 0L 1.26618 11.9953C 1.2566 12.096 1.18648 12.1841 1.08299 12.2256C 0.801997 12.3529 0.469568 12.3529 0.18858 12.2256C 0.0829915 12.1855 0.0105901 12.0971 0 11.9953Z"/>
<path id="path103_fill" d="M 0 11.9953L 0 0L 1.2554 0L 1.2554 11.9953C 1.24582 12.096 1.1757 12.1841 1.07221 12.2256C 0.791221 12.3529 0.458793 12.3529 0.177804 12.2256C 0.0764051 12.1828 0.0085419 12.0949 0 11.9953Z"/>
<path id="path104_fill" d="M 7.68866 0.295651C 8.76473 -0.138629 10.0084 -0.0923351 11.04 0.420402L 18.5024 3.92303L 18.5024 4.72431C 18.5273 5.0817 18.2993 5.41503 17.9312 5.55918L 10.7975 9.22494C 9.72147 9.65922 8.47781 9.61293 7.4462 9.10019L 0.765095 5.69353C 0.334733 5.48771 0.0478242 5.10446 0 4.67153L 0 3.82226L 0.797423 4.61395"/>
<path id="path105_fill" d="M 17.9455 5.55438L 10.8172 9.22014C 9.73899 9.65914 8.49044 9.6146 7.45511 9.10019L 0.811721 5.68393C -0.179669 5.17533 -0.265877 4.40284 0.569261 3.96141L 7.69757 0.295651C 8.77364 -0.138629 10.0173 -0.0923351 11.0489 0.420402L 17.6923 3.82226C 18.6945 4.34046 18.8022 5.11296 17.9455 5.55438Z"/>
<path id="path106_fill" d="M 0 0.638302L 1.10993 0.0865192C 1.40958 -0.0482143 1.76837 -0.0242055 2.04205 0.148895L 8.4322 3.4356C 9.26453 3.95769 9.75909 4.80809 9.75765 5.71471L 9.51519 15.3109C 9.55801 15.6895 9.36335 16.0583 9.00872 16.2706L 7.93112 16.8031L 0.889018 2.1593"/>
<path id="path107_fill" d="M 7.69405 16.1639L 1.32545 12.8772C 0.493127 12.3551 -0.00144042 11.5047 3.15146e-06 10.5981L 0.242463 1.00185C 0.258627 0.157385 0.889021 -0.245657 1.6164 0.157385L 7.985 3.44409C 8.81733 3.96618 9.31189 4.81658 9.31045 5.7232L 9.06799 15.3194C 9.07338 16.1639 8.44837 16.5525 7.69405 16.1639Z"/>
<path id="path108_fill" d="M 17.7858 0.239906L 17.748 0.921238C 17.6511 2.74452 17.2577 3.96804 15.706 5.16277L 10.8999 8.52145L 13.0282 21.6827L 9.85463 23.1221L 11.3309 21.1405L 7.28995 7.52824L 10.8029 4.27032L 4.54746 7.48506L 3.53991 16.5199L 0 17.4795L 1.73493 16.0401L 2.02588 5.64258L 9.81153 0L 17.7858 0.239906Z"/>
<path id="path109_fill" d="M 0.996778 13.3963C 1.53558 13.3963 1.99356 13.2572 1.99356 12.7678L 1.99356 0L 0 0L 0 12.7774C 0 13.2572 0.447203 13.3963 0.996778 13.3963Z"/>
<path id="path110_fill" d="M 7.92776 15.424C 7.92776 15.424 3.73052 15.424 0.643197 14.3252C -0.208106 14.0181 -0.00875001 13.5095 0.104398 12.6795C 0.244486 11.4991 0.643197 11.2832 1.04191 8.64906C 1.8986 3.37113 3.8706 -0.467357 5.3523 0.0460409C 6.834 0.559439 7.37818 0.199581 8.0894 3.73099C 8.46656 5.41033 8.50966 11.2736 7.92776 15.424Z"/>
<path id="path111_fill" d="M 0.25194 1.76564C 1.32954 -1.48749 5.58066 0.191854 4.26599 3.27224C 3.79724 4.36621 3.01598 5.36422 1.97071 5.39781C 0.790739 5.43619 -0.572423 4.31343 0.25194 1.76564Z"/>
<path id="path112_fill" d="M 0.09186 0.57585C -0.630131 1.41072 3.15224 0.974094 2.78586 2.08246C 2.24706 3.68503 3.94427 1.70821 3.58867 3.64664C 3.44858 4.41914 2.31171 5.62347 3.62099 4.66384C 4.93027 3.70422 5.54451 1.96251 4.21367 0.777371C 2.96905 -0.307003 0.716867 -0.143867 0.09186 0.57585Z"/>
<path id="path113_fill" d="M 0 0.911642C 0 2.31269 1.03988 3.71374 3.11965 4.77892C 7.27379 6.91408 14.0142 6.91408 18.1683 4.77892C 20.2481 3.70894 21.2879 2.30789 21.2879 0.911642L 21.2879 0L 0 0L 0 0.911642Z"/>
<path id="path114_fill" d="M 18.1643 1.60497C 22.3184 3.74013 22.3184 7.20437 18.1643 9.34433C 14.0101 11.4843 7.26975 11.4795 3.11561 9.34433C -1.03854 7.20917 -1.03854 3.74493 3.11561 1.60497C 7.26975 -0.53499 14.0263 -0.53499 18.1643 1.60497Z"/>
<path id="path115_fill" d="M 13.9515 1.22353C 17.1412 2.86448 17.1412 5.54183 13.9515 7.1636C 10.7618 8.78536 5.58937 8.80455 2.39429 7.1636C -0.80079 5.52264 -0.795402 2.84529 2.39429 1.22353C 5.58398 -0.398233 10.7564 -0.417425 13.9515 1.22353Z"/>
<path id="path116_fill" d="M 3.96556 0L 1.36855 14.1304L 3.16814 14.4903L 0 15.9345L 0.253236 1.30029"/>
<path id="path117_fill" d="M 3.8147 0L 1.37394 13.2908L 3.17353 13.6506L 0 15.0949L 0.247848 1.11316"/>
<path id="path118_fill" d="M 0 11.9953L 0 0L 1.26618 0L 1.26618 11.9953C 1.2566 12.096 1.18648 12.1841 1.08299 12.2256C 0.801997 12.3529 0.469568 12.3529 0.18858 12.2256C 0.0829915 12.1855 0.0105901 12.0971 1.9142e-15 11.9953L 0 11.9953Z"/>
<path id="path119_fill" d="M 0 11.9953L 0 0L 1.26618 0L 1.26618 11.9953C 1.2566 12.096 1.18648 12.1841 1.08299 12.2256C 0.801997 12.3529 0.469568 12.3529 0.18858 12.2256C 0.0829915 12.1855 0.0105901 12.0971 9.57099e-16 11.9953L 0 11.9953Z"/>
<path id="path120_fill" d="M 0 11.9953L 0 0L 1.23924 0L 1.23924 11.9953C 1.22966 12.096 1.15954 12.1841 1.05605 12.2256C 0.775057 12.3529 0.442629 12.3529 0.16164 12.2256C 0.0664954 12.179 0.00530036 12.0918 0 11.9953Z"/>
<path id="path121_fill" d="M 0 11.9953L 0 0L 1.26079 0L 1.26079 11.9953C 1.25121 12.096 1.18109 12.1841 1.0776 12.2256C 0.796609 12.3529 0.46418 12.3529 0.183192 12.2256C 0.0797 12.1841 0.00957746 12.096 1.9142e-15 11.9953L 0 11.9953Z"/>
<path id="path122_fill" d="M 7.68866 0.295651C 8.76473 -0.138629 10.0084 -0.0923351 11.04 0.420402L 18.5024 3.92303L 18.5024 4.72431C 18.5273 5.0817 18.2993 5.41503 17.9312 5.55918L 10.7975 9.22014C 9.72147 9.65442 8.47781 9.60813 7.4462 9.09539L 0.765095 5.68873C 0.334733 5.48291 0.0478242 5.09966 0 4.66673L 0 3.81747L 0.797423 4.60916"/>
<path id="path123_fill" d="M 17.9348 5.55918L 10.8064 9.22494C 9.73038 9.65922 8.48672 9.61293 7.45511 9.10019L 0.811721 5.68393C -0.179669 5.17533 -0.265877 4.40284 0.569261 3.96141L 7.69757 0.295651C 8.77364 -0.138629 10.0173 -0.0923351 11.0489 0.420402L 17.6923 3.83666C 18.6837 4.34526 18.7914 5.11776 17.9348 5.55918Z"/>
<path id="path124_fill" d="M 1.28773 0L 10.1133 4.69735L 16.5196 2.62457C 16.7899 2.53624 17.0783 2.50026 17.3655 2.51901C 19.9086 2.69654 19.1866 5.02842 19.1866 5.02842L 15.609 6.66458L 10.221 8.86691C 8.72112 9.59034 6.9066 9.56671 5.43109 8.80454L 0 6.01204L 1.28773 0.00479811"/>
<path id="path125_fill" d="M 1.28234 0.00479811L 7.90418 4.17436L 16.8698 2.50941C 19.9948 2.40865 19.1866 5.02363 19.1866 5.02363L 15.609 6.65978L 8.23285 9.78815C 6.73295 10.5116 4.91843 10.4879 3.44293 9.72578L 0 6.00724L 1.28773 0"/>
<path id="path126_fill" d="M 1.67911 0.00268275C 1.67911 0.00268275 0.267455 -0.102876 0.0249951 1.01029C -0.217464 2.12345 1.27501 3.79799 5.77398 5.26142C 8.41989 6.13599 11.2284 6.55446 14.0499 6.49453L 13.6297 5.62607C 11.8342 5.26072 10.0836 4.73839 8.40332 4.06669C 4.74487 2.55528 3.32244 0.789573 1.67911 0.00268275Z"/>
<path id="path127_fill" d="M 0 12.736C 0 12.736 2.04205 18.7624 5.28562 18.0715C 6.18002 17.8795 8.28134 17.1742 8.32983 16.3393C 8.39449 15.1542 7.64017 11.7619 7.20374 9.14217C 6.32011 3.86425 2.52697 -0.655574 1.15303 0.078537C -0.220908 0.812649 0.738155 1.7051 0.754319 5.29409C 0.766009 7.79031 0.513452 10.282 5.7426e-15 12.736L 0 12.736Z"/>
<path id="path128_fill" d="M 1.92627 0.000844199C 1.92627 0.000844199 0.347587 -0.0711275 0.040472 1.11401C -0.266643 2.29914 1.11807 4.51587 6.12351 5.94571C 11.129 7.37555 17.2228 6.31516 17.2228 6.31516L 16.781 5.40352C 16.781 5.40352 11.6247 5.36993 9.11385 4.60703C 4.97587 3.34513 3.74202 0.797331 1.92627 0.000844199Z"/>
<path id="path129_fill" d="M 4.31171 2.03412C 3.77291 -1.32456 -0.715284 -0.192205 0.0983021 3.01773C 0.389254 4.15968 1.00348 5.24406 2.03259 5.41679C 3.19101 5.59912 4.7212 4.65869 4.31171 2.03412Z"/>
<path id="path130_fill" d="M 7.33108 1.27715C 7.33108 1.27715 5.122 1.72817 5.47761 3.34513C 5.83322 4.9621 5.8386 8.43593 3.59181 9.7938C 1.34502 11.1517 -0.336033 9.04529 0.0572906 7.04448C 0.450614 5.04367 2.81055 0.135195 5.73623 0.0104445C 8.66191 -0.114307 8.27936 0.91249 7.33108 1.27715Z"/>
<path id="path131_fill" d="M 0 0.754881L 1.27695 0.0831449C 1.57145 -0.0509711 1.92652 -0.021035 2.18752 0.159915L 8.89018 3.61456C 9.78316 4.16632 10.3799 5.02255 10.5389 5.98003L 11.832 15.8737C 11.8967 16.3535 11.762 16.7086 11.4926 16.8334L 10.2587 17.4859L 1.13148 2.33346"/>
<path id="path132_fill" d="M 9.67675 16.7597L 2.97409 13.3243C 2.07226 12.7648 1.47441 11.8949 1.32536 10.9252L 0.0160834 1.04589C -0.102452 0.148648 0.447123 -0.249596 1.23916 0.163042L 7.94182 3.61768C 8.83479 4.16945 9.43158 5.02567 9.59054 5.98315L 10.8837 15.8769C 11.0184 16.7693 10.4688 17.1628 9.67675 16.7597Z"/>
<path id="path133_fill" d="M 4.46126 2.97886C 4.46126 2.97886 4.33733 -0.33664 5.64123 0.0280168C 6.94512 0.392674 8.62078 5.36832 6.57874 9.67702C 5.38894 12.2361 3.40857 14.4422 0.867466 16.0393L 0 15.4923C 1.27432 14.1016 2.26954 12.5255 2.94184 10.8334C 3.84951 8.28944 4.36075 5.64661 4.46126 2.97886Z"/>
<path id="path134_fill" d="M 9.39666 0.699973C 9.39666 0.699973 9.89774 -0.475565 11.0131 0.220162C 12.1284 0.915888 11.7674 4.05865 8.346 7.60446C 6.32483 9.72602 3.676 11.3002 0.700439 12.1483L 0 11.6685C 0 11.6685 3.30284 9.72523 4.99467 7.90674C 7.80181 4.85994 8.62617 2.36492 9.39666 0.699973Z"/>
<path id="path135_fill" d="M 32.5435 0L 0 16.7358L 32.5435 0Z"/>
</defs>
</svg>
