<svg width="490" height="171" viewBox="0 0 490 171" version="1.1" xmlns="http://www.w3.org/2000/svg" xmlns:xlink="http://www.w3.org/1999/xlink">
<title>illustrations-group-1</title>
<desc>Created using Figma</desc>
<g id="Canvas" transform="translate(3525 -9151)">
<g id="illustrations-group-1">
<g id="Asset 25">
<g id="Shape">
<use xlink:href="#path0_fill" transform="translate(-3525 9236.2)" fill="#FFE200"/>
</g>
<g id="Shape">
<use xlink:href="#path1_fill" transform="translate(-3520.93 9236.2)" fill="#FFC400"/>
</g>
<g id="Shape">
<use xlink:href="#path2_fill" transform="translate(-3525 9236.2)" fill="#FFE200"/>
</g>
<g id="Shape">
<use xlink:href="#path3_fill" transform="translate(-3494.76 9253.54)" fill="#FFC400"/>
</g>
<g id="Shape">
<use xlink:href="#path4_fill" transform="translate(-3525 9253.54)" fill="#FF8600"/>
</g>
<g id="Shape">
<use xlink:href="#path5_fill" transform="translate(-3501.53 9240.02)"/>
</g>
<g id="Shape">
<use xlink:href="#path6_fill" transform="translate(-3489.3 9223.41)" fill="#76A3FF"/>
</g>
<g id="Shape">
<use xlink:href="#path7_fill" transform="translate(-3497.55 9224.31)" fill="#76A3FF"/>
</g>
<g id="Shape">
<use xlink:href="#path8_fill" transform="translate(-3485.89 9224.31)" fill="#76A3FF"/>
</g>
<g id="Shape">
<use xlink:href="#path9_fill" transform="translate(-3488.1 9219.2)" fill="#FFC400"/>
</g>
<g id="Shape">
<use xlink:href="#path10_fill" transform="translate(-3487.7 9218.59)" fill="#FF3B5C"/>
</g>
<g id="Shape">
<use xlink:href="#path11_fill" transform="translate(-3490.42 9219.15)" fill="#FF3B5C"/>
</g>
<g id="Shape">
<use xlink:href="#path12_fill" transform="translate(-3473.71 9245.37)"/>
</g>
<g id="Shape">
<use xlink:href="#path13_fill" transform="translate(-3469.66 9229.83)" fill="#FF3B5C"/>
</g>
<g id="Shape">
<use xlink:href="#path14_fill" transform="translate(-3467.38 9224.54)" fill="#FFC400"/>
</g>
<g id="Shape">
<use xlink:href="#path15_fill" transform="translate(-3467.48 9222.68)"/>
</g>
<g id="Shape">
<use xlink:href="#path16_fill" transform="translate(-3477.91 9231.32)" fill="#FF3B5C"/>
</g>
</g>
<g id="Asset 12">
<g id="Shape">
<use xlink:href="#path17_fill" transform="translate(-3192.74 9164.44)" fill="#B21942"/>
</g>
<g id="Shape">
<use xlink:href="#path18_fill" transform="translate(-3197.93 9166.48)" fill="#FF3B5C"/>
</g>
<g id="Shape">
<use xlink:href="#path19_fill" transform="translate(-3194.23 9171.3)" fill="#FFFFFF"/>
</g>
<g id="Shape">
<use xlink:href="#path20_fill" transform="translate(-3190.21 9176.55)" fill="#FF3B5C"/>
</g>
<g id="Shape">
<use xlink:href="#path21_fill" transform="translate(-3186.34 9181.62)" fill="#FFFFFF"/>
</g>
<g id="Shape">
<use xlink:href="#path22_fill" transform="translate(-3182.38 9186.77)" fill="#FF3B5C"/>
</g>
<g id="Shape">
<use xlink:href="#path23_fill" transform="translate(-3180.59 9189.98)" fill="#36F49A"/>
</g>
<g id="Shape">
<use xlink:href="#path24_fill" transform="translate(-3180.59 9206.52)" fill="#D82B50"/>
</g>
<g id="Shape">
<use xlink:href="#path25_fill" transform="translate(-3180.59 9201.82)" fill="#CECECE"/>
</g>
<g id="Shape">
<use xlink:href="#path26_fill" transform="translate(-3180.59 9197.28)" fill="#D82B50"/>
</g>
<g id="Shape">
<use xlink:href="#path27_fill" transform="translate(-3180.59 9192.57)" fill="#CECECE"/>
</g>
<g id="Shape">
<use xlink:href="#path28_fill" transform="translate(-3180.59 9189.98)" fill="#D82B50"/>
</g>
<g id="Shape">
<use xlink:href="#path29_fill" transform="translate(-3198.63 9189.44)" fill="#FFC400"/>
</g>
<g id="Shape">
<use xlink:href="#path30_fill" transform="translate(-3201 9196.34)" fill="#36F49A"/>
</g>
<g id="Shape">
<use xlink:href="#path31_fill" transform="translate(-3197.53 9199.34)" fill="#36F49A"/>
</g>
<g id="Shape">
<use xlink:href="#path32_fill" transform="translate(-3198.8 9200.24)" fill="#FF8600"/>
</g>
</g>
<g id="Asset 21">
<g id="Shape">
<use xlink:href="#path33_fill" transform="translate(-3088.58 9227.62)" fill="#27E38C"/>
</g>
<g id="Shape">
<use xlink:href="#path34_fill" transform="translate(-3082.42 9202.23)"/>
</g>
<g id="Shape">
<use xlink:href="#path35_fill" transform="translate(-3081.78 9187.45)" fill="#FFFFFF"/>
</g>
<g id="Shape">
<use xlink:href="#path36_fill" transform="translate(-3077.69 9188.79)" fill="#FFFFFF"/>
</g>
<g id="Shape">
<use xlink:href="#path37_fill" transform="translate(-3089.34 9188.79)" fill="#FFFFFF"/>
</g>
<g id="Shape">
<use xlink:href="#path38_fill" transform="translate(-3080.71 9184.07)" fill="#436CD2"/>
</g>
<g id="Shape">
<use xlink:href="#path39_fill" transform="translate(-3080.12 9183.82)"/>
</g>
<g id="Shape">
<use xlink:href="#path40_fill" transform="translate(-3082.54 9184.29)"/>
</g>
<g id="Shape">
<use xlink:href="#path41_fill" transform="translate(-3057.3 9238.16)" fill="#27E38C"/>
</g>
<g id="Shape">
<use xlink:href="#path42_fill" transform="translate(-3052.03 9217.12)"/>
</g>
<g id="Shape">
<use xlink:href="#path43_fill" transform="translate(-3049.79 9204.47)" fill="#FFFFFF"/>
</g>
<g id="Shape">
<use xlink:href="#path44_fill" transform="translate(-3059.77 9201.09)" fill="#FFFFFF"/>
</g>
<g id="Shape">
<use xlink:href="#path45_fill" transform="translate(-3043.74 9199.4)" fill="#FFC400"/>
</g>
<g id="Shape">
<use xlink:href="#path46_fill" transform="translate(-3042.36 9199.07)" fill="#FF3B5C"/>
</g>
<g id="Shape">
<use xlink:href="#path47_fill" transform="translate(-3042.05 9204.68)" fill="#FFFFFF"/>
</g>
<g id="Shape">
<use xlink:href="#path48_fill" transform="translate(-3060.61 9200.39)" fill="#FFC400"/>
</g>
<g id="Shape" style="mix-blend-mode:screen" opacity="0.29">
<use xlink:href="#path49_fill" transform="translate(-3131 9172.06)" fill="#FFFFFF"/>
</g>
<g id="Shape" opacity="0.73">
<use xlink:href="#path50_fill" transform="translate(-3097.9 9202.53)" fill="#FFFFFF"/>
</g>
<g id="Shape">
<use xlink:href="#path51_stroke" transform="translate(-3094.48 9217.74)" fill="#668CFF"/>
</g>
<g id="Shape">
<use xlink:href="#path52_stroke" transform="translate(-3055.16 9258.15)" fill="#668CFF"/>
</g>
<g id="Shape">
<use xlink:href="#path53_stroke" transform="translate(-3055.16 9240.35)" fill="#668CFF"/>
</g>
<g id="Shape">
<use xlink:href="#path54_stroke" transform="translate(-3094.41 9237.89)" fill="#668CFF"/>
</g>
<g id="Shape">
<use xlink:href="#path55_stroke" transform="translate(-3094.48 9242.03)" fill="#668CFF"/>
</g>
<g id="Shape">
<use xlink:href="#path56_stroke" transform="translate(-3094.48 9247.52)" fill="#668CFF"/>
</g>
<g id="Shape">
<use xlink:href="#path57_stroke" transform="translate(-3055.16 9267.2)" fill="#668CFF"/>
</g>
<g id="Shape">
<use xlink:href="#path58_stroke" transform="translate(-3094.48 9207.2)" fill="#668CFF"/>
</g>
<g id="Shape">
<use xlink:href="#path59_stroke" transform="translate(-3094.48 9210.82)" fill="#668CFF"/>
</g>
<g id="Shape">
<use xlink:href="#path60_stroke" transform="translate(-3053.31 9248.04)" fill="#668CFF"/>
</g>
<g id="Shape">
<use xlink:href="#path61_stroke" transform="translate(-3049.97 9247.21)" fill="#668CFF"/>
</g>
<g id="Shape">
<use xlink:href="#path62_stroke" transform="translate(-3046.6 9253.4)" fill="#668CFF"/>
</g>
<g id="Shape">
<use xlink:href="#path63_stroke" transform="translate(-3043.23 9257.62)" fill="#668CFF"/>
</g>
<g id="Shape" opacity="0.73">
<use xlink:href="#path64_fill" transform="translate(-3131 9172.06)" fill="#FFFFFF"/>
</g>
<g id="Shape" opacity="0.73">
<use xlink:href="#path65_fill" transform="translate(-3119.65 9210.88)" fill="#FFFFFF"/>
</g>
<g id="Shape">
<use xlink:href="#path66_stroke" transform="translate(-3127.32 9178.09)" fill="#668CFF"/>
</g>
<g id="Shape">
<use xlink:href="#path67_stroke" transform="translate(-3125.09 9187.41)" fill="#668CFF"/>
</g>
<g id="Shape">
<use xlink:href="#path68_stroke" transform="translate(-3121.04 9186.39)" fill="#668CFF"/>
</g>
<g id="Shape">
<use xlink:href="#path69_stroke" transform="translate(-3116.96 9193.9)" fill="#668CFF"/>
</g>
<g id="Shape">
<use xlink:href="#path70_stroke" transform="translate(-3112.86 9199)" fill="#668CFF"/>
</g>
<g id="Shape">
<use xlink:href="#path71_stroke" transform="translate(-3117.37 9216.85)" fill="#668CFF"/>
</g>
<g id="Shape">
<use xlink:href="#path72_stroke" transform="translate(-3117.37 9216.83)" fill="#668CFF"/>
</g>
<g id="Shape">
<use xlink:href="#path73_stroke" transform="translate(-3111.73 9220.96)" fill="#668CFF"/>
</g>
<g id="Shape">
<use xlink:href="#path74_stroke" transform="translate(-3111.73 9224.09)" fill="#668CFF"/>
</g>
<g id="Shape">
<use xlink:href="#path75_fill" transform="translate(-3093.67 9286.62)" fill="#C6C6C6"/>
</g>
<g id="Shape">
<use xlink:href="#path76_fill" transform="translate(-3093.67 9281.24)" fill="#FFFFFF"/>
</g>
<g id="Shape">
<use xlink:href="#path77_fill" transform="translate(-3091.71 9282.39)" fill="#A9C6FF"/>
</g>
<g id="Shape">
<use xlink:href="#path78_fill" transform="translate(-3091.73 9282.39)" fill="#76A3FF"/>
</g>
<g id="Oval">
<use xlink:href="#path79_fill" transform="translate(-3039.42 9199.07)" fill="#FF3B5C"/>
</g>
</g>
<g id="Asset 19">
<g id="Shape">
<use xlink:href="#path80_fill" transform="translate(-3210.62 9261.52)" fill="#282828"/>
</g>
<g id="Shape">
<use xlink:href="#path80_fill" transform="translate(-3244.09 9234.57)" fill="#EFEEE8"/>
</g>
<g id="Shape">
<use xlink:href="#path81_fill" transform="translate(-3244.11 9226.08)" fill="#FFFFFF"/>
</g>
<g id="Shape">
<use xlink:href="#path82_fill" transform="translate(-3244.09 9234.58)" fill="#D8D7D2"/>
</g>
<g id="Shape">
<use xlink:href="#path83_fill" transform="translate(-3244.12 9229.62)" fill="#EFEEE8"/>
</g>
<g id="Shape">
<use xlink:href="#path84_fill" transform="translate(-3242.89 9231.19)" fill="#E5E4DF"/>
</g>
<g id="Shape">
<use xlink:href="#path85_fill" transform="translate(-3237.45 9191.77)" fill="#FFFFFF"/>
</g>
<g id="Shape">
<use xlink:href="#path86_fill" transform="translate(-3242.89 9231.19)" fill="#D8D7D2"/>
</g>
<g id="Shape">
<use xlink:href="#path87_fill" transform="translate(-3242.89 9196.91)" fill="#FFFFFF"/>
</g>
<g id="Shape">
<use xlink:href="#path88_fill" transform="translate(-3242.89 9196.91)" fill="#E5E4DF"/>
</g>
<g id="Shape">
<use xlink:href="#path89_fill" transform="translate(-3239.97 9197.35)" fill="#E5E4DF"/>
</g>
<g id="Shape">
<use xlink:href="#path90_fill" transform="translate(-3239.97 9191.27)" fill="#FFFFFF"/>
</g>
<g id="Shape">
<use xlink:href="#path91_fill" transform="translate(-3237.59 9192.2)" fill="#FFFFFF"/>
</g>
<g id="Shape">
<use xlink:href="#path92_fill" transform="translate(-3239.97 9197.37)" fill="#D8D7D2"/>
</g>
<g id="Shape">
<use xlink:href="#path93_fill" transform="translate(-3239.96 9192.21)" fill="#EFEEE8"/>
</g>
<g id="Shape">
<use xlink:href="#path94_fill" transform="translate(-3237.62 9195.67)" fill="#E5E4DF"/>
</g>
<g id="Shape">
<use xlink:href="#path95_fill" transform="translate(-3237.62 9190.91)" fill="#FFFFFF"/>
</g>
<g id="Shape">
<use xlink:href="#path95_fill" transform="translate(-3237.62 9190.91)" fill="#FFFFFF"/>
</g>
<g id="Shape">
<use xlink:href="#path96_fill" transform="translate(-3237.63 9191.77)" fill="#EFEEE8"/>
</g>
<g id="Shape">
<use xlink:href="#path97_fill" transform="translate(-3240.9 9179.97)" fill="#FFFFFF"/>
</g>
<g id="Shape">
<use xlink:href="#path98_fill" transform="translate(-3240.9 9179.03)" fill="#E5E4DF"/>
</g>
<g id="Shape">
<use xlink:href="#path99_fill" transform="translate(-3241.3 9181.91)" fill="#E5E4DF"/>
</g>
<g id="Shape">
<use xlink:href="#path100_fill" transform="translate(-3241.29 9175.03)" fill="#FFFFFF"/>
</g>
<g id="Shape">
<use xlink:href="#path101_fill" transform="translate(-3241.29 9179.03)" fill="#EFEEE8"/>
</g>
<g id="Shape">
<use xlink:href="#path102_fill" transform="translate(-3240.9 9165.64)" fill="#FFFFFF"/>
</g>
<g id="Shape">
<use xlink:href="#path103_fill" transform="translate(-3240.9 9165.64)" fill="#E5E4DF"/>
</g>
<g id="Shape">
<use xlink:href="#path104_fill" transform="translate(-3242.65 9166.24)" fill="#E5E4DF"/>
</g>
<g id="Shape">
<use xlink:href="#path105_fill" transform="translate(-3242.65 9158.58)" fill="#FFFFFF"/>
</g>
<g id="Shape">
<use xlink:href="#path106_fill" transform="translate(-3242.65 9163.08)" fill="#EFEEE8"/>
</g>
<g id="Shape">
<use xlink:href="#path107_fill" transform="translate(-3239.86 9153.27)" fill="#E5E4DF"/>
</g>
<g id="Shape">
<use xlink:href="#path108_fill" transform="translate(-3236.48 9154.57)" fill="#FFFFFF"/>
</g>
<g id="Oval">
<use xlink:href="#path109_fill" transform="translate(-3232.57 9151.06)" fill="#E5E4DF"/>
</g>
<g id="Oval">
<use xlink:href="#path110_fill" transform="translate(-3231.44 9151.35)" fill="#FFFFFF"/>
</g>
<g id="Shape">
<use xlink:href="#path111_fill" transform="translate(-3255.84 9287.64)" fill="#E5E4DF"/>
</g>
<g id="Shape">
<use xlink:href="#path112_fill" transform="translate(-3255.84 9287.64)" fill="#D8D7D2"/>
</g>
<g id="Shape">
<use xlink:href="#path113_fill" transform="translate(-3253.08 9279.15)" fill="#FFFFFF"/>
</g>
<g id="Shape">
<use xlink:href="#path83_fill" transform="translate(-3255.85 9282.68)" fill="#EFEEE8"/>
</g>
<g id="Shape">
<use xlink:href="#path84_fill" transform="translate(-3254.62 9284.26)" fill="#E5E4DF"/>
</g>
<g id="Shape">
<use xlink:href="#path114_fill" transform="translate(-3254.62 9284.27)" fill="#D8D7D2"/>
</g>
<g id="Shape">
<use xlink:href="#path115_fill" transform="translate(-3249.18 9248.6)" fill="#FFFFFF"/>
</g>
<g id="Shape">
<use xlink:href="#path116_fill" transform="translate(-3254.62 9253.74)" fill="#FFFFFF"/>
</g>
<g id="Shape">
<use xlink:href="#path117_fill" transform="translate(-3254.62 9253.73)" fill="#E5E4DF"/>
</g>
<g id="Shape">
<use xlink:href="#path89_fill" transform="translate(-3251.69 9254.21)" fill="#E5E4DF"/>
</g>
<g id="Shape">
<use xlink:href="#path118_fill" transform="translate(-3251.69 9254.21)" fill="#D8D7D2"/>
</g>
<g id="Shape">
<use xlink:href="#path119_fill" transform="translate(-3251.69 9248.1)" fill="#FFFFFF"/>
</g>
<g id="Shape">
<use xlink:href="#path120_fill" transform="translate(-3251.7 9249.04)" fill="#EFEEE8"/>
</g>
<g id="Shape">
<use xlink:href="#path121_fill" transform="translate(-3249.32 9249.04)" fill="#FFFFFF"/>
</g>
<g id="Shape">
<use xlink:href="#path122_fill" transform="translate(-3249.35 9252.5)" fill="#E5E4DF"/>
</g>
<g id="Shape">
<use xlink:href="#path95_fill" transform="translate(-3249.35 9247.74)" fill="#FFFFFF"/>
</g>
<g id="Shape">
<use xlink:href="#path95_fill" transform="translate(-3249.35 9247.74)" fill="#FFFFFF"/>
</g>
<g id="Shape">
<use xlink:href="#path96_fill" transform="translate(-3249.35 9248.6)" fill="#EFEEE8"/>
</g>
<g id="Oval">
<use xlink:href="#path123_fill" transform="translate(-3250.02 9238.08)" fill="#E5E4DF"/>
</g>
<g id="Oval">
<use xlink:href="#path124_fill" transform="translate(-3247.62 9238.46)" fill="#FFFFFF"/>
</g>
<g id="Shape">
<use xlink:href="#path125_fill" transform="translate(-3210.62 9261.53)"/>
</g>
<g id="Shape">
<use xlink:href="#path126_fill" transform="translate(-3210.62 9253.03)" fill="#494949"/>
</g>
<g id="Shape">
<use xlink:href="#path127_fill" transform="translate(-3210.63 9256.57)" fill="#383838"/>
</g>
<g id="Shape">
<use xlink:href="#path84_fill" transform="translate(-3209.4 9258.15)" fill="#282828"/>
</g>
<g id="Shape">
<use xlink:href="#path128_fill" transform="translate(-3209.4 9250.36)" fill="#494949"/>
</g>
<g id="Shape">
<use xlink:href="#path129_fill" transform="translate(-3203.97 9222.49)" fill="#FFFFFF"/>
</g>
<g id="Shape">
<use xlink:href="#path130_fill" transform="translate(-3209.41 9227.62)" fill="#494949"/>
</g>
<g id="Shape">
<use xlink:href="#path131_fill" transform="translate(-3209.4 9258.16)"/>
</g>
<g id="Shape">
<use xlink:href="#path117_fill" transform="translate(-3209.4 9227.62)" fill="#282828"/>
</g>
<g id="Shape">
<use xlink:href="#path89_fill" transform="translate(-3206.48 9228.09)"/>
</g>
<g id="Shape">
<use xlink:href="#path90_fill" transform="translate(-3206.48 9221.99)" fill="#494949"/>
</g>
<g id="Shape">
<use xlink:href="#path132_fill" transform="translate(-3206.48 9222.89)" fill="#383838"/>
</g>
<g id="Shape">
<use xlink:href="#path133_fill" transform="translate(-3204.14 9218.42)" fill="#282828"/>
</g>
<g id="Shape">
<use xlink:href="#path134_fill" transform="translate(-3201.58 9224.02)"/>
</g>
<g id="Shape">
<use xlink:href="#path135_fill" transform="translate(-3202.19 9224.9)"/>
</g>
<g id="Shape">
<use xlink:href="#path135_fill" transform="translate(-3191.85 9218.92)"/>
</g>
<g id="Shape">
<use xlink:href="#path136_fill" transform="translate(-3191.04 9224.9)"/>
</g>
<g id="Shape">
<use xlink:href="#path137_fill" transform="translate(-3201.39 9218.94)"/>
</g>
<g id="Shape">
<use xlink:href="#path138_fill" transform="translate(-3204.12 9217.81)" fill="#494949"/>
</g>
<g id="Shape">
<use xlink:href="#path139_fill" transform="translate(-3258.75 9276.94)"/>
</g>
<g id="Shape">
<use xlink:href="#path140_fill" transform="translate(-3259.52 9259.05)" fill="url(#paint153_linear)"/>
</g>
<g id="Shape">
<use xlink:href="#path141_fill" transform="translate(-3251.16 9258.22)" fill="#FFC400"/>
</g>
<g id="Shape">
<use xlink:href="#path141_fill" transform="translate(-3249.33 9259.38)" fill="#FFC400"/>
</g>
<g id="Shape">
<use xlink:href="#path142_fill" transform="translate(-3259.36 9266.48)" fill="url(#paint156_linear)"/>
</g>
<g id="Shape">
<use xlink:href="#path143_fill" transform="translate(-3258.13 9260.45)" fill="url(#paint157_linear)"/>
</g>
<g id="Shape">
<use xlink:href="#path144_fill" transform="translate(-3261 9262.02)" fill="#FFC400"/>
</g>
</g>
<g id="Asset 18">
<g id="Shape">
<use xlink:href="#path145_fill" transform="translate(-3330.3 9203.66)" fill="#27E38C"/>
</g>
<g id="Shape">
<use xlink:href="#path146_fill" transform="translate(-3327.44 9180.68)"/>
</g>
<g id="Shape">
<use xlink:href="#path147_fill" transform="translate(-3327.13 9167.49)" fill="#FF3B5C"/>
</g>
<g id="Shape">
<use xlink:href="#path148_fill" transform="translate(-3326.53 9166.8)" fill="#FF3B5C"/>
</g>
<g id="Shape">
<use xlink:href="#path149_fill" transform="translate(-3324.69 9166.97)" fill="#FF3B5C"/>
</g>
<g id="Shape">
<use xlink:href="#path150_fill" transform="translate(-3328.32 9161.92)" fill="#AF7E43"/>
</g>
<g id="Shape">
<use xlink:href="#path151_fill" transform="translate(-3329.02 9161.59)"/>
</g>
<g id="Shape">
<use xlink:href="#path152_fill" transform="translate(-3370.57 9198.22)" fill="#303030"/>
</g>
<g id="Shape">
<use xlink:href="#path153_fill" transform="translate(-3370.17 9195.92)"/>
</g>
<g id="Shape">
<use xlink:href="#path154_fill" transform="translate(-3370.16 9195.92)"/>
</g>
<g id="Shape">
<use xlink:href="#path155_fill" transform="translate(-3369.84 9198.27)" fill="#4C4C4C"/>
</g>
<g id="Shape">
<use xlink:href="#path156_fill" transform="translate(-3369.99 9186.77)"/>
</g>
<g id="Shape">
<use xlink:href="#path157_fill" transform="translate(-3333.15 9205.03)" fill="#FFFFFF"/>
</g>
<g id="Shape">
<use xlink:href="#path158_fill" transform="translate(-3311.67 9217.4)" fill="#FFFFFF"/>
</g>
<g id="Shape">
<use xlink:href="#path159_fill" transform="translate(-3331.65 9205.88)"/>
</g>
<g id="Shape">
<use xlink:href="#path160_fill" transform="translate(-3330.22 9206.71)" fill="#38FFA1"/>
</g>
<g id="Shape">
<use xlink:href="#path161_fill" transform="translate(-3370.16 9175.52)" fill="#FFFFFF"/>
</g>
<g id="Shape">
<use xlink:href="#path162_fill" transform="translate(-3291.26 9184.49)" fill="#EFEEE8"/>
</g>
<g id="Shape">
<use xlink:href="#path163_fill" transform="translate(-3346.84 9225.42)" fill="#EFEEE8"/>
</g>
<g id="Shape">
<use xlink:href="#path164_fill" transform="translate(-3354.21 9221.17)" fill="#EFEEE8"/>
</g>
<g id="Shape">
<use xlink:href="#path165_fill" transform="translate(-3434.47 9230.85)"/>
</g>
<g id="Shape">
<use xlink:href="#path166_fill" transform="translate(-3420.66 9264.46)" fill="#FF8600"/>
</g>
<g id="Shape">
<use xlink:href="#path167_fill" transform="translate(-3401.97 9230.85)" fill="#4C4C4C"/>
</g>
<g id="Shape">
<use xlink:href="#path168_fill" transform="translate(-3434.47 9230.95)" fill="#FF8600"/>
</g>
<g id="Shape">
<use xlink:href="#path169_fill" transform="translate(-3401.97 9230.95)" fill="#FFC400"/>
</g>
<g id="Shape">
<use xlink:href="#path170_fill" transform="translate(-3434.47 9219.86)" fill="#FFC400"/>
</g>
<g id="Shape">
<use xlink:href="#path171_fill" transform="translate(-3432.08 9221.24)" fill="#4C4C4C"/>
</g>
<g id="Shape">
<use xlink:href="#path172_fill" transform="translate(-3421.66 9227.36)" fill="#303030"/>
</g>
<g id="Shape">
<use xlink:href="#path173_fill" transform="translate(-3421.65 9223.77)" fill="#4C4C4C"/>
</g>
<g id="Shape">
<use xlink:href="#path174_fill" transform="translate(-3417.01 9245.35)"/>
</g>
<g id="Shape">
<use xlink:href="#path175_fill" transform="translate(-3419.76 9247.93)"/>
</g>
<g id="Shape">
<use xlink:href="#path176_fill" transform="translate(-3364.24 9244.39)" fill="#FFFFFF"/>
</g>
<g id="Shape">
<use xlink:href="#path177_fill" transform="translate(-3364.5 9247.43)" fill="#EFEEE8"/>
</g>
<g id="Shape">
<use xlink:href="#path178_fill" transform="translate(-3418.83 9285.24)" fill="#FFFFFF"/>
</g>
<g id="Rectangle-path">
<use xlink:href="#path179_fill" transform="translate(-3418.83 9292.73)" fill="#EFEEE8"/>
</g>
<g id="Shape">
<use xlink:href="#path180_stroke" transform="translate(-3416.11 9249.69)" fill="#FFFFFF"/>
</g>
<g id="Shape">
<use xlink:href="#path181_fill" transform="translate(-3293.87 9208.34)"/>
</g>
<g id="Shape">
<use xlink:href="#path182_fill" transform="translate(-3289.35 9196.11)" fill="#668CFF"/>
</g>
<g id="Shape">
<use xlink:href="#path183_fill" transform="translate(-3290.1 9195.01)" fill="#668CFF"/>
</g>
<g id="Shape">
<use xlink:href="#path184_fill" transform="translate(-3295.61 9197.32)" fill="#668CFF"/>
</g>
<g id="Shape">
<use xlink:href="#path185_fill" transform="translate(-3282.59 9190.38)" fill="#FFC400"/>
</g>
<g id="Shape">
<use xlink:href="#path186_fill" transform="translate(-3280.93 9189.55)"/>
</g>
</g>
</g>
</g>
<defs>
<linearGradient id="paint153_linear" x1="0" y1="0" x2="1" y2="0" gradientUnits="userSpaceOnUse" gradientTransform="matrix(-2.25979 -1.2887 1.31124 -2.22094 6.01502 5.15065)">
<stop offset="0" stop-color="#668CFF"/>
<stop offset="1" stop-color="#92B1FF"/>
</linearGradient>
<linearGradient id="paint156_linear" x1="0" y1="0" x2="1" y2="0" gradientUnits="userSpaceOnUse" gradientTransform="matrix(-112.879 -36.663 20.8493 -198.495 169.088 1325.34)">
<stop offset="0" stop-color="#668CFF"/>
<stop offset="1" stop-color="#92B1FF"/>
</linearGradient>
<linearGradient id="paint157_linear" x1="0" y1="0" x2="1" y2="0" gradientUnits="userSpaceOnUse" gradientTransform="matrix(-57.3842 -32.6356 32.5137 -57.5993 219.761 2717.96)">
<stop offset="0" stop-color="#668CFF"/>
<stop offset="1" stop-color="#92B1FF"/>
</linearGradient>
<path id="path0_fill" d="M 30.2448 34.6835L 0 17.3418L 30.2448 0L 60.4839 17.3418L 30.2448 34.6835Z"/>
<path id="path1_fill" d="M 27.3057 30.0182L 0 15.0119L 26.1752 0L 56.4143 17.3418L 49.383 21.3782L 27.3057 30.0182Z"/>
<path id="path2_fill" d="M 30.2391 26.0154L 0 8.67368C 0 8.67368 10.4848 7.51158 18.0248 5.35018C 22.3362 4.16546 26.4509 2.36314 30.2391 0L 60.4783 17.3418C 55.8716 19.8896 51.0013 21.9356 45.9522 23.4442C 40.8204 24.8489 35.5534 25.7107 30.2391 26.0154Z"/>
<path id="path3_fill" d="M 30.2391 10.8519L 0 28.1937L 0 17.3418L 30.2391 0L 30.2391 10.8519Z"/>
<path id="path4_fill" d="M 0 10.8519L 30.2448 28.1937L 30.2448 17.3418L 0 0L 0 10.8519Z"/>
<path id="path5_fill" d="M 20.9648 0.190877L 21.8578 7.0007C 21.9305 8.00381 21.3093 8.92821 20.3487 9.24632L 6.56871 13.8049L 4.96349 14.5347C 4.58479 14.7256 0.735664 15.6575 1.47045 13.9733L 5.7774 12.4744L 16.1944 6.88842L 14.9226 5.29965L 3.72566 5.01895L 10.0391 14.3495C 10.0391 14.3495 7.67088 17.5214 7.42219 17.0498L 8.03827 14.0351L 0.402186 5.4007C -0.0547954 4.75407 -0.127746 3.91376 0.211046 3.19897C 0.549838 2.48419 1.24838 2.00462 2.04132 1.94246L 11.4352 0L 20.9648 0.190877Z"/>
<path id="path6_fill" d="M 0 17.0615C 0 17.0615 4.48217 19.1331 8.06 17.3759C 9.05478 16.8875 8.68174 16.0622 8.58565 15.1303C 8.39724 13.0603 7.9783 11.0174 7.33652 9.03908C 5.59565 3.63838 4.62913 0.0566264 3.43087 0.00048607C 2.23261 -0.0556543 1.07391 4.76119 0.531304 9.31417C 0.202584 11.8842 0.0251806 14.471 4.01611e-15 17.0615L 0 17.0615Z"/>
<path id="path7_fill" d="M 10.027 0.174035L 6.95783 4.68772L 0 13.8891L 1.0513 14.6133L 7.31957 8.82526L 11.0443 5.35579L 11.0443 0"/>
<path id="path8_fill" d="M 1.07957 0C 1.07957 0 5.54478 8.34807 6.89 11.0316C 8.37087 13.9004 0 17.0723 0 17.0723L 0.966522 14.5909L 4.5387 12.2779L 1.07957 3.74456L 1.07957 0Z"/>
<path id="path9_fill" d="M 4.36091 2.65783C 4.36091 -1.27199 -0.290829 -0.631994 0.0143887 3.18555C 0.12178 4.54415 0.579606 5.88029 1.56308 6.21713C 2.71613 6.6045 4.36091 5.73994 4.36091 2.65783Z"/>
<path id="path10_fill" d="M 0 0.995129C 0.272659 1.57945 0.728832 2.06012 1.3 2.36495C 2.0913 2.6625 2.76391 2.98811 2.99565 3.61127C 3.29764 4.85103 3.18861 6.1545 2.68478 7.32776C 2.04043 8.89969 2.08 10.9713 3.14826 11.3586C 4.21652 11.746 5.33 9.53408 5.43739 7.42881C 5.54478 5.32355 4.24478 3.12285 3.90565 1.71373C 3.48739 0.0295149 0.994783 -0.75645 0.0113043 0.967059"/>
<path id="path11_fill" d="M 3.63051 0.688056C 3.22425 0.999174 2.84601 1.3448 2.50007 1.72104C 1.82181 2.43402 2.83355 4.9042 3.06529 5.93718C 3.29703 6.97016 2.16094 7.83472 0.838333 9.14279C -0.179058 10.1421 -0.427754 7.80104 0.98529 5.15683C 2.16094 2.95051 0.719637 0.789108 2.72616 0.0368276C 3.39312 -0.187734 3.63051 0.688056 3.63051 0.688056Z"/>
<path id="path12_fill" d="M 4.04696 2.22316L 1.88783 33.0779L 0 33.4989L 3.32913 35.1888L 8.29174 10.6105L 11.5813 27.3067L 9.99304 27.5874L 13.7065 28.7158L 12.8587 0L 4.04696 2.22316Z"/>
<path id="path13_fill" d="M 8.80821 16.2969C 8.80821 16.2969 3.91343 20.6927 0.674734 19.379C -0.218309 19.0197 -0.00917903 17.8632 0.109517 16.892C 0.256473 15.511 0.346908 12.8836 0.776473 9.79587C 1.99169 1.02675 3.43865 -0.163426 5.10039 0.0162232C 6.76213 0.195872 7.29343 3.32289 8.03386 7.45482C 8.5506 10.3742 8.8097 13.3328 8.80821 16.2969Z"/>
<path id="path14_fill" d="M 0.0016358 2.63541C 0.0751141 -1.32249 4.91903 -0.581433 4.52338 3.25295C 4.38207 4.61716 3.89598 5.9533 2.82772 6.2733C 1.66338 6.6326 -0.0605381 5.73436 0.0016358 2.63541Z"/>
<path id="path15_fill" d="M 0.839106 3.0669C 0.839106 3.0669 3.20171 3.31391 3.06606 5.23391C 2.93041 7.15391 3.33172 8.04093 4.16824 7.58619C 5.29867 6.98549 6.69476 5.00374 6.30476 2.65707C 6.12211 1.77073 5.58355 0.996647 4.81342 0.513532C 4.04329 0.0304164 3.10816 -0.119976 2.22389 0.097072C -0.771763 0.742686 -0.206546 2.75812 0.839106 3.0669Z"/>
<path id="path16_fill" d="M 11.0613 0C 9.73827 3.66662 7.76464 7.06818 5.23391 10.0435C 1.5487 14.2653 0 14.5347 0 14.5347L 0.474783 15.4779C 2.79675 14.3826 5.01395 13.0804 7.09913 11.5874C 11.1348 8.7186 12.4291 5.73754 12.4291 5.73754L 11.0613 0Z"/>
<path id="path17_fill" d="M 29.415 46.0392C 32.5925 44.0777 34.5522 40.0161 34.5522 34.2738C 34.5522 22.5777 26.4279 8.3546 16.4085 2.50845C 11.5301 -0.345397 7.08929 -0.680012 3.82814 1.07768L 0 3.33153L 25.6402 48.2161L 29.415 46.0392Z"/>
<path id="path18_fill" d="M 0 13.0926C 0 24.7887 8.12434 39.0118 18.1437 44.858C 28.1631 50.7041 36.2874 45.9657 36.2874 34.2695C 36.2874 22.5734 28.1669 8.35028 18.1475 2.50412C 8.12814 -3.34203 0 1.39643 0 13.0926Z"/>
<path id="path19_fill" d="M 0 10.4256C 0 19.7372 6.46903 31.0564 14.4602 35.7141C 22.4513 40.3718 28.9204 36.5949 28.9204 27.2833C 28.9204 17.9718 22.4513 6.65257 14.4602 1.99488C 6.46903 -2.66282 0 1.11411 0 10.4256Z"/>
<path id="path20_fill" d="M 0 7.51291C 0 14.236 4.66912 22.4091 10.4304 25.7706C 16.1916 29.1321 20.8607 26.4052 20.8607 19.686C 20.8607 12.9668 16.1878 4.80137 10.4304 1.43983C 4.67292 -1.92171 0 0.805217 0 7.51291Z"/>
<path id="path21_fill" d="M 0 4.71231C 0 8.94308 2.9377 14.0777 6.55655 16.1931C 10.1754 18.3085 13.1207 16.5931 13.1207 12.3662C 13.1207 8.13923 10.183 2.99693 6.56035 0.900771C 2.9377 -1.19538 0 0.485387 0 4.71231Z"/>
<path id="path22_fill" d="M 0 1.87269C 0.0995663 3.72328 1.06644 5.4149 2.60283 6.42653C 4.04124 7.26499 5.20566 6.58422 5.20566 4.9073C 5.10136 3.06224 4.13504 1.37732 2.60283 0.36884C 1.17204 -0.485006 0 0.195763 0 1.87269Z"/>
<path id="path23_fill" d="M 0 0L 1.38513 0.661538L 0 0Z"/>
<path id="path24_fill" d="M 0.806726 0.5C 0.536549 0.342308 0.266372 0.173077 0 0L 0 4.32308C 0.266372 4.49231 0.536549 4.66154 0.806726 4.81923C 1.0008 4.93077 1.18726 5.03462 1.38133 5.13846L 1.38133 0.819231C 1.19106 0.715385 0.996991 0.619231 0.806726 0.5Z"/>
<path id="path25_fill" d="M 1.38133 5.51923L 1.38133 0.826923C 1.19106 0.726923 1.0008 0.623077 0.806726 0.511538C 0.532743 0.353846 0.266372 0.180769 0 0L 0 4.7C 0.266372 4.87308 0.536549 5.04231 0.806726 5.2C 0.996991 5.31923 1.19106 5.41538 1.38133 5.51923Z"/>
<path id="path26_fill" d="M 0.806726 0.534615C 0.532743 0.373077 0.262566 0.192308 0 0L 0 4.53846C 0.266372 4.71923 0.536549 4.89231 0.806726 5.05C 1.0008 5.16154 1.18726 5.26538 1.38133 5.36538L 1.38133 0.838462C 1.19106 0.746154 1.0008 0.646154 0.806726 0.534615Z"/>
<path id="path27_fill" d="M 1.38133 5.54615L 1.38133 0.880769C 1.18113 0.816144 0.988468 0.72974 0.806726 0.623077C 0.514356 0.448404 0.24355 0.239246 0 0L 0 4.70385C 0.266372 4.89615 0.532743 5.08846 0.806726 5.23846C 1.0008 5.35385 1.19106 5.45385 1.38133 5.54615Z"/>
<path id="path28_fill" d="M 0 0L 0 2.59615C 0.24355 2.8354 0.514356 3.04456 0.806726 3.21923C 0.988468 3.32589 1.18113 3.4123 1.38133 3.47692L 1.38133 0.661538L 0 0Z"/>
<path id="path29_fill" d="M 18.3226 0.0453446C 18.4707 -0.0278367 18.6467 -0.0115216 18.7792 0.0876523C 19.1548 0.335849 19.3908 0.75013 19.4147 1.20304C 19.4339 1.36973 19.3589 1.5332 19.2206 1.62611L 0.894248 12.43L 0 10.8492L 18.3226 0.0453446Z"/>
<path id="path30_fill" d="M 2.69035 3.75385L 0 2.46923L 4.29619 0L 6.77345 1.34615L 2.69035 3.75385Z"/>
<path id="path31_fill" d="M 0 5.64231L 4.07929 3.23462L 4.07929 0L 0 2.40769L 0 5.64231Z"/>
<path id="path32_fill" d="M 0 0.464474C 0.0238711 0.917381 0.259906 1.33166 0.635487 1.57986C 0.985575 1.78371 1.27097 1.61832 1.27097 1.19524C 1.2471 0.742337 1.01107 0.328056 0.635487 0.079859C 0.285398 -0.112449 0 0.0529359 0 0.464474Z"/>
<path id="path33_fill" d="M 1.97455 5.88942C 1.97455 5.88942 13.0645 6.38738 15.2745 6.34256C 20.5746 6.23799 20.7745 1.63187 16.9296 1.01938C 11.5445 0.15791 3.81455 -0.683641 1.65955 0.855053C -0.49545 2.39375 -0.71545 5.05285 1.97455 5.88942Z"/>
<path id="path34_fill" d="M 8.13 0L 10.065 28.6974L 9.63 29.2501C 9.54212 29.3736 9.40258 29.4507 9.25082 29.4594C 9.09906 29.4681 8.95156 29.4076 8.85 29.2949L 8.35 28.797L 4.545 9.67037L 1.505 28.797L 1.16 29.1505C 1.03001 29.2849 0.842437 29.3478 0.657314 29.319C 0.472191 29.2903 0.31274 29.1735 0.23 29.0061L 0 28.558L 0.63 1.2698L 8.13 0Z"/>
<path id="path35_fill" d="M 0 16.8013C 0 16.8013 4.175 19.1218 6.925 16.617C 7.68 15.9299 8 15.9 7.925 15.0086C 7.55321 12.7558 7.00145 10.5362 6.275 8.37084C 4.665 3.36635 3.775 0.0300273 2.665 0.000149729C 1.555 -0.0297278 1.005 4.41705 0.505 8.65468C 0.285 10.4324 0 14.0227 0 16.8013Z"/>
<path id="path36_fill" d="M 0 0.0149388C 0 0.0149388 8.4 7.86278 7.525 9.63551C 6.65 11.4082 3.55 15.2027 3.55 15.2027L 2.945 14.9338L 5.745 9.11763L 0 3.48571L 0 0"/>
<path id="path37_fill" d="M 10.09 0.0149388C 10.09 0.0149388 6.215 5.82114 4.065 9.13755C 2.99 10.7958 0 13.9379 0 13.9379L 0.685 14.5454L 5.845 10.1136L 10.09 4.48163L 10.09 0"/>
<path id="path38_fill" d="M 0 2.46676C 0 -1.18328 4.295 -0.58573 4 2.96472C 3.9 4.22456 3.5 5.45451 2.57 5.77819C 1.54 6.12178 0 5.32505 0 2.46676Z"/>
<path id="path39_fill" d="M 0 0.852792C 0.233823 1.36916 0.628257 1.7969 1.125 2.07279C 1.825 2.33671 2.42 2.62553 2.625 3.17826C 2.89735 4.27422 2.80793 5.42839 2.37 6.46977C 1.8 7.86406 1.835 9.70153 2.78 10.0451C 3.725 10.3887 4.71 8.42675 4.805 6.5594C 4.9 4.69206 3.75 2.74504 3.445 1.52006C 3.075 0.0261794 0.87 -0.670963 0 0.857771"/>
<path id="path40_fill" d="M 3.2016 0.601432C 2.84222 0.877391 2.50763 1.18396 2.2016 1.51768C 1.6016 2.15009 2.4966 4.34111 2.7016 5.25735C 2.9066 6.1736 1.9266 6.94045 0.741602 8.1007C -0.158398 8.98706 -0.378398 6.91057 0.871602 4.56519C 1.9166 2.60821 0.636602 0.691065 2.4216 0.0387383C 2.9916 -0.180364 3.2016 0.601432 3.2016 0.601432Z"/>
<path id="path41_fill" d="M 1.42386 3.30231C 1.42386 3.30231 10.3539 8.92427 12.6389 9.63137C 15.8739 10.6273 20.8739 8.51096 16.9739 5.98133C 13.0739 3.4517 4.90886 -0.492137 2.66886 0.0506381C 0.428864 0.593414 -1.36614 1.40509 1.42386 3.30231Z"/>
<path id="path42_fill" d="M 9.96 0.468082L 12.095 28.802L 9.15 30.3008L 10.515 28.2442L 6.375 7.68849L 3.285 23.4439L 0 24.4448L 1.61 22.946L 2.25 0L 9.96 0.468082Z"/>
<path id="path43_fill" d="M 7.72369 13.1161C 7.72369 13.1161 3.89369 15.0233 1.02869 13.8581C 0.310628 13.6213 -0.118064 12.8891 0.0286942 12.1501C 0.158694 10.9251 0.388694 10.0437 1.20869 7.39957C 2.86369 2.09133 7.24869 -0.766959 8.39369 0.179164C 9.53869 1.12529 9.31869 1.17508 8.73869 4.85998C 8.44869 6.61778 7.66869 9.19222 7.72369 13.1161Z"/>
<path id="path44_fill" d="M 16.77 3.416C 16.77 3.416 18.08 3.44588 17.73 4.66588C 17.38 5.88588 13.975 6.18963 9.2 5.25845C 4.425 4.32727 0 0.632408 0 0.632408L 0.815 0C 0.815 0 5.02 2.27567 7.44 2.70392C 11.435 3.40106 14.89 3.33633 16.77 3.416Z"/>
<path id="path45_fill" d="M 0.897175 1.17887C 2.93217 -1.68938 6.10717 1.25356 3.89717 3.87283C 3.11217 4.80401 2.08717 5.54597 1.15717 5.26213C 0.117175 4.93348 -0.697825 3.41969 0.897175 1.17887Z"/>
<path id="path46_fill" d="M 0.155214 0.195397C -0.759786 0.792948 2.70021 1.51001 1.98021 2.48601C 0.940214 3.88527 3.12521 2.48601 2.15021 4.26372C 1.76021 4.97581 0.355214 5.81238 1.83521 5.25964C 3.31521 4.70691 4.44521 3.19311 3.68021 1.62952C 2.97521 0.200377 0.945214 -0.32248 0.155214 0.195397Z"/>
<path id="path47_fill" d="M 0.645 0.301813C 0.645 0.301813 1.645 2.36336 0.465 2.79161C -0.715 3.21985 3.78 5.33618 3.78 6.77528C 3.78 7.27324 0 11.5308 0 11.5308L 0 12.9052C 0 12.9052 7.965 9.29994 6.5 6.29724C 5.11 3.56345 -0.39 -1.25182 0.645 0.301813Z"/>
<path id="path48_fill" d="M 1.65319 0.692589L 1.41319 1.77316C 1.41319 1.77316 -0.351811 0.817078 0.0631885 0.18965C 0.478189 -0.437779 1.65319 0.692589 1.65319 0.692589Z"/>
<path id="path49_fill" d="M 92.175 62.9699L 37.94 31.7877L 26.775 14.9367C 26.2941 14.0125 25.5587 13.2438 24.655 12.7208L 3 0.266856C 2.38152 -0.0887693 1.61956 -0.0889642 1.00089 0.266345C 0.382219 0.621654 0.000732091 1.27855 0 1.98979L 0 22.7248C 0.00209708 23.2424 0.0778505 23.7571 0.225 24.2535L 0 24.3332L 11.355 49.2959L 11.355 54.1261L 11.715 56.0731L 41 114.558L 48.63 115.385L 91.925 113.299C 92.5435 113.654 93.3054 113.654 93.9241 113.299C 94.5428 112.944 94.9243 112.287 94.925 111.576L 94.925 67.7204C 94.9275 65.761 93.8788 63.9496 92.175 62.9699Z"/>
<path id="path50_fill" d="M 58.825 82.8335L 2.75 50.5906C 1.04772 49.6118 -0.000664458 47.8027 3.15959e-07 45.8451L 3.15959e-07 1.98979C 0.000732407 1.27855 0.382219 0.621654 1.00089 0.266345C 1.61956 -0.0889642 2.38152 -0.0887693 3 0.266856L 59.075 32.5097C 60.7773 33.4885 61.8257 35.2977 61.825 37.2553L 61.825 81.1155C 61.8225 81.8259 61.4403 82.4811 60.822 82.8352C 60.2036 83.1893 59.4427 83.1887 58.825 82.8335Z"/>
<path id="path51_stroke" d="M 0 31.974L -0.5 31.974C -0.5 32.1529 -0.404355 32.3182 -0.24921 32.4074L 0 31.974ZM 0 0L 0.24921 -0.433468C 0.0944876 -0.522421 -0.0959169 -0.52216 -0.250395 -0.432784C -0.404873 -0.343409 -0.5 -0.17847 -0.5 9.62492e-17L 0 0ZM 35.91 20.6454L 36.41 20.6454C 36.41 20.4664 36.3144 20.3011 36.1592 20.2119L 35.91 20.6454ZM 36.1592 52.1859L 0.24921 31.5405L -0.24921 32.4074L 35.6608 53.0528L 36.1592 52.1859ZM 0.5 31.974L 0.5 0L -0.5 0L -0.5 31.974L 0.5 31.974ZM -0.24921 0.433468L 35.6608 21.0789L 36.1592 20.2119L 0.24921 -0.433468L -0.24921 0.433468ZM 35.41 20.6454L 35.41 52.6193L 36.41 52.6193L 36.41 20.6454L 35.41 20.6454Z"/>
<path id="path52_stroke" d="M 0 14.1769L -0.5 14.1769C -0.5 14.3558 -0.404414 14.5211 -0.249345 14.6103L 0 14.1769ZM 0 0L 0.249242 -0.43345C 0.0945205 -0.522417 -0.0958919 -0.522167 -0.250379 -0.432794C -0.404866 -0.34342 -0.5 -0.178476 -0.5 -9.62452e-17L 0 0ZM 15.735 9.04792L 16.235 9.04792C 16.235 8.86897 16.1394 8.70367 15.9842 8.61447L 15.735 9.04792ZM 15.9843 22.7964L 0.249345 13.7435L -0.249345 14.6103L 15.4857 23.6632L 15.9843 22.7964ZM 0.5 14.1769L 0.5 0L -0.5 0L -0.5 14.1769L 0.5 14.1769ZM -0.249242 0.43345L 15.4858 9.48137L 15.9842 8.61447L 0.249242 -0.43345L -0.249242 0.43345ZM 15.235 9.04792L 15.235 23.2298L 16.235 23.2298L 16.235 9.04792L 15.235 9.04792Z"/>
<path id="path53_stroke" d="M 0 14.1769L -0.5 14.1769C -0.5 14.3558 -0.404369 14.5211 -0.249242 14.6103L 0 14.1769ZM 0 0L 0.249242 -0.43345C 0.0945205 -0.522417 -0.0958919 -0.522167 -0.250379 -0.432794C -0.404866 -0.34342 -0.5 -0.178476 -0.5 -9.62452e-17L 0 0ZM 15.735 9.04792L 16.235 9.04792C 16.235 8.86897 16.1394 8.70367 15.9842 8.61447L 15.735 9.04792ZM 15.9842 22.7914L 0.249242 13.7434L -0.249242 14.6103L 15.4858 23.6583L 15.9842 22.7914ZM 0.5 14.1769L 0.5 0L -0.5 0L -0.5 14.1769L 0.5 14.1769ZM -0.249242 0.43345L 15.4858 9.48137L 15.9842 8.61447L 0.249242 -0.43345L -0.249242 0.43345ZM 15.235 9.04792L 15.235 23.2248L 16.235 23.2248L 16.235 9.04792L 15.235 9.04792Z"/>
<path id="path54_stroke" d="M -0.248921 1.6329C -0.488411 1.77037 -0.571109 2.07596 -0.433634 2.31545C -0.296158 2.55494 0.00943221 2.63764 0.248921 2.50016L -0.248921 1.6329ZM 3.6 0L 4.03253 -0.25084C 3.89443 -0.48897 3.58982 -0.570679 3.35108 -0.433634L 3.6 0ZM 5.48 3.24171L 5.04747 3.49255C 5.18566 3.73083 5.49053 3.81247 5.7293 3.67513L 5.48 3.24171ZM 10.155 0.552735L 10.5876 0.301962C 10.4494 0.0636388 10.1445 -0.018034 9.9057 0.119316L 10.155 0.552735ZM 11.405 2.7089L 10.9724 2.95967C 11.1107 3.19817 11.4159 3.27976 11.6548 3.14205L 11.405 2.7089ZM 13.59 1.44906L 14.0226 1.19827C 13.8843 0.959783 13.5791 0.878205 13.3402 1.01591L 13.59 1.44906ZM 17.45 8.10678L 17.0174 8.35756C 17.1556 8.59578 17.4603 8.67749 17.699 8.54034L 17.45 8.10678ZM 23.995 4.34718L 24.4277 4.09669C 24.2897 3.85827 23.9848 3.7764 23.746 3.91362L 23.995 4.34718ZM 26.595 8.83878L 26.1623 9.08926C 26.3003 9.32776 26.6053 9.40959 26.8442 9.27223L 26.595 8.83878ZM 31.315 6.1249L 31.7473 5.87374C 31.6091 5.63572 31.3044 5.55423 31.0658 5.69144L 31.315 6.1249ZM 32.825 8.72425L 32.3927 8.9754C 32.5309 9.2134 32.8355 9.2949 33.0742 9.15774L 32.825 8.72425ZM 35.9592 7.49954C 36.1986 7.36193 36.2811 7.05629 36.1435 6.81688C 36.0059 6.57747 35.7003 6.49494 35.4608 6.63254L 35.9592 7.49954ZM 0.248921 2.50016L 3.84892 0.433634L 3.35108 -0.433634L -0.248921 1.6329L 0.248921 2.50016ZM 3.16747 0.25084L 5.04747 3.49255L 5.91253 2.99087L 4.03253 -0.25084L 3.16747 0.25084ZM 5.7293 3.67513L 10.4043 0.986154L 9.9057 0.119316L 5.2307 2.8083L 5.7293 3.67513ZM 9.72243 0.803507L 10.9724 2.95967L 11.8376 2.45813L 10.5876 0.301962L 9.72243 0.803507ZM 11.6548 3.14205L 13.8398 1.88222L 13.3402 1.01591L 11.1552 2.27574L 11.6548 3.14205ZM 13.1574 1.69985L 17.0174 8.35756L 17.8826 7.85599L 14.0226 1.19827L 13.1574 1.69985ZM 17.699 8.54034L 24.244 4.78075L 23.746 3.91362L 17.201 7.67321L 17.699 8.54034ZM 23.5623 4.59767L 26.1623 9.08926L 27.0277 8.58829L 24.4277 4.09669L 23.5623 4.59767ZM 26.8442 9.27223L 31.5642 6.55836L 31.0658 5.69144L 26.3458 8.40532L 26.8442 9.27223ZM 30.8827 6.37605L 32.3927 8.9754L 33.2573 8.47309L 31.7473 5.87374L 30.8827 6.37605ZM 33.0742 9.15774L 35.9592 7.49954L 35.4608 6.63254L 32.5758 8.29075L 33.0742 9.15774Z"/>
<path id="path55_stroke" d="M 0.249236 -0.433453C 0.00984682 -0.571102 -0.295803 -0.488626 -0.433453 -0.249236C -0.571102 -0.00984682 -0.488626 0.295803 -0.249236 0.433453L 0.249236 -0.433453ZM 35.6557 18.9675C 35.8951 19.1051 36.2007 19.0227 36.3384 18.7833C 36.4761 18.544 36.3937 18.2383 36.1543 18.1006L 35.6557 18.9675ZM -0.249236 0.433453C 3.66918 2.68655 5.96874 4.89828 8.23633 7.10447C 10.5116 9.31816 12.7616 11.5338 16.5458 13.7091L 17.0442 12.8421C 13.3784 10.7349 11.2059 8.59841 8.93367 6.38773C 6.65376 4.16956 4.28082 1.88472 0.249236 -0.433453L -0.249236 0.433453ZM 16.5458 13.7091C 20.3741 15.9097 23.2894 16.1025 26.1681 16.3194C 29.0139 16.5338 31.8374 16.7712 35.6557 18.9675L 36.1543 18.1006C 32.1376 15.7903 29.1311 15.5398 26.2432 15.3222C 23.3881 15.1071 20.6659 14.924 17.0442 12.8421L 16.5458 13.7091Z"/>
<path id="path56_stroke" d="M 35.6558 18.9675C 35.8952 19.1051 36.2008 19.0227 36.3385 18.7833C 36.4761 18.5439 36.3936 18.2382 36.1542 18.1006L 35.6558 18.9675ZM 0.249294 -0.43342C 0.009923 -0.571101 -0.295738 -0.488665 -0.43342 -0.249294C -0.571101 -0.009923 -0.488665 0.295738 -0.249294 0.43342L 0.249294 -0.43342ZM 36.1542 18.1006C 32.2358 15.8475 29.9363 13.6358 27.6687 11.4296C 25.3934 9.21588 23.1434 7.00023 19.3592 4.82496L 18.8608 5.69194C 22.5266 7.79912 24.6991 9.93563 26.9713 12.1463C 29.2512 14.3645 31.6242 16.6493 35.6558 18.9675L 36.1542 18.1006ZM 19.3592 4.82496C 15.5309 2.62439 12.6156 2.43154 9.73694 2.21467C 6.8911 2.00026 4.06761 1.7628 0.249294 -0.43342L -0.249294 0.43342C 3.76739 2.74373 6.7739 2.99427 9.66181 3.21184C 12.5169 3.42695 15.2391 3.61006 18.8608 5.69194L 19.3592 4.82496Z"/>
<path id="path57_stroke" d="M -0.154911 4.65358C -0.417466 4.73914 -0.560952 5.02134 -0.475397 5.28389C -0.389842 5.54645 -0.107643 5.68993 0.154911 5.60438L -0.154911 4.65358ZM 15.8949 0.475397C 16.1575 0.389842 16.301 0.107643 16.2154 -0.154911C 16.1298 -0.417466 15.8476 -0.560952 15.5851 -0.475397L 15.8949 0.475397ZM 0.154911 5.60438L 15.8949 0.475397L 15.5851 -0.475397L -0.154911 4.65358L 0.154911 5.60438Z"/>
<path id="path58_stroke" d="M 0.249228 -0.433458C 0.0098354 -0.571102 -0.295813 -0.48862 -0.433458 -0.249228C -0.571102 -0.0098354 -0.48862 0.295813 -0.249228 0.433458L 0.249228 -0.433458ZM 54.8058 32.0887C 55.0452 32.2264 55.3508 32.1439 55.4885 31.9045C 55.6261 31.6651 55.5436 31.3595 55.3042 31.2218L 54.8058 32.0887ZM -0.249228 0.433458L 54.8058 32.0887L 55.3042 31.2218L 0.249228 -0.433458L -0.249228 0.433458Z"/>
<path id="path59_stroke" d="M 0 0L 0.249228 -0.433458C 0.094506 -0.522419 -0.0959029 -0.522164 -0.250386 -0.43279C -0.404869 -0.343415 -0.5 -0.178474 -0.5 -4.81235e-17L 0 0ZM 0 3.31641L -0.5 3.31641C -0.5 3.49536 -0.404363 3.66067 -0.249228 3.74987L 0 3.31641ZM 55.055 34.9717L 54.8058 35.4051C 54.9605 35.4941 55.1509 35.4938 55.3054 35.4045C 55.4599 35.3151 55.555 35.1501 55.555 34.9717L 55.055 34.9717ZM 55.3042 31.2218L 0.249228 -0.433458L -0.249228 0.433458L 54.8058 32.0887L 55.3042 31.2218ZM -0.5 0L -0.5 3.31641L 0.5 3.31641L 0.5 0L -0.5 0ZM -0.249228 3.74987L 54.8058 35.4051L 55.3042 34.5382L 0.249228 2.88295L -0.249228 3.74987ZM 55.555 34.9717L 55.555 31.6553L 54.555 31.6553L 54.555 34.9717L 55.555 34.9717Z"/>
<path id="path60_stroke" d="M 0 7.54408L -0.5 7.54408C -0.5 7.72314 -0.40425 7.88853 -0.248968 7.97769L 0 7.54408ZM 0 0L 0.249795 -0.433131C 0.0950884 -0.522353 -0.09546 -0.522285 -0.250103 -0.432953C -0.404745 -0.343622 -0.5 -0.17859 -0.5 -9.61745e-17L 0 0ZM 1.96 1.13037L 2.46 1.13037C 2.46 0.95165 2.36461 0.786521 2.20979 0.697236L 1.96 1.13037ZM 2.20897 8.23586L 0.248968 7.11047L -0.248968 7.97769L 1.71103 9.10308L 2.20897 8.23586ZM 0.5 7.54408L 0.5 0L -0.5 0L -0.5 7.54408L 0.5 7.54408ZM -0.249795 0.433131L 1.71021 1.5635L 2.20979 0.697236L 0.249795 -0.433131L -0.249795 0.433131ZM 1.46 1.13037L 1.46 8.66947L 2.46 8.66947L 2.46 1.13037L 1.46 1.13037Z"/>
<path id="path61_stroke" d="M 0 10.3028L -0.5 10.3028C -0.5 10.4815 -0.404611 10.6466 -0.249795 10.7359L 0 10.3028ZM 0 0L 0.249795 -0.433131C 0.0950884 -0.522353 -0.09546 -0.522285 -0.250103 -0.432953C -0.404745 -0.343622 -0.5 -0.17859 -0.5 -9.61745e-17L 0 0ZM 1.96 1.13037L 2.46 1.13037C 2.46 0.95165 2.36461 0.786521 2.20979 0.697236L 1.96 1.13037ZM 2.20979 11L 0.249795 9.86964L -0.249795 10.7359L 1.71021 11.8663L 2.20979 11ZM 0.5 10.3028L 0.5 0L -0.5 0L -0.5 10.3028L 0.5 10.3028ZM -0.249795 0.433131L 1.71021 1.5635L 2.20979 0.697236L 0.249795 -0.433131L -0.249795 0.433131ZM 1.46 1.13037L 1.46 11.4331L 2.46 11.4331L 2.46 1.13037L 1.46 1.13037Z"/>
<path id="path62_stroke" d="M 0 6.05518L -0.5 6.05518C -0.5 6.23444 -0.404041 6.39998 -0.248491 6.48906L 0 6.05518ZM 0 0L 0.249317 -0.433406C 0.0945981 -0.522408 -0.0958329 -0.522183 -0.250341 -0.432816C -0.404849 -0.343448 -0.5 -0.178492 -0.5 -4.81178e-17L 0 0ZM 1.965 1.13037L 2.465 1.13037C 2.465 0.951453 2.3694 0.786174 2.21432 0.696961L 1.965 1.13037ZM 2.21349 6.74669L 0.248491 5.6213L -0.248491 6.48906L 1.71651 7.61445L 2.21349 6.74669ZM 0.5 6.05518L 0.5 0L -0.5 0L -0.5 6.05518L 0.5 6.05518ZM -0.249317 0.433406L 1.71568 1.56377L 2.21432 0.696961L 0.249317 -0.433406L -0.249317 0.433406ZM 1.465 1.13037L 1.465 7.18057L 2.465 7.18057L 2.465 1.13037L 1.465 1.13037Z"/>
<path id="path63_stroke" d="M 0 3.76955L -0.5 3.76955C -0.5 3.94847 -0.404402 4.11374 -0.249317 4.20296L 0 3.76955ZM 0 0L 0.249317 -0.433406C 0.0945981 -0.522408 -0.0958329 -0.522183 -0.250341 -0.432816C -0.404849 -0.343448 -0.5 -0.178492 -0.5 -4.81178e-17L 0 0ZM 1.965 1.13037L 2.465 1.13037C 2.465 0.951453 2.3694 0.786174 2.21432 0.696961L 1.965 1.13037ZM 2.21432 4.46651L 0.249317 3.33614L -0.249317 4.20296L 1.71568 5.33332L 2.21432 4.46651ZM 0.5 3.76955L 0.5 0L -0.5 0L -0.5 3.76955L 0.5 3.76955ZM -0.249317 0.433406L 1.71568 1.56377L 2.21432 0.696961L 0.249317 -0.433406L -0.249317 0.433406ZM 1.465 1.13037L 1.465 4.89992L 2.465 4.89992L 2.465 1.13037L 1.465 1.13037Z"/>
<path id="path64_fill" d="M 24.4 39.9193L 2.75 27.4704C 1.04772 26.4916 -0.000664458 24.6824 3.15959e-07 22.7248L 3.15959e-07 1.98979C 0.000732407 1.27855 0.382219 0.621654 1.00089 0.266345C 1.61956 -0.0889642 2.38152 -0.0887693 3 0.266856L 24.65 12.7158C 26.3523 13.6946 27.4007 15.5038 27.4 17.4614L 27.4 38.1914C 27.4011 38.9036 27.0203 39.5621 26.4013 39.9186C 25.7823 40.2751 25.0193 40.2754 24.4 39.9193Z"/>
<path id="path65_fill" d="M 13.02 26.1757L 2.68 20.0309C 1.01695 19.0418 -0.00104381 17.2543 8.03181e-07 15.3252L 8.03181e-07 1.97986C 0.0042858 1.27039 0.387176 0.616743 1.0052 0.263858C 1.62322 -0.0890275 2.38306 -0.0878777 3 0.266876L 13.36 6.41169C 15.0231 7.40081 16.041 9.18827 16.04 11.1174L 16.04 24.4677C 16.0381 25.1825 15.6517 25.8414 15.0276 26.1944C 14.4035 26.5474 13.6374 26.5402 13.02 26.1757Z"/>
<path id="path66_stroke" d="M 0 17.1696L -0.5 17.1696C -0.5 17.3485 -0.404408 17.5138 -0.249331 17.603L 0 17.1696ZM 0 0L 0.249246 -0.433447C 0.0945245 -0.522417 -0.0958889 -0.522168 -0.250377 -0.432795C -0.404865 -0.343422 -0.5 -0.178477 -0.5 -9.62447e-17L 0 0ZM 19.06 10.9601L 19.56 10.9601C 19.56 10.7811 19.4644 10.6158 19.3092 10.5266L 19.06 10.9601ZM 19.3093 27.7013L 0.249331 16.7362L -0.249331 17.603L 18.8107 28.5681L 19.3093 27.7013ZM 0.5 17.1696L 0.5 0L -0.5 0L -0.5 17.1696L 0.5 17.1696ZM -0.249246 0.433447L 18.8108 11.3935L 19.3092 10.5266L 0.249246 -0.433447L -0.249246 0.433447ZM 18.56 10.9601L 18.56 28.1347L 19.56 28.1347L 19.56 10.9601L 18.56 10.9601Z"/>
<path id="path67_stroke" d="M 0 9.13755L -0.5 9.13755C -0.5 9.31673 -0.404122 9.48221 -0.248675 9.57133L 0 9.13755ZM 0 0L 0.249357 -0.433383C 0.094639 -0.522404 -0.0958018 -0.522192 -0.250321 -0.432827C -0.404841 -0.343462 -0.5 -0.1785 -0.5 -4.81152e-17L 0 0ZM 2.38 1.36939L 2.88 1.36939C 2.88 1.19049 2.78442 1.02522 2.62936 0.936004L 2.38 1.36939ZM 2.62867 10.0682L 0.248675 8.70378L -0.248675 9.57133L 2.13133 10.9357L 2.62867 10.0682ZM 0.5 9.13755L 0.5 0L -0.5 0L -0.5 9.13755L 0.5 9.13755ZM -0.249357 0.433383L 2.13064 1.80277L 2.62936 0.936004L 0.249357 -0.433383L -0.249357 0.433383ZM 1.88 1.36939L 1.88 10.502L 2.88 10.502L 2.88 1.36939L 1.88 1.36939Z"/>
<path id="path68_stroke" d="M 0 12.4789L -0.5 12.4789C -0.5 12.6576 -0.404592 12.8227 -0.249751 12.912L 0 12.4789ZM 0 0L 0.249751 -0.433156C 0.0950437 -0.522358 -0.095494 -0.522276 -0.250124 -0.432941C -0.404755 -0.343606 -0.5 -0.178581 -0.5 -4.809e-17L 0 0ZM 2.375 1.36939L 2.875 1.36939C 2.875 1.19065 2.77959 1.02551 2.62475 0.936231L 2.375 1.36939ZM 2.62475 13.4151L 0.249751 12.0457L -0.249751 12.912L 2.12525 14.2814L 2.62475 13.4151ZM 0.5 12.4789L 0.5 0L -0.5 0L -0.5 12.4789L 0.5 12.4789ZM -0.249751 0.433156L 2.12525 1.80254L 2.62475 0.936231L 0.249751 -0.433156L -0.249751 0.433156ZM 1.875 1.36939L 1.875 13.8482L 2.875 13.8482L 2.875 1.36939L 1.875 1.36939Z"/>
<path id="path69_stroke" d="M 0 7.32498L -0.5 7.32498C -0.5 7.50388 -0.40442 7.66914 -0.249357 7.75836L 0 7.32498ZM 0 0L 0.248675 -0.433775C 0.0939389 -0.522482 -0.0963341 -0.522046 -0.250662 -0.43263C -0.404989 -0.343214 -0.5 -0.17836 -0.5 0L 0 0ZM 2.38 1.36441L 2.88 1.36441C 2.88 1.18523 2.78412 1.01975 2.62867 0.930633L 2.38 1.36441ZM 2.62936 8.26098L 0.249357 6.8916L -0.249357 7.75836L 2.13064 9.12775L 2.62936 8.26098ZM 0.5 7.32498L 0.5 0L -0.5 0L -0.5 7.32498L 0.5 7.32498ZM -0.248675 0.433775L 2.13133 1.79818L 2.62867 0.930633L 0.248675 -0.433775L -0.248675 0.433775ZM 1.88 1.36441L 1.88 8.69437L 2.88 8.69437L 2.88 1.36441L 1.88 1.36441Z"/>
<path id="path70_stroke" d="M 0 4.56629L -0.5 4.56629C -0.5 4.74502 -0.404592 4.91016 -0.249751 4.99944L 0 4.56629ZM 0 0L 0.249751 -0.433156C 0.0950437 -0.522358 -0.095494 -0.522276 -0.250124 -0.432941C -0.404755 -0.343606 -0.5 -0.178581 -0.5 -4.809e-17L 0 0ZM 2.375 1.36939L 2.875 1.36939C 2.875 1.19065 2.77959 1.02551 2.62475 0.936231L 2.375 1.36939ZM 2.62475 5.50252L 0.249751 4.13313L -0.249751 4.99944L 2.12525 6.36883L 2.62475 5.50252ZM 0.5 4.56629L 0.5 0L -0.5 0L -0.5 4.56629L 0.5 4.56629ZM -0.249751 0.433156L 2.12525 1.80254L 2.62475 0.936231L 0.249751 -0.433156L -0.249751 0.433156ZM 1.875 1.36939L 1.875 5.93567L 2.875 5.93567L 2.875 1.36939L 1.875 1.36939Z"/>
<path id="path71_stroke" d="M -0.5 4.00832C -0.5 5.90973 0.167449 7.98746 1.22165 9.80857C 2.27579 11.6296 3.74454 13.2421 5.3977 14.183L 5.8923 13.3138C 4.43046 12.4819 3.07671 11.0171 2.0871 9.30758C 1.09755 7.59815 0.5 5.69221 0.5 4.00832L -0.5 4.00832ZM 5.3977 14.183C 7.04561 15.1208 8.65455 15.2722 9.88407 14.5682C 11.1157 13.863 11.79 12.401 11.79 10.5017L 10.79 10.5017C 10.79 12.1877 10.1993 13.2354 9.38718 13.7004C 8.57295 14.1666 7.35939 14.1488 5.8923 13.3138L 5.3977 14.183ZM 11.79 10.5017C 11.79 8.60029 11.1226 6.52256 10.0684 4.70145C 9.01421 2.88045 7.54546 1.26787 5.8923 0.327065L 5.3977 1.19618C 6.85954 2.02811 8.21329 3.49292 9.2029 5.20245C 10.1924 6.91187 10.79 8.81781 10.79 10.5017L 11.79 10.5017ZM 5.8923 0.327065C 4.24537 -0.610198 2.63655 -0.76618 1.40653 -0.0641463C 0.173864 0.639396 -0.5 2.10234 -0.5 4.00832L 0.5 4.00832C 0.5 2.31405 1.09114 1.26728 1.90222 0.804351C 2.71595 0.339915 3.92963 0.360708 5.3977 1.19618L 5.8923 0.327065Z"/>
<path id="path72_stroke" d="M 5.645 0.767674L 6.145 0.767674C 6.145 0.588668 6.04931 0.423319 5.89409 0.33414L 5.645 0.767674ZM 0 4.01437L -0.5 4.01437C -0.5 4.1933 -0.404387 4.35859 -0.249283 4.44779L 0 4.01437ZM 5.645 7.26106L 5.39572 7.69449C 5.55044 7.78347 5.74086 7.78324 5.89536 7.69387C 6.04986 7.6045 6.145 7.43955 6.145 7.26106L 5.645 7.26106ZM 5.89409 0.33414C 4.24326 -0.614377 2.63307 -0.766754 1.40315 -0.0590982C 0.172519 0.648962 -0.5 2.11583 -0.5 4.01437L 0.5 4.01437C 0.5 2.3276 1.08998 1.27479 1.90185 0.807671C 2.71443 0.340144 3.92674 0.357072 5.39591 1.20121L 5.89409 0.33414ZM -0.249283 4.44779L 5.39572 7.69449L 5.89428 6.82764L 0.249283 3.58094L -0.249283 4.44779ZM 6.145 7.26106L 6.145 0.767674L 5.145 0.767674L 5.145 7.26106L 6.145 7.26106Z"/>
<path id="path73_stroke" d="M 3.8 0.371184C 4.005 0.186171 4.0212 -0.129997 3.83618 -0.334996C 3.65117 -0.539995 3.335 -0.556197 3.13 -0.371184L 3.8 0.371184ZM -0.334996 2.756C -0.539995 2.94101 -0.556197 3.25718 -0.371184 3.46218C -0.186171 3.66718 0.129997 3.68338 0.334996 3.49837L -0.334996 2.756ZM 3.13 -0.371184L -0.334996 2.756L 0.334996 3.49837L 3.8 0.371184L 3.13 -0.371184Z"/>
<path id="path74_stroke" d="M 2.52899 7.31439C 2.6359 7.569 2.92897 7.68873 3.18358 7.58182C 3.43818 7.47492 3.55792 7.18185 3.45101 6.92724L 2.52899 7.31439ZM 0.461008 -0.193575C 0.3541 -0.448183 0.0610324 -0.567917 -0.193575 -0.461008C -0.448183 -0.3541 -0.567917 -0.0610324 -0.461008 0.193575L 0.461008 -0.193575ZM 3.45101 6.92724L 0.461008 -0.193575L -0.461008 0.193575L 2.52899 7.31439L 3.45101 6.92724Z"/>
<path id="path75_fill" d="M 2.745 3.3911C 6.405 5.49249 12.335 5.49249 15.99 3.3911C 17.82 2.34041 18.735 1.39927 18.735 0L 18.735 1.79265C 18.735 3.172 17.82 4.55135 15.99 5.60204C 12.33 7.70343 6.4 7.70343 2.745 5.60204C 0.915 4.55135 0 3.172 0 1.79265L 0 0C -7.10543e-15 1.37935 0.915 2.34041 2.745 3.3911Z"/>
<path id="path76_fill" fill-rule="evenodd" d="M 2.74512 9.19482C 0.915039 8.14404 0 6.76465 0 5.38525C 0 4.00586 0.915039 2.63184 2.74512 1.57617C 6.3999 -0.525391 12.3301 -0.525391 15.99 1.57617C 17.8201 2.62695 18.7351 4.00586 18.7351 5.38525C 18.7351 6.76465 17.8201 8.14404 15.99 9.19482C 12.335 11.2964 6.40503 11.2964 2.74512 9.19482ZM 4.12988 2.39795C 2.68506 3.20459 1.95996 4.29492 1.95996 5.38574C 1.95996 6.47607 2.66992 7.56641 4.12988 8.37305C 7.04492 10.0366 11.7349 10.0366 14.6299 8.37305C 16.075 7.56641 16.8 6.45117 16.8 5.38574C 16.8 4.31982 16.075 3.22949 14.6299 2.39795C 11.7148 0.734375 7.0249 0.734375 4.12988 2.39795Z"/>
<path id="path77_fill" d="M 0 4.23514C 0 3.14461 0.725 2.05408 2.17 1.24739C 5.065 -0.415796 9.755 -0.415796 12.67 1.24739C 14.115 2.07898 14.84 3.16951 14.84 4.23514C 14.84 5.30078 14.115 6.4162 12.67 7.2229C 9.775 8.88608 5.085 8.88608 2.17 7.2229C 0.71 6.4162 0 5.32567 0 4.23514Z"/>
<path id="path78_fill" d="M 12.67 2.87571C 9.775 1.21253 5.085 1.21253 2.17 2.87571C 1.25065 3.33658 0.529647 4.113 0.14 5.06176C 0.0478576 4.7958 0.00055166 4.51649 0 4.23514C 0 3.14461 0.725 2.05408 2.17 1.24739C 5.065 -0.415796 9.755 -0.415796 12.67 1.24739C 14.115 2.07898 14.84 3.16951 14.84 4.23514C 14.8394 4.51648 14.7921 4.79578 14.7 5.06176C 14.3104 4.113 13.5894 3.33658 12.67 2.87571Z"/>
<path id="path79_fill" d="M 1.67 3.32637C 2.59232 3.32637 3.34 2.58173 3.34 1.66318C 3.34 0.744633 2.59232 0 1.67 0C 0.747684 0 0 0.744633 0 1.66318C 0 2.58173 0.747684 3.32637 1.67 3.32637Z"/>
<path id="path80_fill" d="M 0 1.67696C 0 3.8537 1.43505 6.03043 4.30515 7.69087C 10.0454 10.9952 19.3567 10.9952 25.101 7.69087C 27.9876 6.0387 29.4062 3.8537 29.4062 1.67696L 29.4062 0L 0 0L 0 1.67696Z"/>
<path id="path81_fill" d="M 4.30825 14.5082C 10.0485 17.8125 19.3598 17.8125 25.1041 14.5082C 30.8485 11.2038 30.8443 5.80533 25.1041 2.48446C 19.3639 -0.836409 10.0526 -0.819887 4.30825 2.48446C -1.43608 5.78881 -1.43608 11.1873 4.30825 14.5082Z"/>
<path id="path82_fill" d="M 0 0L 0 1.67696C 0 3.8537 1.43505 6.03043 4.30515 7.69087C 4.83144 7.99803 5.37534 8.27387 5.93402 8.51696L 5.93402 6.90609L 12.3711 0.966522L 0 0Z"/>
<path id="path83_fill" d="M 14.7133 0L 2.75458 0C -1.36914 3.30435 -0.870167 7.98413 4.30097 10.9704C 4.87823 11.3015 5.47601 11.5954 6.09066 11.8502L 14.7133 11.8502L 14.7133 0Z"/>
<path id="path84_fill" d="M 0 2.47826C 0 4.47326 1.31546 6.46826 3.95052 7.99239C 9.21649 11.0365 17.7526 11.0365 23.0186 7.99239C 25.6495 6.46826 26.9691 4.47326 26.9691 2.47826L 26.9691 0L 0 0L 0 2.47826Z"/>
<path id="path85_fill" d="M 2.35361 7.94283C 5.49588 9.76022 10.601 9.76022 13.7351 7.94283C 16.8691 6.12543 16.8773 3.18043 13.7351 1.36304C 10.5928 -0.454348 5.48763 -0.454348 2.35361 1.36304C -0.780411 3.18043 -0.788659 6.12543 2.35361 7.94283Z"/>
<path id="path86_fill" d="M 0 0L 0 2.47826C 0 4.47326 1.31546 6.46826 3.95052 7.99239L 3.95052 5.51413L 1.97526 0.466739L 0 0Z"/>
<path id="path87_fill" d="M 26.9691 34.2826C 26.9691 30.1852 25.1546 30.9783 22.0577 16.2202C 20.7918 10.2063 20.8 0 20.8 0L 6.16907 0C 6.16907 0 6.16907 10.2146 4.91134 16.2409C 1.81443 31.003 0 30.2017 0 34.2826C 0 36.2735 1.31959 38.2685 3.95052 39.7885C 9.21649 42.8326 17.7526 42.8326 23.0186 39.7885C 25.6454 38.2685 26.9649 36.2776 26.9691 34.2826Z"/>
<path id="path88_fill" d="M 11.6247 0C 11.6247 0 11.7773 12.9489 10.1031 22.0854C 8.54845 30.5652 3.95052 39.8091 3.95052 39.8091C 1.32371 38.2891 0.00412371 36.2983 0 34.3033C 0 30.2059 1.81443 30.9989 4.91134 16.2409C 6.1732 10.2063 6.16907 0 6.16907 0L 11.6247 0Z"/>
<path id="path89_fill" d="M 0 1.61913C 0 3.18043 1.03093 4.74587 3.09278 5.93543C 7.21649 8.3187 13.901 8.3187 18.0289 5.93543C 20.0907 4.74174 21.1216 3.18043 21.1216 1.61913L 21.1216 0L 0 0L 0 1.61913Z"/>
<path id="path90_fill" d="M 3.09433 10.4242C 7.21804 12.8074 13.9026 12.8074 18.0304 10.4242C 22.1582 8.04092 22.1541 4.17071 18.0304 1.78745C 13.9067 -0.595815 7.22217 -0.595815 3.09433 1.78745C -1.03351 4.17071 -1.02938 8.03679 3.09433 10.4242Z"/>
<path id="path91_fill" d="M 2.39691 8.08326C 5.59278 9.93369 10.7763 9.93369 13.9722 8.08326C 17.168 6.23283 17.168 3.23826 13.9722 1.38783C 10.7763 -0.462609 5.59278 -0.462609 2.39691 1.38783C -0.798969 3.23826 -0.798969 6.23696 2.39691 8.08326Z"/>
<path id="path92_fill" d="M 0 0L 0 1.60261C 0 3.16391 1.03093 4.72935 3.09278 5.91891L 3.09278 2.94913L 0 0Z"/>
<path id="path93_fill" d="M 10.165 0L 4.94434 0C 4.30518 0.228034 3.68704 0.511349 3.09692 0.846739C -1.02679 3.22587 -1.02679 7.07543 3.06393 9.46283L 10.165 9.46283L 10.165 0Z"/>
<path id="path94_fill" d="M 0 1.23913C 0 2.45348 0.804124 3.67196 2.40825 4.59717C 5.6165 6.45174 10.8206 6.45174 14.0289 4.59717C 15.633 3.66783 16.4371 2.45348 16.4371 1.23913L 16.4371 0L 0 0L 0 1.23913Z"/>
<path id="path95_fill" d="M 2.40619 8.11114C 5.61443 9.96571 10.8186 9.96571 14.0268 8.11114C 17.2351 6.25658 17.2351 3.24549 14.0268 1.39092C 10.8186 -0.463641 5.61443 -0.463641 2.40619 1.39092C -0.802062 3.24549 -0.802062 6.25658 2.40619 8.11114Z"/>
<path id="path96_fill" d="M 8.21754 0L 3.81753 0C 3.3352 0.191562 2.86309 0.408011 2.4031 0.648478C -0.796898 2.20152 -0.796898 5.41087 2.37836 7.25717L 8.21754 7.25717L 8.21754 0Z"/>
<path id="path97_fill" d="M 11.6742 0C 11.6742 0 0 0.305652 0 1.52826C 0 3.21348 0.931959 2.62696 3.71134 8.6987C 4.62268 10.6978 4.90309 13.7915 4.98144 14.8943L 4.98144 15.2661C 4.98144 16.2326 5.6165 17.195 6.89072 17.9343C 7.21828 18.1223 7.56025 18.2839 7.9134 18.4176C 10.4454 19.3841 13.8845 19.2437 16.1155 17.9343C 17.3526 17.2115 17.9959 16.2822 18.0206 15.3239C 18.0206 15.3239 18.1485 11.1522 19.2784 8.67391C 22.0454 2.60217 22.9897 3.1887 22.9897 1.50348C 22.9773 0.293261 11.6742 0 11.6742 0Z"/>
<path id="path98_fill" d="M 6.48247 0.346957C 6.48247 0.346957 0 1.23913 0 2.46174C 0 4.14696 0.931959 3.56043 3.71134 9.63217C 4.62268 11.6313 4.90309 14.725 4.98144 15.8278L 4.98144 16.1996C 4.98144 17.1661 5.6165 18.1285 6.89072 18.8678C 7.22054 19.0515 7.56219 19.2129 7.9134 19.3511C 8.45561 19.5629 9.01602 19.7247 9.58763 19.8343C 10.1443 19.9376 11.0845 19.9872 11.0845 19.9872L 11.1959 0"/>
<path id="path99_fill" d="M 0 1.3713C 0 3.13087 1.15876 4.89044 3.48041 6.23283C 8.12371 8.91761 15.6495 8.91761 20.2928 6.23283C 22.6144 4.89044 23.7732 3.13087 23.7732 1.3713L 23.7732 0L 0 0L 0 1.3713Z"/>
<path id="path100_fill" d="M 3.47784 11.7428C 8.12114 14.4276 15.6469 14.4276 20.2902 11.7428C 24.9335 9.05805 24.9335 4.72109 20.2902 2.01979C 15.6469 -0.681517 8.12114 -0.664995 3.47784 2.01979C -1.16546 4.70457 -1.15309 9.0787 3.47784 11.7428Z"/>
<path id="path101_fill" d="M 11.8853 0L 1.08942 0C -0.341503 1.79261 -0.362122 3.87022 1.02345 5.67109L 11.8853 5.67109L 11.8853 0Z"/>
<path id="path102_fill" d="M 11.6742 0C 11.6742 0 0 0.293261 0 1.53239C 0 3.21761 0.931959 2.63109 3.71134 8.70283C 4.62268 10.702 4.90309 13.7957 4.98144 14.8985L 4.98144 15.2702C 4.98144 16.2367 5.6165 17.1991 6.89072 17.9385C 8.30863 18.6934 9.89557 19.073 11.501 19.0413C 13.1065 19.073 14.6934 18.6934 16.1113 17.9385C 17.3485 17.2157 17.9918 16.2863 18.0165 15.328C 18.0165 15.328 18.1567 11.1646 19.2866 8.6863C 22.0536 2.61456 22.9979 3.20109 22.9979 1.51587C 22.9773 0.293261 11.6742 0 11.6742 0Z"/>
<path id="path103_fill" d="M 11.6742 0C 11.6742 0 0 0.293261 0 1.53239C 0 3.21761 0.931959 2.63109 3.71134 8.70283C 4.62268 10.702 4.90309 13.7957 4.98144 14.8985L 4.98144 15.2702C 4.98144 16.2367 5.6165 17.1991 6.89072 17.9385C 8.30863 18.6934 9.89557 19.073 11.501 19.0413"/>
<path id="path104_fill" d="M 0 1.50761C 0 3.46543 1.29485 5.42739 3.88041 6.92261C 9.05155 9.91304 17.4351 9.91304 22.6062 6.92261C 25.1918 5.42739 26.4866 3.46543 26.4866 1.50761L 26.4866 0L 0 0L 0 1.50761Z"/>
<path id="path105_fill" d="M 3.8799 13.0697C 9.05103 16.0602 17.4345 16.0602 22.6098 13.0697C 27.7851 10.0793 27.7809 5.2219 22.6098 2.23973C 17.4387 -0.742445 9.05515 -0.750705 3.8799 2.23973C -1.29536 5.23016 -1.29124 10.0793 3.8799 13.0697Z"/>
<path id="path106_fill" d="M 13.2431 0L 1.21419 0C -0.38169 1.99913 -0.402309 4.31217 1.13996 6.31957L 13.2431 6.31957L 13.2431 0Z"/>
<path id="path107_fill" d="M 20.899 8.78543C 20.899 14.568 16.2227 16.117 10.4495 16.117C 4.67629 16.117 0 14.568 0 8.78543C 0 3.00283 4.67629 0 10.4495 0C 16.2227 0 20.899 3.00696 20.899 8.78543Z"/>
<path id="path108_fill" d="M 17.5175 7.36457C 17.5175 12.2096 13.5959 13.5107 8.75876 13.5107C 3.92165 13.5107 0 12.2096 0 7.36457C 0 2.51957 3.9299 0 8.75876 0C 13.5876 0 17.5175 2.51957 17.5175 7.36457Z"/>
<path id="path109_fill" d="M 3.16289 6.33609C 4.9097 6.33609 6.32577 4.91771 6.32577 3.16804C 6.32577 1.41838 4.9097 0 3.16289 0C 1.41607 0 0 1.41838 0 3.16804C 0 4.91771 1.41607 6.33609 3.16289 6.33609Z"/>
<path id="path110_fill" d="M 2.59794 5.20435C 4.03274 5.20435 5.19588 4.03931 5.19588 2.60217C 5.19588 1.16503 4.03274 0 2.59794 0C 1.16314 0 0 1.16503 0 2.60217C 0 4.03931 1.16314 5.20435 2.59794 5.20435Z"/>
<path id="path111_fill" d="M 0 1.68109C 0 3.85783 1.43505 6.03043 4.32165 7.69087C 4.84794 7.99803 5.39184 8.27387 5.95052 8.51696C 11.7237 10.9952 19.8887 10.7267 25.1175 7.69087C 28.0041 6.0387 29.4227 3.8537 29.4227 1.67696L 29.4227 0L 0 0L 0 1.68109Z"/>
<path id="path112_fill" d="M 0 0.00413043L 0 1.68109C 0 3.85783 1.43505 6.03043 4.32165 7.69087C 4.84794 7.99803 5.39184 8.27387 5.95052 8.51696L 5.95052 6.90609L 12.3918 0.966522L 0.0206186 0"/>
<path id="path113_fill" d="M 22.3423 2.47826C 16.6021 -0.826087 7.29072 -0.826087 1.54639 2.47826C 1.00494 2.78946 0.487978 3.14156 0 3.53152L 11.9588 3.53152L 11.9588 15.3817L 3.33608 15.3817C 9.08454 17.7898 17.1629 17.4965 22.3423 14.502C 28.0825 11.1852 28.0825 5.79913 22.3423 2.47826Z"/>
<path id="path114_fill" d="M 0 0.00413043L 0 2.48239C 0 4.47739 1.31546 6.47239 3.95052 7.99652L 3.95052 5.51826L 1.97526 0.454348L 0 0"/>
<path id="path115_fill" d="M 2.35361 7.94283C 5.49588 9.76022 10.601 9.76022 13.7351 7.94283C 16.8691 6.12543 16.8773 3.18043 13.7351 1.36304C 10.5928 -0.454348 5.48763 -0.454348 2.35361 1.36304C -0.780411 3.18043 -0.788659 6.12957 2.35361 7.94283Z"/>
<path id="path116_fill" d="M 26.9649 30.5363C 26.9649 26.4389 24.2103 29.1278 21.1134 14.3574C 19.8515 8.33109 19.8557 0 19.8557 0L 7.10928 0C 7.10928 0 7.10928 8.33109 5.85155 14.3574C 2.75464 29.1237 0 26.4389 0 30.5363C 0 32.5272 1.31959 34.5222 3.95052 36.0422C 9.21649 39.0863 17.7526 39.0863 23.0186 36.0422C 25.6454 34.5222 26.9649 32.5313 26.9691 30.5363L 26.9649 30.5363Z"/>
<path id="path117_fill" d="M 10.466 0.00413043L 7.10928 0.00413043C 7.10928 0.00413043 7.10928 8.33522 5.85155 14.3615C 2.75464 29.1278 0 26.443 0 30.5404C 0 32.5313 1.31959 34.5263 3.95052 36.0463C 3.95052 36.0463 7.39381 29.4376 9.06392 19.8261C 10.5691 11.1522 10.4701 0 10.4701 0"/>
<path id="path118_fill" d="M 0 0L 0 1.62326C 0 3.18457 1.03093 4.75 3.09278 5.93957L 3.09278 2.96978L 0 1.17394e-14"/>
<path id="path119_fill" d="M 3.09433 10.4242C 7.21804 12.8074 13.9026 12.8074 18.0304 10.4242C 22.1582 8.04092 22.1541 4.17071 18.0304 1.78745C 13.9067 -0.595815 7.22217 -0.595815 3.09433 1.78745C -1.03351 4.17071 -1.02938 8.04092 3.09433 10.4242Z"/>
<path id="path120_fill" d="M 10.1691 0L 4.94434 0C 4.30518 0.228034 3.68704 0.511349 3.09692 0.846739C -1.02679 3.22587 -1.02679 7.07543 3.06393 9.46283L 10.1691 9.46283L 10.1691 0Z"/>
<path id="path121_fill" d="M 2.39691 8.08326C 5.59278 9.93369 10.7763 9.93369 13.9722 8.08326C 17.168 6.23283 17.168 3.23826 13.9722 1.38783C 10.7763 -0.462609 5.59278 -0.462609 2.39691 1.38783C -0.798969 3.23826 -0.798969 6.23283 2.39691 8.08326Z"/>
<path id="path122_fill" d="M 0 1.25978C 0 2.47413 0.804124 3.69261 2.40825 4.61783C 5.6165 6.47239 10.8206 6.47239 14.0289 4.61783C 15.633 3.68848 16.4371 2.47413 16.4371 1.25978L 16.4371 0L 0 0L 0 1.25978Z"/>
<path id="path123_fill" d="M 8.8866 17.8022C 13.7945 17.8022 17.7732 13.817 17.7732 8.90109C 17.7732 3.98515 13.7945 0 8.8866 0C 3.97867 0 0 3.98515 0 8.90109C 0 13.817 3.97867 17.8022 8.8866 17.8022Z"/>
<path id="path124_fill" d="M 7.49278 15.01C 11.6309 15.01 14.9856 11.6499 14.9856 7.505C 14.9856 3.3601 11.6309 0 7.49278 0C 3.35463 0 0 3.3601 0 7.505C 0 11.6499 3.35463 15.01 7.49278 15.01Z"/>
<path id="path125_fill" d="M 0 0L 0 1.67696C 0 3.8537 1.43505 6.03043 4.30515 7.69087C 4.83144 7.99803 5.37534 8.27387 5.93402 8.51696L 5.93402 6.90609L 12.3918 0.978913L 0.0206186 0.0123913"/>
<path id="path126_fill" d="M 4.30825 14.5082C 10.0485 17.8125 19.3598 17.8125 25.1041 14.5082C 30.8485 11.2038 30.8443 5.80533 25.1041 2.48446C 19.3639 -0.836409 10.0526 -0.819887 4.30825 2.48446C -1.43608 5.78881 -1.43608 11.2038 4.30825 14.5082Z"/>
<path id="path127_fill" d="M 14.7133 0L 2.75458 0C -1.36914 3.30435 -0.870167 7.98413 4.30097 10.9704C 4.87823 11.3015 5.47601 11.5954 6.09066 11.8502L 14.701 11.8502L 14.7133 0Z"/>
<path id="path128_fill" d="M 3.94948 13.3129C 9.21546 16.357 17.7515 16.357 23.0175 13.3129C 28.2835 10.2688 28.2835 5.33291 23.0175 2.28465C 17.7515 -0.763614 9.21546 -0.759483 3.94948 2.28465C -1.31649 5.32878 -1.31649 10.2688 3.94948 13.3129Z"/>
<path id="path129_fill" d="M 2.35052 7.94283C 5.49278 9.76022 10.5979 9.76022 13.732 7.94283C 16.866 6.12543 16.8742 3.18043 13.732 1.36304C 10.5897 -0.454348 5.48454 -0.454348 2.35052 1.36304C -0.783505 3.18043 -0.783505 6.12543 2.35052 7.94283Z"/>
<path id="path130_fill" d="M 5.85567 14.3574C 7.11753 8.33109 7.1134 0 7.1134 0L 19.8598 0C 19.8598 0 19.8598 8.33109 21.1175 14.3574C 24.2144 29.1237 26.9691 26.4389 26.9691 30.5363C 26.9691 33.5102 13.4845 34.2537 13.4845 34.2537C 13.4845 34.2537 0 33.5061 0 30.5363C 0.00412371 26.4389 2.75876 29.1237 5.85567 14.3574Z"/>
<path id="path131_fill" d="M 0 0L 0 2.47826C 0 4.47326 1.31546 6.46826 3.95052 7.99239L 3.95052 5.51413L 1.97526 0.454348L 5.86015e-15 0"/>
<path id="path132_fill" d="M 10.1732 0L 4.94434 0C 4.30518 0.228034 3.68704 0.511349 3.09692 0.846739C -1.02679 3.22587 -1.02679 7.07543 3.06393 9.46283L 10.1732 9.46283L 10.1732 0Z"/>
<path id="path133_fill" d="M 2.41237 1.43739C 1.99242 1.67973 1.59858 1.96487 1.23711 2.28826L 0 3.89087L 0 9.17783C 0 10.3922 0.824742 11.6107 2.40825 12.5359C 5.6165 14.3904 10.7959 14.3904 14.0041 12.5359C 15.6082 11.6065 16.4 10.3922 16.4 9.17783L 16.4 4.01478L 15.1629 2.28826L 13.3361 1.73478L 12.268 0.495652L 7.62474 0L 4.16907 0.524565L 3.10103 1.71826L 2.41649 1.43739"/>
<path id="path134_fill" d="M 0 1.6119C 0.270411 1.39784 0.560351 1.20976 0.865979 1.05016C 3.50928 -0.350054 7.79381 -0.350054 10.433 1.05016C 10.7671 1.2232 11.0823 1.43086 11.3732 1.66973C 11.0437 1.9444 10.67 2.16089 10.268 2.30995C 9.73608 2.4669 1.78969 2.81799 0.894845 2.11995C 0 1.4219 1.17203e-14 1.6119 1.17203e-14 1.6119"/>
<path id="path135_fill" d="M 0 0.706304L 0 3.6513C 0.0191621 4.0251 0.215259 4.36729 0.527835 4.57239C 0.820619 4.74174 1.05567 4.60543 1.05567 4.26674L 1.05567 1.24739L 1.42268 1.03674C 1.30023 0.86176 1.23013 0.65543 1.22062 0.441957L 1.22062 0L 0 0.706304Z"/>
<path id="path136_fill" d="M 1.41031 0.710435L 1.41031 3.65543C 1.41385 4.02109 1.2382 4.36526 0.940206 4.57652C 0.647423 4.74587 0.412371 4.60957 0.412371 4.27087L 0.412371 1.28457L 0 1.03674C 0.122455 0.86176 0.19255 0.65543 0.202062 0.441957L 0.202062 0L 1.41031 0.710435Z"/>
<path id="path137_fill" d="M 1.41856 0.689783L 1.41856 3.65543C 1.39463 4.03094 1.19416 4.37277 0.87835 4.57652C 0.585567 4.74587 0.350515 4.60957 0.350515 4.27087L 0.350515 1.22261L 0 1.03674C 0.122455 0.86176 0.19255 0.65543 0.202062 0.441957L 0.202062 0L 1.41856 0.689783Z"/>
<path id="path138_fill" fill-rule="evenodd" d="M 12.2733 1.8197C 9.65118 0.861695 6.7757 0.861695 4.15363 1.8197L 2.94952 1.11365C 5.99274 -0.373168 10.4671 -0.369262 13.5103 1.11365L 12.2733 1.8197ZM 1.92682 7.80505C -0.642273 6.04138 -0.642273 3.45154 1.92682 1.68787L 3.08551 2.3363C 0.858704 3.69959 0.887756 5.74402 3.16388 7.0907L 1.92682 7.80505ZM 14.4959 7.81287C 17.0609 6.04919 17.0609 3.46375 14.4959 1.70398L 13.3453 2.36902C 15.535 3.72791 15.5062 5.75574 13.2505 7.09412L 14.4959 7.81287ZM 4.2569 7.61902C 6.81476 8.52136 9.60382 8.52136 12.1619 7.61902L 13.494 8.38709C 10.4588 9.85339 5.90216 9.79187 2.99493 8.34998L 4.2569 7.61902Z"/>
<path id="path139_fill" d="M 7.04742 1.63565L 8.62268 24.3407L 10 24.6504L 7.57526 25.8937L 3.95052 7.81065L 1.55052 20.0946L 2.70928 20.3011L 0 21.1272L 0.618557 0L 7.04742 1.63565Z"/>
<path id="path140_fill" d="M 0.167599 7.38109C 0.167599 7.38109 -0.368483 8.46739 0.476878 9.09109C 1.32224 9.71478 3.18203 9.16957 5.8377 6.13783C 7.41598 4.3314 8.65139 2.25129 9.48306 0L 8.60471 0C 7.7399 1.2839 6.75243 2.48048 5.65626 3.57283C 3.23976 5.89826 1.33049 6.37326 0.167599 7.38109Z"/>
<path id="path141_fill" d="M 0 1.19371C 0 1.19371 0.556701 -0.00411978 0.981443 1.06577e-05C 1.58763 1.06577e-05 0.907216 1.35892 0.907216 1.35892L 0 1.19371Z"/>
<path id="path142_fill" d="M 1.24211 11.0368C 1.24211 11.0368 4.81325 14.2709 7.17613 13.3044C 7.82768 13.04 7.6751 12.1892 7.58851 11.4746C 7.48129 10.4585 7.2916 9.72744 6.61531 7.53418C 5.25036 3.13114 1.38232 -0.668863 0.429743 0.0993977C -0.522834 0.867659 0.334897 1.55744 0.829743 4.6057C 1.16901 6.73162 1.30708 8.88487 1.24211 11.0368Z"/>
<path id="path143_fill" d="M 0.167599 7.82304C 0.167599 7.82304 -0.368483 8.90935 0.476878 9.53304C 1.32224 10.1567 3.49543 9.9213 6.13049 6.8937C 7.79968 4.87798 9.04016 2.54196 9.77585 0.028913L 8.86038 0C 8.86038 0 7.33873 2.82109 5.97378 4.3287C 3.72636 6.81109 1.33873 6.81109 0.167599 7.82304Z"/>
<path id="path144_fill" d="M 3.0935 0.97784C 1.41515 -1.40129 -1.2034 1.0398 0.619277 3.2124C 1.2667 3.9848 2.11206 4.60023 2.87907 4.3648C 3.7368 4.09632 4.40897 2.84067 3.0935 0.97784Z"/>
<path id="path145_fill" d="M 16.5731 0.0458925C 14.2077 -0.480598 5.61008 3.64182 1.50093 6.31639C -2.60822 8.99096 2.65992 11.2285 6.06841 10.1756C 8.47594 9.42795 17.8848 3.48387 17.8848 3.48387C 20.8192 1.48848 18.9385 0.614502 16.5731 0.0458925Z"/>
<path id="path146_fill" d="M 2.06511 0.25798L 0 30.4469L 3.10293 32.0317L 1.65946 29.8573L 6.02675 8.12901L 9.28246 24.7872L 12.7436 25.8401L 11.0473 24.2607L 10.373 0L 2.06511 0.25798Z"/>
<path id="path147_fill" d="M 2.91269 2.48135C 2.91269 2.48135 2.00657 -0.524909 0.805434 0.0805548C -0.395702 0.686018 -0.343021 4.88214 1.57458 9.63635C 2.8129 12.6512 4.26535 15.5736 5.9208 18.3813L 6.94282 17.4126C 6.94282 17.4126 5.42559 13.7272 4.58796 10.942C 3.33941 6.84595 3.38155 4.39777 2.91269 2.48135Z"/>
<path id="path148_fill" d="M 1.34612 14.3731C 1.34612 14.3731 5.90832 16.9161 8.92697 15.6841C 9.75933 15.3472 9.56441 14.2626 9.45378 13.3518C 9.31681 12.0566 9.07448 11.1247 8.2105 8.32904C 6.46675 2.71666 1.84659 -0.831884 0.640185 0.168447C -0.566219 1.16878 0.192393 0.694937 0.803497 4.59096C 1.22731 7.83369 1.40869 11.1035 1.34612 14.3731Z"/>
<path id="path149_fill" d="M 1.83172 0.45877C 1.83172 0.45877 0.946676 -0.59421 0.166991 0.490359C -0.612693 1.57493 1.37866 4.58645 5.28762 7.89807C 9.19658 11.2097 15.1601 12.4101 15.1601 12.4101L 15.1601 11.3203C 15.1601 11.3203 10.5136 9.36698 8.56967 7.63483C 5.34557 4.82864 3.14349 1.93821 1.83172 0.45877Z"/>
<path id="path150_fill" d="M 3.95202 1.24641C 1.80789 -1.78617 -1.53738 1.32539 0.791142 4.09472C 1.61824 5.07926 2.69821 5.86373 3.67808 5.56363C 4.77385 5.24247 5.62729 3.64194 3.95202 1.24641Z"/>
<path id="path151_fill" d="M 3.97346 0.20584C 4.93753 0.837628 1.29197 1.59577 2.05059 2.62769C 3.14636 4.10713 0.844182 2.62769 1.87147 4.50726C 2.28238 5.26014 3.76273 6.14465 2.20336 5.56024C 0.643992 4.97584 -0.546607 3.37531 0.259418 1.72213C 1.00223 0.216369 3.14109 -0.34171 3.97346 0.20584Z"/>
<path id="path152_fill" d="M 100.589 20.9754L 37.2025 57.5138C 34.7844 58.909 30.5594 58.7352 27.762 57.1242L 1.9481 42.1982C -0.844015 40.5871 -0.396223 36.4384 1.78479 35.0853L 64.9024 0.942429C 67.3204 -0.45277 71.5455 -0.279028 74.3429 1.33203L 100.246 14.1626C 102.501 15.205 103.681 19.0274 100.589 20.9754Z"/>
<path id="path153_fill" d="M 99.6715 21.2386L 36.8068 57.5191C 34.3888 58.9142 30.1637 58.7405 27.3663 57.1294L 2.31105 42.672C -0.48106 41.061 -0.786612 38.6233 1.63146 37.2229L 64.5014 0.942429C 66.9195 -0.45277 71.1446 -0.279028 73.9419 1.33203L 99.0077 15.7947C 101.784 17.4058 102.09 19.8434 99.6715 21.2386Z"/>
<path id="path154_fill" d="M 1.63171 39.571L 64.4964 3.29057C 66.9145 1.89538 71.1395 2.06912 73.9369 3.68018L 99.0027 18.1376C 99.8246 18.5704 100.512 19.2206 100.989 20.0172C 101.79 18.6693 101.094 16.9951 99.0027 15.8052L 73.9316 1.33203C 71.1395 -0.279028 66.9145 -0.45277 64.4911 0.942429L 1.63171 37.2229C 0.0512707 38.139 -0.37018 39.5026 0.319946 40.7925C 0.644717 40.2793 1.09655 39.8585 1.63171 39.571Z"/>
<path id="path155_fill" d="M 1.98609 40.3239L 27.0361 54.7813C 29.8282 56.3924 34.0532 56.5661 36.4766 55.1709L 99.3413 18.8905C 99.8765 18.6029 100.328 18.1822 100.653 17.669C 100.18 16.8745 99.4989 16.2245 98.6828 15.7894L 73.6117 1.33203C 70.8196 -0.279028 66.5945 -0.45277 64.1712 0.942429L 1.31177 37.2229C 0.776603 37.5104 0.324771 37.9311 0 38.4443C 0.477142 39.2409 1.1642 39.8911 1.98609 40.3239Z"/>
<path id="path156_fill" d="M 98.9849 15.7894L 73.9296 1.33203C 71.1375 -0.279028 66.9125 -0.45277 64.4891 0.942429L 1.62969 37.2176C -0.788384 38.6128 -0.477564 41.0504 2.30928 42.6668L 27.3645 57.1242C 30.1567 58.7352 34.3817 58.909 36.8051 57.5138L 99.6645 21.2334C 102.083 19.8382 101.777 17.4005 98.9849 15.7894Z"/>
<path id="path157_fill" d="M 18.9184 18.0384L 0.479918 7.38748C -0.231281 6.97681 -0.141723 6.26079 0.680107 5.80801L 10.0732 0.390423C 10.928 -0.0857672 11.958 -0.128741 12.8495 0.274596L 31.288 10.9255C 31.9992 11.3362 31.9096 12.0522 31.0878 12.505L 21.6947 17.9225C 20.84 18.3987 19.8099 18.4417 18.9184 18.0384Z"/>
<path id="path158_fill" d="M 0 2.84305L 3.11347 4.63838C 4.35622 5.20225 5.79292 5.14365 6.98555 4.48043L 7.74416 4.04344C 8.89262 3.38007 9.01379 2.37974 8.02338 1.81113L 4.90464 0L 0 2.84305Z"/>
<path id="path159_fill" d="M 18.8705 16.5844L 0 5.69662L 9.86722 0L 28.7377 10.8878L 18.8705 16.5844Z"/>
<path id="path160_fill" d="M 17.29 14.9155L 0 4.93848L 8.56599 0L 25.856 9.97699L 17.29 14.9155Z"/>
<path id="path161_fill" fill-rule="evenodd" d="M 73.9298 1.33191L 99.0008 15.7733C 101.777 17.3846 102.083 19.8275 99.6646 21.2225L 36.7945 57.4979C 34.3712 58.8929 30.1463 58.7191 27.3541 57.1083L 2.3094 42.6561C -0.477466 41.0399 -0.788501 38.6019 1.62971 37.2069L 64.4891 0.942262C 66.9124 -0.452757 71.1375 -0.278929 73.9298 1.33191ZM 7.50374 36.1224L 38.6754 54.1127L 93.9012 22.2391L 62.7296 4.2489L 7.50374 36.1224Z"/>
<path id="path162_fill" d="M 0.999629 3.36201C 2.51611 4.13117 4.30877 4.13117 5.82524 3.36201C 7.15808 2.59333 7.15808 1.34555 5.82524 0.576875C 4.30877 -0.192292 2.51611 -0.192292 0.999629 0.576875C -0.33321 1.34555 -0.33321 2.58807 0.999629 3.36201Z"/>
<path id="path163_fill" d="M 0.215516 0.750034C 0.555006 0.921735 0.955994 0.921735 1.29548 0.750034C 1.42511 0.701531 1.511 0.577729 1.511 0.439405C 1.511 0.30108 1.42511 0.177279 1.29548 0.128776C 0.955994 -0.0429252 0.555006 -0.0429252 0.215516 0.128776C 0.0858941 0.177279 0 0.30108 0 0.439405C 0 0.577729 0.0858941 0.701531 0.215516 0.750034Z"/>
<path id="path164_fill" d="M 0.215516 0.750034C 0.0858941 0.701531 0 0.577729 0 0.439405C 0 0.30108 0.0858941 0.177279 0.215516 0.128776C 0.555006 -0.0429252 0.955994 -0.0429252 1.29548 0.128776L 5.99993 2.8402C 6.12955 2.8887 6.21545 3.0125 6.21545 3.15083C 6.21545 3.28915 6.12955 3.41295 5.99993 3.46146C 5.66044 3.63316 5.25945 3.63316 4.91996 3.46146L 0.215516 0.750034Z"/>
<path id="path165_fill" d="M 38.0781 48.9267C 38.0781 51.7382 36.2185 54.5496 32.5044 56.6925C 25.0711 60.9833 13.0123 60.9833 5.57896 56.6925C 1.85965 54.5496 0 51.7382 0 48.9267L 0 0L 38.0781 0L 38.0781 48.9267Z"/>
<path id="path166_fill" d="M 6.00041 0L 0 11.6775L 4.2988 10.0718L 3.13981 17.5111L 9.09281 5.83351L 4.82561 7.47089L 6.00041 0Z"/>
<path id="path167_fill" d="M 5.57369 0L 5.57369 48.9267C 5.57369 51.7382 3.71404 54.5496 0 56.6925L 0 16.9793"/>
<path id="path168_fill" d="M 38.0781 16C 38.0781 18.8115 36.2185 21.6229 32.5044 23.7658C 25.0711 28.0567 13.0123 28.0567 5.57896 23.7658C 1.85965 21.6229 0 18.8115 0 16L 0 0L 38.0781 0L 38.0781 16Z"/>
<path id="path169_fill" d="M 5.57369 0L 5.57369 16C 5.57369 18.8115 3.71404 21.6229 0 23.7658L 0 4.73841L 5.57369 0Z"/>
<path id="path170_fill" d="M 5.57501 3.21817C -1.85834 7.50906 -1.85834 14.464 5.57501 18.7549C 13.0084 23.0458 25.0671 23.0458 32.5005 18.7549C 39.9338 14.464 39.9338 7.50906 32.5005 3.21817C 25.0671 -1.07272 13.0136 -1.07272 5.57501 3.21817Z"/>
<path id="path171_fill" d="M 4.87566 2.81146C -1.62522 6.56007 -1.62522 12.641 4.87566 16.3896C 11.3765 20.1382 21.9128 20.1382 28.4084 16.3896C 34.9041 12.641 34.9093 6.56007 28.4084 2.81146C 21.9076 -0.937152 11.3765 -0.937152 4.87566 2.81146Z"/>
<path id="path172_fill" d="M 12.4433 3.15894C 12.4433 4.07503 11.8375 4.99639 10.6206 5.69662C 8.19196 7.09709 4.25139 7.09709 1.82278 5.69662C 0.605836 4.99639 0 4.07503 0 3.15894L 0 0L 12.4433 0L 12.4433 3.15894Z"/>
<path id="path173_fill" d="M 1.82146 1.0464C -0.607153 2.44687 -0.607153 4.73183 1.82146 6.12177C 4.25007 7.5117 8.19064 7.52223 10.6193 6.12177C 13.0479 4.7213 13.0479 2.43634 10.6193 1.0464C 8.19064 -0.343531 4.25007 -0.354061 1.82146 1.0464Z"/>
<path id="path174_fill" d="M 0 0L 0 8.8345L 3.16088 8.8345L 3.16088 0C 2.10374 0.0386093 1.05012 0.0386093 0 0Z"/>
<path id="path175_fill" d="M 8.67136 0C 7.72309 0.105298 6.75902 0.173742 5.80022 0.205331L 5.1417 0.205331L 4.33568 0.205331L 3.52965 0.205331L 2.87114 0.205331C 1.90707 0.168477 0.948265 0.100033 0 0L 0 3.07997C 0.916656 3.18 1.83858 3.24318 2.77104 3.28003L 2.8764 3.28003L 3.53492 3.28003L 4.34095 3.28003L 5.14697 3.28003L 5.80549 3.28003L 5.91085 3.28003C 6.83804 3.24318 7.76524 3.18 8.67662 3.07997L 8.67136 0Z"/>
<path id="path176_fill" d="M 9.71972 3.37792C 9.71149 2.80224 9.42987 2.26475 8.9611 1.93008L 5.76861 0.0873617C 5.62104 -0.0164792 5.42761 -0.028688 5.26814 0.0557723L 0 3.10941L 4.1671 7.04756L 9.47211 3.98865C 9.65626 3.84268 9.75025 3.61083 9.71972 3.37792Z"/>
<path id="path177_fill" d="M 0.758612 2.11508L 3.9511 3.9578C 4.36729 4.19998 4.70972 3.9578 4.70972 3.38392C 4.70149 2.80823 4.41987 2.27075 3.9511 1.93607L 0.758612 0.0933584C 0.342429 -0.148827 0 0.0933585 0 0.667233C 0.00822405 1.24292 0.289843 1.7804 0.758612 2.11508Z"/>
<path id="path178_fill" d="M 5.42618 1.01086C 5.42618 0.452578 4.97333 0 4.4147 0L 1.01148 0C 0.452856 0 7.48648e-15 0.452578 0 1.01086L 0 8.49755L 5.42618 8.49755L 5.42618 1.01086Z"/>
<path id="path179_fill" d="M 0 1.00823C 0 0.451399 0.451399 0 1.00823 0L 4.42322 0C 4.98005 0 5.43145 0.451399 5.43145 1.00823C 5.43145 1.56506 4.98005 2.01646 4.42322 2.01646L 1.00823 2.01646C 0.451399 2.01646 0 1.56506 0 1.00823Z"/>
<path id="path180_stroke" d="M 54.4327 1.25654C 55.1267 0.862468 55.3698 -0.0195639 54.9758 -0.713533C 54.5817 -1.4075 53.6996 -1.65061 53.0057 -1.25654L 54.4327 1.25654ZM 31.7827 12.4568L 31.0691 11.2002L 31.0606 11.2051L 31.7827 12.4568ZM 31.7827 17.5848L 31.0506 18.8307L 31.0624 18.8374L 31.7827 17.5848ZM 81.1346 45.9626L 81.8567 44.7109L 81.8549 44.7099L 81.1346 45.9626ZM 81.1346 51.0906L 81.8512 52.3454L 81.859 52.341L 81.8667 52.3364L 81.1346 51.0906ZM 81.024 51.1538L 80.3074 49.899L 80.3016 49.9023L 81.024 51.1538ZM 72.1419 51.1538L 72.8654 49.903L 72.8646 49.9025L 72.1419 51.1538ZM 39.4162 32.2528L 40.1389 31.0015L 40.1386 31.0013L 39.4162 32.2528ZM 30.5341 37.3808L 29.8117 38.6323L 29.812 38.6324L 30.5341 37.3808ZM 42.4507 44.2568L 41.7285 45.5083L 41.7286 45.5084L 42.4507 44.2568ZM 42.4507 49.3848L 43.1636 50.6416L 43.1732 50.6362L 43.1827 50.6306L 42.4507 49.3848ZM 29.902 56.5029L 30.608 57.7637L 30.6149 57.7598L 29.902 56.5029ZM 6.32177 69.7073L 5.61576 68.4465L 5.61572 68.4465L 6.32177 69.7073ZM 0 66.0219L -1.44501 66.0219L -1.44499 66.0275L 0 66.0219ZM 1.445 44.5727C 1.445 43.7746 0.798051 43.1277 0 43.1277C -0.798051 43.1277 -1.445 43.7746 -1.445 44.5727L 1.445 44.5727ZM 53.0057 -1.25654L 31.0691 11.2002L 32.4962 13.7133L 54.4327 1.25654L 53.0057 -1.25654ZM 31.0606 11.2051C 29.5752 12.062 28.4965 13.3832 28.4965 15.0109C 28.4965 16.6347 29.5707 17.961 31.0506 18.8306L 32.5148 16.3389C 31.5397 15.766 31.3865 15.2363 31.3865 15.0109C 31.3865 14.7893 31.5352 14.2678 32.5048 13.7084L 31.0606 11.2051ZM 31.0624 18.8374L 80.4143 47.2153L 81.8549 44.7099L 32.503 16.3321L 31.0624 18.8374ZM 80.4125 47.2142C 81.3821 47.7736 81.5308 48.2951 81.5308 48.5167C 81.5308 48.7422 81.3776 49.2718 80.4025 49.8448L 81.8667 52.3364C 83.3466 51.4668 84.4208 50.1406 84.4208 48.5167C 84.4208 46.889 83.3421 45.5678 81.8567 44.7109L 80.4125 47.2142ZM 80.418 49.8358L 80.3074 49.899L 81.7405 52.4086L 81.8512 52.3454L 80.418 49.8358ZM 80.3016 49.9023C 79.3521 50.4503 78.0068 50.767 76.581 50.767C 75.155 50.767 73.8116 50.4503 72.8654 49.903L 71.4183 52.4046C 72.9114 53.2682 74.7868 53.657 76.581 53.657C 78.3753 53.657 80.2514 53.2682 81.7464 52.4052L 80.3016 49.9023ZM 72.8646 49.9025L 40.1389 31.0015L 38.6935 33.5041L 71.4192 52.4051L 72.8646 49.9025ZM 40.1386 31.0013C 38.6436 30.1384 36.7675 29.7495 34.9732 29.7495C 33.179 29.7495 31.3036 30.1383 29.8106 31.002L 31.2577 33.5036C 32.2038 32.9563 33.5472 32.6395 34.9732 32.6395C 36.399 32.6395 37.7444 32.9562 38.6938 33.5043L 40.1386 31.0013ZM 29.8117 31.0013C 28.3222 31.8611 27.2558 33.1927 27.2558 34.8168C 27.2558 36.4409 28.3222 37.7725 29.8117 38.6323L 31.2565 36.1293C 30.3016 35.5781 30.1458 35.0512 30.1458 34.8168C 30.1458 34.5824 30.3016 34.0555 31.2565 33.5043L 29.8117 31.0013ZM 29.812 38.6324L 41.7285 45.5083L 43.1728 43.0052L 31.2563 36.1292L 29.812 38.6324ZM 41.7286 45.5084C 42.6982 46.0678 42.8469 46.5893 42.8469 46.8109C 42.8469 47.0363 42.6936 47.566 41.7186 48.1389L 43.1827 50.6306C 44.6627 49.761 45.7369 48.4347 45.7369 46.8109C 45.7369 45.1832 44.6581 43.862 43.1727 43.0051L 41.7286 45.5084ZM 41.7377 48.1279L 29.189 55.246L 30.6149 57.7598L 43.1636 50.6416L 41.7377 48.1279ZM 29.1959 55.2421L 5.61576 68.4465L 7.02778 70.9681L 30.608 57.7637L 29.1959 55.2421ZM 5.61572 68.4465C 4.74982 68.9314 3.69171 68.9223 2.83435 68.4225L 1.37883 70.9192C 3.12026 71.9344 5.26907 71.953 7.02781 70.968L 5.61572 68.4465ZM 2.83435 68.4225C 1.97709 67.9227 1.44884 67.0073 1.44499 66.0162L -1.44499 66.0275C -1.43715 68.0432 -0.362698 69.9039 1.37883 70.9192L 2.83435 68.4225ZM 1.445 66.0219L 1.445 44.5727L -1.445 44.5727L -1.445 66.0219L 1.445 66.0219Z"/>
<path id="path181_fill" d="M 3.77199 2.09017L 1.76483 31.0261L 0 31.4209L 3.10293 33.0057L 7.73363 9.95593L 10.7997 25.6137L 9.31934 25.877L 12.7805 26.9352L 11.985 0L 3.77199 2.09017Z"/>
<path id="path182_fill" d="M 6.93287 0.4469C 6.93287 0.4469 8.14454 -0.511312 9.14549 0.378456C 10.1464 1.26822 9.96732 3.73746 6.89599 7.83882C 5.06805 10.2893 2.80785 12.3858 0.22653 14.0251L 0 12.9721C 1.37696 11.5512 2.61203 9.99945 3.6877 8.33899C 5.91085 4.69041 5.98987 2.17905 6.93287 0.4469Z"/>
<path id="path183_fill" d="M 8.20974 14.0682C 8.20974 14.0682 3.65807 18.1695 0.628889 16.9586C -0.203476 16.6216 -0.00855537 15.5371 0.102076 14.6262C 0.239047 13.3311 0.481382 12.3992 1.34536 9.60352C 3.08911 3.99114 8.03062 -0.852573 9.24756 0.126698C 10.4645 1.10597 9.374 1.95362 8.7629 5.84438C 8.319 8.56202 8.13379 11.3156 8.20974 14.0682Z"/>
<path id="path184_fill" d="M 11.0842 0.238914C 11.0842 0.238914 11.8638 -0.440259 12.8226 0.491629C 13.7815 1.42352 12.3591 4.73514 9.09808 8.68908C 5.8371 12.643 0.179117 14.8806 0.179117 14.8806L 0 13.8276C 0 13.8276 4.21451 11.0793 5.8371 9.05236C 8.49751 5.67756 10.0569 1.92368 11.0842 0.238914Z"/>
<path id="path185_fill" d="M 0.946834 1.24641C 3.09097 -1.78617 6.43623 1.32539 4.10772 4.09472C 3.28062 5.07926 2.20065 5.86373 1.22078 5.56363C 0.119737 5.22141 -0.733702 3.62088 0.946834 1.24641Z"/>
<path id="path186_fill" d="M 0.487926 0.152427C -0.476144 0.784216 1.06215 2.06885 0.303541 3.10077C -0.792232 4.58021 1.50994 3.10077 0.482658 4.98034C 0.0717428 5.73322 0.171837 7.14422 1.73121 6.55981C 3.29058 5.97541 4.89209 4.60127 4.20196 2.19521C 3.72256 0.589414 1.34136 -0.395122 0.487926 0.152427Z"/>
</defs>
</svg>
