<svg width="138" height="76" viewBox="0 0 138 76" fill="none" xmlns="http://www.w3.org/2000/svg">
<path d="M0 51.2376C9.09179e-05 57.2709 2.24639 63.0881 6.30122 67.5557C10.356 72.0233 15.9289 74.8213 21.934 75.4045C22.614 75.4747 23.3027 75.5142 23.9958 75.5185H116.43C116.601 75.5185 116.768 75.5185 116.935 75.4922C119.99 75.295 122.972 74.4668 125.692 73.0599C128.412 71.653 130.811 69.6979 132.738 67.3178C134.665 64.9378 136.078 62.1844 136.888 59.2312C137.698 56.2779 137.887 53.189 137.444 50.159C137.001 47.1289 135.935 44.2236 134.313 41.626C132.691 39.0284 130.549 36.7949 128.021 35.0664C125.493 33.3378 122.635 32.1517 119.626 31.5826C116.617 31.0136 113.523 31.0741 110.539 31.7602C110.539 28.4434 109.673 25.1839 108.029 22.3036C106.384 19.4233 104.016 17.0219 101.159 15.3364C98.3028 13.6509 95.0558 12.7397 91.7393 12.6927C88.4228 12.6457 85.1514 13.4646 82.2481 15.0684C79.2805 9.5541 74.5875 5.16431 68.8875 2.57114C63.1875 -0.0220246 56.7947 -0.675643 50.6878 0.710353C44.581 2.09635 39.0967 5.44558 35.0745 10.2453C31.0524 15.0449 28.7141 21.0306 28.4177 27.2857C24.929 26.6863 21.3515 26.8563 17.9354 27.7838C14.5193 28.7112 11.347 30.3737 8.6404 32.655C5.93378 34.9363 3.75818 37.7813 2.26573 40.991C0.773275 44.2008 9.12782e-06 47.6978 0 51.2376Z" fill="white"/>
</svg>
