<svg width="964" height="844" viewBox="0 0 964 844" fill="none" xmlns="http://www.w3.org/2000/svg">
<path d="M3.88032e-05 426.792C1.00822 432.536 2.30448 442.892 4.77347 453.107C7.36594 463.711 10.4933 474.299 14.4643 484.67C18.5793 495.289 23.8261 505.659 28.7024 516.108C32.8174 524.817 36.9323 533.511 41.3149 542.143C43.5781 546.646 46.2734 551.039 48.8453 555.464C53.1455 562.869 57.2606 570.337 61.8694 577.634C66.4782 584.93 71.5603 592.274 76.6424 599.508C81.2718 606.091 85.9834 612.674 91.0448 619.101C95.1598 624.411 99.8921 629.55 104.522 634.626C110.036 640.836 115.612 646.876 121.434 652.868C127.257 658.861 133.615 665.133 139.952 671.095C146.824 677.491 153.778 683.872 161.206 689.942C172.255 698.962 183.489 707.874 195.052 716.568C211.167 728.664 228.352 739.919 246.49 750.257C260.357 758.19 274.369 766.015 288.874 773.327C301.219 779.537 314.244 785.049 327.165 790.638C358.7 804.12 391.918 815.227 426.337 823.799C460.049 832.407 494.88 838.282 530.241 841.327C547.689 842.88 565.321 843.423 582.893 843.858C602.427 844.356 621.981 843.546 641.326 841.436C657.518 839.666 673.814 838.191 689.76 835.583C705.705 832.975 721.528 829.171 737.288 825.709C759.139 820.912 779.652 813.801 799.919 806.365C811.037 802.231 821.861 797.66 832.345 792.671C844.855 786.787 857.261 780.702 868.989 774.041C883.909 765.585 897.692 756.043 910.139 745.553C919.977 737.363 928.831 728.531 936.599 719.16C950.209 702.798 959.06 684.441 962.565 665.304C964.478 654.053 964.478 642.663 962.565 631.413C959.846 616.478 955.455 601.743 949.438 587.368C945.323 576.764 940.426 566.301 936.085 555.728C932.155 546.133 928.225 536.539 924.789 526.851C922.608 520.641 921.229 514.431 919.707 508.112C918.102 501.53 916.559 494.947 915.427 488.318C914.296 481.689 913.493 474.672 912.65 467.84C911.84 461.33 911.1 454.825 910.428 448.326C909.79 442.209 909.275 436.092 908.679 429.975L906.354 405.725C905.736 399.608 905.284 393.475 904.502 387.374C903.37 378.354 902.197 369.349 900.675 360.376C899.235 351.791 897.445 343.221 895.511 334.682C894.297 329.326 892.61 324.032 890.984 318.738C889.359 313.444 887.733 308.119 885.696 302.902C882.26 294.099 878.66 285.343 874.771 276.649C870.882 267.955 867.076 259.075 862.241 250.583C856.788 240.973 850.451 231.627 844.155 222.28C838.518 213.943 832.654 205.669 826.399 197.549C821.07 190.609 815.165 183.871 809.239 177.18C803.314 170.489 797.244 163.86 790.948 157.37C785.989 152.293 780.66 147.341 775.352 142.497C767.986 135.883 760.456 129.332 752.719 122.935C746.259 117.595 739.407 112.503 732.679 107.333C713.923 93.1394 693.875 79.9523 672.682 67.8681C654.713 57.3692 635.914 47.7051 616.389 38.9293C594.495 29.0594 571.434 20.7438 547.503 14.0892C524.277 7.59726 500.098 3.23957 475.491 1.11026C454.949 -0.653884 434.186 -0.314435 413.765 2.11939C397.2 4.06961 381.007 7.52039 365.537 12.397C341.311 20.2033 319.094 31.1656 299.903 44.7823C284.8 55.3228 271.024 66.8971 258.753 79.3566C247.436 90.9487 236.346 102.66 225.483 114.49C215.565 125.249 205.936 136.225 196.287 147.092C182.323 162.814 168.394 178.567 154.499 194.351C138.038 213.059 121.784 231.859 105.118 250.521C93.5962 263.437 81.2716 275.997 70.0171 289.038C58.0629 302.871 46.4381 316.859 35.6361 331.173C28.6368 340.789 22.345 350.688 16.7893 360.826C10.9166 371.412 6.50395 382.425 3.62119 393.693C1.02873 403.116 0.349771 412.587 0.0823142 426.777" fill="#54FBAC"/>
</svg>
