<svg width="20" height="15" viewBox="0 0 20 15" version="1.1" xmlns="http://www.w3.org/2000/svg" xmlns:xlink="http://www.w3.org/1999/xlink">
<title>youtube-play - FontAwesome</title>
<desc>Created using Figma</desc>
<g id="Canvas" transform="translate(-4825 -12613)">
<g id="youtube-play - FontAwesome">
<use xlink:href="#path0_fill" transform="translate(4825 12611)"/>
</g>
</g>
<defs>
<path id="path0_fill" d="M 7.93527 12.4464L 7.93527 6.83259L 13.3371 9.65625L 7.93527 12.4464ZM 10 2.82589C 5.79241 2.82589 3.00223 3.02679 3.00223 3.02679C 2.61161 3.07143 1.75223 3.07143 0.993304 3.875C 0.993304 3.875 0.379464 4.47768 0.200893 5.86161C -0.0111607 7.47991 0 9.09821 0 9.09821L 0 10.6161C 0 10.6161 -0.0111607 12.2344 0.200893 13.8527C 0.379464 15.2254 0.993304 15.8393 0.993304 15.8393C 1.75223 16.6317 2.7567 16.6094 3.20312 16.6875C 3.20312 16.6875 4.79911 16.8438 10 16.8884C 14.2076 16.8884 16.9978 16.6763 16.9978 16.6763C 17.3884 16.6317 18.2478 16.6317 19.0067 15.8393C 19.0067 15.8393 19.6205 15.2254 19.7991 13.8527C 20.0112 12.2344 20 10.6161 20 10.6161L 20 9.09821C 20 9.09821 20.0112 7.47991 19.7991 5.86161C 19.6205 4.47768 19.0067 3.875 19.0067 3.875C 18.2478 3.07143 17.3884 3.07143 16.9978 3.02679C 16.9978 3.02679 14.2076 2.82589 10 2.82589Z"/>
</defs>
</svg>
