<svg width="18" height="18" viewBox="0 0 18 18" version="1.1" xmlns="http://www.w3.org/2000/svg" xmlns:xlink="http://www.w3.org/1999/xlink">
<title>linkedin-square - FontAwesome</title>
<desc>Created using Figma</desc>
<g id="Canvas" transform="translate(-4825 -12576)">
<g id="linkedin-square - FontAwesome">
<use xlink:href="#path0_fill" transform="translate(4825 12575)"/>
</g>
</g>
<defs>
<path id="path0_fill" d="M 2.64509 15.6384L 2.64509 7.89286L 5.22321 7.89286L 5.22321 15.6384L 2.64509 15.6384ZM 5.39062 5.50446C 5.39062 6.24107 4.83259 6.84375 3.92857 6.84375L 3.91741 6.84375C 3.04688 6.84375 2.48884 6.24107 2.48884 5.50446C 2.48884 4.74554 3.0692 4.16518 3.95089 4.16518C 4.83259 4.16518 5.37946 4.74554 5.39062 5.50446ZM 11.9196 15.6384L 11.9196 11.4978C 11.9196 10.4487 11.5513 9.74554 10.625 9.74554C 9.91071 9.74554 9.48661 10.2254 9.29688 10.683C 9.22991 10.8504 9.21875 11.0848 9.21875 11.308L 9.21875 15.6384L 6.64062 15.6384C 6.67411 8.6183 6.64062 7.89286 6.64062 7.89286L 9.21875 7.89286L 9.21875 9.02009L 9.19643 9.02009C 9.53125 8.48438 10.1451 7.71429 11.529 7.71429C 13.2254 7.71429 14.4978 8.8192 14.4978 11.1964L 14.4978 15.6384L 11.9196 15.6384ZM 17.1429 4.5C 17.1429 2.72545 15.7031 1.28571 13.9286 1.28571L 3.21429 1.28571C 1.43973 1.28571 0 2.72545 0 4.5L 0 15.2143C 0 16.9888 1.43973 18.4286 3.21429 18.4286L 13.9286 18.4286C 15.7031 18.4286 17.1429 16.9888 17.1429 15.2143L 17.1429 4.5Z"/>
</defs>
</svg>
